<svg preserveAspectRatio="xMidYMid meet" viewBox="0 0 343 278" fill="none" xmlns="http://www.w3.org/2000/svg">
<g clip-path="url(#clip0_406_2)">
<path d="M64.0329 13.9487C64.0329 19.5517 62.285 25.1396 61.6697 30.677C61.0136 36.5815 59.7313 42.8998 59.7313 48.8392C59.7313 57.4235 58.4157 66.0223 58.2975 74.6485C58.2407 78.7916 57.399 82.9381 57.3416 87.0752C57.2735 91.9765 57.3416 96.8837 57.3416 101.786C57.3416 111.399 57.4224 120.988 56.8902 130.569C56.6504 134.884 57.0766 139.129 57.315 143.42C57.474 146.281 58.2975 149.253 58.2975 152.077C58.2975 158.611 58.7754 178.207 58.7754 171.673" stroke="#ECACC4" stroke-width="3" stroke-linecap="round"/>
<path d="M64.0332 12.037C65.8758 11.8322 67.6335 10.7835 69.5562 10.6297C71.9283 10.4399 74.807 10.4924 77.0441 9.64722C82.2786 7.66975 87.6128 8.48467 92.9492 7.49644C98.2108 6.52207 103.633 5.34566 108.987 5.34566C112.049 5.34566 115.14 5.56249 118.148 4.97392C120.774 4.46009 123.387 3.9118 126.061 3.9118C130.145 3.9118 134.215 4.14729 138.222 3.32764C143.146 2.3204 148.131 2 153.171 2C160.261 2 167.35 2 174.44 2C177.388 2 180.264 2.9559 183.149 2.9559C186.59 2.9559 190.028 2.47795 193.531 2.47795C205.788 2.47795 217.188 6.53111 229.404 7.6292C234.704 8.1056 240.142 7.65859 245.416 8.47889C249.281 9.08016 253.147 9.66928 257.019 10.2314C261.471 10.8776 265.517 11.559 270.03 11.559C271.067 11.559 274.05 10.9917 274.703 12.037C275.337 13.0512 276.861 13.304 277.916 13.7098C279.487 14.3139 281.37 14.4267 283.041 14.4267C284.759 14.4267 285.648 14.065 283.891 15.3826" stroke="#ECACC4" stroke-width="3" stroke-linecap="round"/>
<path d="M279.111 15.3823C281.65 14.1878 284.083 16.9703 286.759 17.2676C289.097 17.5274 291.881 18.3806 293.556 20.0556C295.269 21.7684 298.866 22.2239 300.858 23.773C302.74 25.2367 305.053 24.6644 306.939 25.8972C312.328 29.4208 311.612 38.2964 311.612 44.0594C311.612 54.5389 311.612 65.0184 311.612 75.498C311.612 78.5861 312.453 81.5959 312.063 84.7118C311.551 88.8146 311.388 92.0106 311.612 96.1561C311.968 102.738 311.956 109.21 311.612 115.752C311.088 125.702 312.568 135.583 312.568 145.491C312.568 150.873 312.568 156.254 312.568 161.635" stroke="#ECACC4" stroke-width="3" stroke-linecap="round"/>
<path d="M55.4297 147.297C56.8895 153.683 57.3415 159.903 57.3415 166.415C57.3415 168.537 56.4269 172.912 58.7753 173.956C59.9213 174.465 61.9321 174.062 63.1831 174.062C65.8473 174.062 68.5114 174.062 71.1755 174.062C73.1467 174.062 75.0087 175.018 76.964 175.018C79.8056 175.018 82.5602 175.082 85.4344 175.018C87.6836 174.968 89.9702 174.129 92.2319 174.646C93.8167 175.009 95.4287 175.296 97.0114 175.523C102.265 176.273 107.793 176.452 113.156 176.452C118.326 176.452 123.414 176.93 128.609 176.93C135.08 176.93 141.893 177.395 148.365 177.912C161.211 178.94 174.21 177.981 187.079 178.868C201.177 179.84 215.213 177.886 229.377 177.886C234.155 177.886 238.82 176.93 243.636 176.93C250.378 176.93 256.862 177.487 263.577 176.903C268.633 176.464 273.515 175.974 278.633 175.974C280.244 175.974 285.075 176.473 285.802 175.018" stroke="#ECACC4" stroke-width="3" stroke-linecap="round"/>
<path d="M89.3639 43.5815C89.1309 47.7759 87.8412 51.8786 87.4256 56.0348C86.9538 60.7521 86.3697 65.356 85.9917 70.0813C85.1061 81.1514 84.1064 92.0625 84.1064 103.219C84.1064 113.397 84.5066 123.338 85.5137 133.41C85.7055 135.327 86.0182 137.285 86.0182 139.172C86.0182 140.134 85.9367 145.233 86.4962 142.995" stroke="#ECACC4" stroke-width="3" stroke-linecap="round"/>
<path d="M87.9307 44.0593C88.9947 44.8869 93.5691 42.107 94.9937 41.7757C97.3614 41.2251 99.7504 40.7708 102.163 40.3419C108.833 39.1562 115.893 38.6787 122.662 38.0849C133.618 37.1238 144.751 36.89 155.747 36.89C159.659 36.89 163.571 36.89 167.483 36.89C171.515 36.89 176.185 36.8862 180.175 36.3058C186.896 35.3283 194.036 35.9341 200.833 35.9341C204.379 35.9341 207.739 36.7626 211.242 36.89C214.781 37.0187 218.269 38.3239 221.73 38.3239C229.233 38.3239 234.984 39.1818 239.707 45.2542C242.09 48.3178 241.831 53.5339 241.831 57.2029C241.831 60.4959 242.787 63.7473 242.787 67.054C242.787 72.6649 242.489 78.4114 241.937 83.9948C241.163 91.819 240.875 99.3863 240.875 107.255C240.875 112.87 241.831 118.504 241.831 124.116C241.831 128.94 243.52 137.27 239.813 140.977C237.648 143.142 235.534 141.23 233.44 140.632C229.809 139.595 225.419 141.043 221.757 140.127" stroke="#ECACC4" stroke-width="3" stroke-linecap="round"/>
<path d="M99.879 57.9199C99.4499 54.9162 97.6222 63.5748 96.9051 66.523C96.2299 69.2989 96.2277 72.2777 95.4712 75.0199C93.1984 83.2587 93.6656 92.4547 93.6656 100.935C93.6656 105.186 94.34 109.185 95.0995 113.362C95.7911 117.166 95.9134 121.054 96.7723 124.833C98.0931 130.644 99.401 148.477 99.401 142.517" stroke="#ECACC4" stroke-width="3" stroke-linecap="round"/>
<path d="M89.8418 46.9272C90.0111 45.573 91.8228 48.385 92.0191 48.6C93.6431 50.3787 95.3341 52.1592 97.0111 53.884C98.6894 55.6103 100.004 56.4352 101.313 58.398" stroke="#ECACC4" stroke-width="3" stroke-linecap="round"/>
<path d="M102.747 57.4422C98.8186 56.9511 110.316 55.1151 114.112 53.9903C119.979 52.2518 126.466 51.2288 132.646 51.2288C135.478 51.2288 138.396 51.4116 141.222 51.2023C144.823 50.9356 148.386 49.795 152.003 49.795C155.711 49.795 159.313 49.317 162.995 49.317C165.13 49.317 167.308 48.6819 169.421 48.8656C171.328 49.0315 173.074 49.317 175.024 49.317C181.875 49.317 188.608 48.8391 195.47 48.8391C203.174 48.8391 210.724 47.8832 218.385 47.8832C221.094 47.8832 229.678 47.617 231.289 50.034C231.905 50.958 237.957 54.5996 237.051 55.0524" stroke="#ECACC4" stroke-width="3" stroke-linecap="round"/>
<path d="M55.4301 156.378C54.0487 156.531 52.2003 158.417 51.0224 159.139C48.5 160.687 45.9892 161.84 43.7203 163.76C42.0775 165.15 40.1083 165.738 38.2239 166.68C35.7453 167.92 33.7216 169.611 31.1608 170.716C26.753 172.62 22.4603 174.905 18.6279 177.886C17.1993 178.997 11.2462 181.517 12.7863 183.249C13.2506 183.772 10.9794 184.791 10.6089 185.161C9.88954 185.881 9.26144 186.698 9.04232 187.684C8.75945 188.957 7.79938 189.917 7.66157 191.295C7.38504 194.06 6.75196 196.692 6.09495 199.394C4.96496 204.039 3.33346 208.649 3.33346 213.493C3.33346 216.034 2.85551 218.542 2.85551 221.114C2.85551 223.951 3.23553 227.08 2.74929 229.876C1.98456 234.273 2.37755 238.923 2.37755 243.392C2.37755 245.813 1.46115 250.411 2.48377 252.712C3.24315 254.42 3.73036 256.49 5.48424 257.465C7.32995 258.49 10.8267 258.545 12.8925 258.659C14.7825 258.764 17.81 260.121 19.3448 261.315C21.7998 263.224 24.325 263.152 27.3372 263.917C32.5743 265.247 38.5999 266.273 43.9859 266.811C50.2191 267.435 56.177 269.652 62.4932 269.652C65.2638 269.652 67.9376 270.13 70.7246 270.13C72.7326 270.13 74.9431 269.872 76.9379 270.157C82.3933 270.936 87.6038 272.042 93.1883 272.042C100.226 272.042 107.159 272.998 114.192 272.998C121.724 272.998 129.256 272.998 136.788 272.998C140.026 272.998 143.014 272.4 146.241 272.892C150.295 273.51 154.54 273.954 158.641 273.954C165.02 273.954 171.418 274.314 177.786 274.432C191.771 274.691 205.834 275.133 219.845 275.388C225.465 275.49 231.146 276.259 236.813 275.839C243.236 275.363 249.724 275.033 256.17 275.759C264.998 276.754 273.773 275.26 282.351 273.582C285.955 272.877 290.859 273.797 294.193 272.281C297.981 270.559 302.517 270.312 306.354 268.696C309.846 267.226 314.988 266.277 318.781 265.855C321.373 265.567 324.164 265.527 326.428 264.395" stroke="#ECACC4" stroke-width="3" stroke-linecap="round"/>
<path d="M323.083 202.261C322.005 203.473 322.496 206.545 322.711 207.997C323.148 210.947 323.083 213.856 323.083 216.839C323.083 223.001 323.561 229.101 323.561 235.24C323.561 244.008 324.516 270.295 324.516 261.527" stroke="#ECACC4" stroke-width="3" stroke-linecap="round"/>
<path d="M323.082 198.916C323.082 196.855 324.032 194.245 324.516 192.224C325.379 188.62 326.697 184.993 327.277 181.338C327.948 177.115 330.361 173.255 331.685 169.283" stroke="#ECACC4" stroke-width="3" stroke-linecap="round"/>
<path d="M335.031 163.069C333.825 166.086 334.905 171.286 335.615 174.328C336.764 179.246 339.09 183.998 339.306 189.091C339.465 192.824 339.333 196.586 339.333 200.323C339.333 202.358 338.81 205.189 339.439 207.147C340.703 211.08 340.767 214.843 340.767 218.99C340.767 224.309 340.622 230.531 338.855 235.612C337.591 239.244 337.396 243.418 336.226 247.162C335.565 249.277 334.293 250.992 333.119 252.818C332.149 254.328 331.553 256.103 330.73 257.704C329.975 259.172 328.68 260.288 327.889 261.74C327.471 262.505 325.95 265.998 325.95 264.395" stroke="#ECACC4" stroke-width="3" stroke-linecap="round"/>
<path d="M321.648 158.29C323.878 160.074 328.904 158.354 331.685 159.246C332.226 159.419 335.536 161.171 334.553 160.68" stroke="#ECACC4" stroke-width="3" stroke-linecap="round"/>
<path d="M12.4138 186.011C12.2391 186.211 18.3789 187.784 19.53 188.135C21.8113 188.833 24.1099 189.315 26.3806 189.941C28.7491 190.594 31.1109 190.574 33.4437 191.481C36.3241 192.601 39.2282 193.291 42.2592 193.897C52.1641 195.878 62.7572 197.482 72.8746 197.482C85.8828 197.482 98.7746 199.872 111.828 199.872C119.348 199.872 127.211 200.825 134.663 201.89C138.326 202.413 142.028 202.467 145.709 202.978C149.601 203.519 153.613 202.742 157.472 203.456C164.59 204.775 172.723 205.607 179.962 205.607C188.199 205.607 196.346 206.563 204.55 206.563C212.81 206.563 221.095 207.997 229.377 207.997C233.458 207.997 237.588 208.475 241.724 208.475C249.18 208.475 256.346 206.563 263.843 206.563C272.389 206.563 280.522 207.256 289.041 206.191C296.719 205.232 304.951 204.482 312.328 202.023C315.015 201.127 317.37 199.66 320.108 198.81C320.667 198.636 323.419 197.96 323.082 197.96" stroke="#ECACC4" stroke-width="3" stroke-linecap="round"/>
<path d="M79.3273 211.821C79.3273 210.591 78.2153 216.191 77.9997 217.078C76.7837 222.082 76.7608 227.001 76.4331 232.08C75.9633 239.361 75.2852 246.723 75.0258 253.987C74.862 258.571 75.5037 272.328 75.5037 267.741" stroke="#ECACC4" stroke-width="3" stroke-linecap="round"/>
<path d="M86.4964 245.755C85.2846 246.209 85.8827 253.34 85.7794 254.517C85.7185 255.212 85.0625 258.902 85.0625 258.66" stroke="#ECACC4" stroke-width="3" stroke-linecap="round"/>
<path d="M97.0116 248.145C97.0116 242.877 96.0557 269.184 96.0557 263.917" stroke="#ECACC4" stroke-width="3" stroke-linecap="round"/>
<path d="M107.527 249.578C107.527 244.955 107.049 268.062 107.049 263.439" stroke="#ECACC4" stroke-width="3" stroke-linecap="round"/>
<path d="M120.909 250.057C119.802 249.988 119.953 249.511 119.953 250.853C119.953 253.483 119.817 256.042 119.582 258.66C119.476 259.832 119.953 263.495 119.953 263.439" stroke="#ECACC4" stroke-width="3" stroke-linecap="round"/>
<path d="M130.946 251.012C130.946 255.476 130.468 268.859 130.468 264.395" stroke="#ECACC4" stroke-width="3" stroke-linecap="round"/>
<path d="M141.939 250.057C141.811 249.945 142.455 256.048 142.39 257.438C142.297 259.442 141.939 265.445 141.939 263.439" stroke="#ECACC4" stroke-width="3" stroke-linecap="round"/>
<path d="M156.278 250.057C154.271 250.503 155.322 257.923 155.322 259.403C155.322 260.067 155.322 266.308 155.322 264.395" stroke="#ECACC4" stroke-width="3" stroke-linecap="round"/>
<path d="M8.1123 238.585C11.2986 238.585 14.485 238.585 17.6713 238.585C20.2569 238.585 22.4311 239.541 24.8406 239.541" stroke="#ECACC4" stroke-width="3" stroke-linecap="round"/>
<path d="M9.06816 238.585C7.52156 240.325 7.15635 245.147 7.15635 247.401C7.15635 249.86 6.58151 251.012 9.33368 251.012C11.8261 251.012 14.2529 251.49 16.7685 251.49C17.4286 251.49 21.6249 252.104 22.3446 251.384C23.0853 250.643 22.4508 246.608 22.4508 245.755C22.4508 244.154 22.9287 239.374 22.9287 240.975" stroke="#ECACC4" stroke-width="3" stroke-linecap="round"/>
<path d="M15.7595 199.872C15.021 200.795 10.5424 220.196 11.2455 220.397C17.5936 222.211 24.5321 222.583 31.0539 223.769C32.927 224.11 34.4511 225.173 36.3114 225.575C38.4434 226.036 41.2413 226.159 43.4276 226.159C46.9491 226.159 50.7617 226.503 54.3673 226.637C55.4593 226.677 56.2219 227.593 57.3678 227.593C58.9982 227.593 60.5101 228.343 62.1208 228.522C64.2548 228.759 66.4825 229.057 68.3341 229.983" stroke="#ECACC4" stroke-width="3" stroke-linecap="round"/>
<path d="M71.202 209.909C71.202 214.529 71.202 219.149 71.202 223.769C71.202 225.746 70.2461 227.618 70.2461 229.505" stroke="#ECACC4" stroke-width="3" stroke-linecap="round"/>
<path d="M15.2822 200.35C20.8561 200.35 25.6331 203.351 31.0281 203.669C37.4358 204.046 43.3902 206.115 49.6947 207.147C54.6961 207.966 60.0985 208.311 64.9891 209.67C66.6933 210.143 72.0153 210.387 70.2466 210.387" stroke="#ECACC4" stroke-width="3" stroke-linecap="round"/>
<path d="M63.5547 220.901C59.0359 223.028 64.0386 228.065 66.6614 225.442C70.1406 221.963 63.3167 217.792 62.1208 221.379" stroke="#ECACC4" stroke-width="3" stroke-linecap="round"/>
<path d="M22.929 210.387C21.4112 211.101 21.2389 211.15 22.9821 212.139C23.5249 212.447 28.5356 214.641 26.2216 213.626C24.9119 213.052 22.7009 212.692 21.6014 211.714C20.45 210.691 24.5311 212.685 26.0357 213.015C26.4953 213.116 31.4009 214.406 28.8503 214.184C26.8687 214.011 24.8256 213.281 22.9821 212.564C21.3172 211.917 23.3356 212.372 23.938 212.564C26.3139 213.32 28.575 213.962 31.0542 214.21" stroke="#ECACC4" stroke-width="3" stroke-linecap="round"/>
<path d="M30.5762 214.688C30.7629 213.754 33.2866 209.291 34.2936 209.165C34.8661 209.094 33.5975 210.766 34.1608 210.891C38.3393 211.82 43.0938 211.867 47.0655 212.75C50.4964 213.512 45.6497 219.692 50.6501 218.406C52.6462 217.892 55.1516 216.934 57.0759 218.034C57.764 218.427 60.5866 218.512 59.2532 218.512" stroke="#ECACC4" stroke-width="3" stroke-linecap="round"/>
<path d="M33.9223 218.512C32.7454 218.642 33.4012 218.946 34.2144 219.016C36.2931 219.197 38.466 219.527 40.5075 219.946C41.6958 220.189 45.128 221.07 44.1186 220.397C42.9802 219.638 41.1912 219.946 39.9233 219.946C38.3666 219.946 30.0012 220.845 35.3562 220.052C38.2067 219.629 46.841 220.901 43.9593 220.901" stroke="#ECACC4" stroke-width="3" stroke-linecap="round"/>
<path d="M289.148 241.931C284.452 241.931 282.457 243.293 282.457 248.383C282.457 250.503 281.683 254.685 282.696 256.509C286.765 263.833 296.217 264.325 302.637 259.881C306.603 257.135 306.832 250.991 306.832 246.711C306.832 243.868 303.434 238.912 300.619 238.107C298.525 237.509 297.666 236.674 295.255 236.674C293.474 236.674 291.835 236.638 290.104 237.045C284.658 238.327 281.08 243.002 283.89 248.622" stroke="#ECACC4" stroke-width="3" stroke-linecap="round"/>
<path d="M293.449 247.667C291.597 248.539 288.021 251.413 290.156 253.854C293.113 257.233 299.163 254.786 299.636 250.535C300.26 244.914 294.549 244.379 291.643 248.145C290.655 249.426 289.474 253.67 291.537 254.358" stroke="#ECACC4" stroke-width="3" stroke-linecap="round"/>
<path d="M229.404 158.29C228.064 160.112 224.854 166.446 228.714 167.849C231.713 168.94 236.231 170.393 238.22 166.415C239.937 162.98 238.504 157.175 234.29 156.484C231.522 156.031 229.31 157.037 228.209 159.458C227.686 160.61 228.368 163.507 229.404 164.025" stroke="#ECACC4" stroke-width="3" stroke-linecap="round"/>
<path d="M210.286 153.51C210.286 158.547 208.852 163.494 208.852 168.539C208.852 170.112 208.039 170.239 210.073 170.239C210.937 170.239 214.507 170.137 214.959 169.283C215.881 167.54 215.065 163.515 215.065 161.635C215.065 159.207 215.675 157.656 215.994 155.422C216.142 154.393 216.402 152.087 215.304 151.598C213.758 150.911 211.563 151.432 210.764 153.032" stroke="#ECACC4" stroke-width="3" stroke-linecap="round"/>
<path d="M197.381 153.51C195.629 153.729 195.469 164.153 195.469 166.176C195.469 167.904 194.513 168.422 196.053 169.654C196.708 170.178 199.695 169.873 200.461 169.734C202.338 169.393 202.306 167.928 201.922 166.388C201.143 163.275 201.683 159.579 201.683 156.378C201.683 154.882 202.325 153.032 200.488 153.032C199.656 153.032 195.948 153.989 196.425 154.466" stroke="#ECACC4" stroke-width="3" stroke-linecap="round"/>
<path d="M283.413 19.2061C283.413 28.8588 284.368 38.6485 284.368 48.3345C284.368 54.2233 284.719 60.099 284.846 65.9391C284.97 71.6367 283.466 77.6852 284.475 83.3577C285.883 91.2788 284.846 100.094 284.846 108.132C284.846 116.681 284.368 125.15 284.368 133.675C284.368 141.827 283.413 150.027 283.413 158.184C283.413 160.018 284.642 171.297 282.935 172.15" stroke="#ECACC4" stroke-width="3" stroke-linecap="round"/>
<path d="M285.324 176.93C292.082 172.675 298.152 167.511 304.814 163.069C307.34 161.385 315.283 156.932 312.567 158.29" stroke="#ECACC4" stroke-width="3" stroke-linecap="round"/>
<path d="M86.0186 142.995C86.1479 141.961 95.0831 142.517 94.9934 142.517C94.228 142.517 87.3311 142.343 87.3993 142.889C87.5754 144.298 93.9424 141.731 94.6217 141.562" stroke="#ECACC4" stroke-width="3" stroke-linecap="round"/>
<path d="M87.4521 143.951C92.7034 143.951 96.4473 141.12 101.313 140.579C105.748 140.086 110.173 140.128 114.669 140.128C117.625 140.128 120.74 139.856 123.67 140.234C127.633 140.745 132.293 140.541 136.097 141.668C138.235 142.301 139.411 141.582 141.567 141.19C144.784 140.605 148.289 140.265 151.498 140.978C157.293 142.265 163.868 140.414 169.66 141.057C176.401 141.806 184.76 142.563 191.46 141.323C195.965 140.488 200.914 140.281 205.506 139.756C209.373 139.314 213.458 139.65 217.349 139.65C223.938 139.65 230.439 140.128 237.051 140.128" stroke="#ECACC4" stroke-width="3" stroke-linecap="round"/>
<path d="M313.523 53.6187C313.646 55.5842 315.865 56.0979 316.869 57.5485C317.88 59.0089 319.478 60.4199 320.958 61.2659C321.801 61.7473 328.29 64.8757 326.906 65.5674" stroke="#ECACC4" stroke-width="3" stroke-linecap="round"/>
<path d="M319.737 60.3101C321.888 62.461 324.813 64.1558 325.499 67.2403C326.478 71.6483 327.328 75.8222 327.835 80.384C328.376 85.2535 329.011 90.362 329.296 95.2005C329.671 101.586 331.207 107.979 331.207 114.425C331.207 119.877 332.163 125.164 332.163 130.595C332.163 134.195 331.788 139.561 330.013 142.757C327.805 146.731 326.855 151.933 323.56 155.422C322.169 156.896 319.363 157.75 317.453 158.184C315.879 158.542 314.081 159.724 312.567 159.724" stroke="#ECACC4" stroke-width="3" stroke-linecap="round"/>
<path d="M282.456 175.496C282.456 174.366 281.979 167.663 281.979 170.716" stroke="#ECACC4" stroke-width="3" stroke-linecap="round"/>
<path d="M237.529 55.5303C237.634 57.3101 244.172 61.2335 239.919 58.398" stroke="#ECACC4" stroke-width="3" stroke-linecap="round"/>
<path d="M111.473 100.276V98.206H109.38V87.58H111.473V85.487H117.959V87.58H120.075V98.206H117.959V100.276H111.473ZM111.703 97.976H117.729V87.81H111.703V97.976ZM124.95 100.276V98.206H122.857V85.487H125.18V89.65H131.436V91.743H133.552V98.206H131.436V100.276H124.95ZM125.18 97.976H131.206V91.95H125.18V97.976ZM135.884 100.276V91.743H137.977V89.65H144.463V91.743H146.579V94.02H144.233V91.95H138.207V100.276H135.884ZM149.36 100.276V89.65H151.683V100.276H149.36ZM149.36 87.81V85.487H151.683V87.81H149.36ZM156.103 104.439V102.369H154.01V100.069H156.333V102.139H162.382V98.206H156.103V96.113H154.01V91.743H156.103V89.65H162.612V91.743H164.705V102.369H162.612V104.439H156.103ZM156.333 95.883H162.382V91.95H156.333V95.883ZM168.883 100.276V98.206H166.79V91.743H168.883V89.65H175.369V91.743H177.485V97.976H179.578V100.276H177.255V98.206H175.369V100.276H168.883ZM169.113 97.976H175.139V91.95H169.113V97.976ZM183.303 100.276V98.206H181.21V91.743H183.303V89.65H189.582V85.487H191.905V98.206H189.789V100.276H183.303ZM183.533 97.976H189.559V91.95H183.533V97.976ZM196.33 100.276V98.206H194.237V91.743H196.33V89.65H202.816V91.743H204.932V97.976H207.025V100.276H204.702V98.206H202.816V100.276H196.33ZM196.56 97.976H202.586V91.95H196.56V97.976ZM209.803 96.113V85.487H212.126V96.113H209.803ZM209.803 100.276V97.976H212.126V100.276H209.803ZM219.506 98.137V95.814H221.829V98.137H219.506ZM219.506 94.043V91.743H221.829V94.043H219.506ZM223.915 103.68V99.287H226.008V95.078H228.101V91.145H226.008V86.959H223.915V82.589H226.238V86.729H228.331V90.915H230.424V95.308H228.331V99.448H226.238V103.68H223.915Z" fill="#ECACC4"/>
</g>
<defs>
<clipPath id="clip0_406_2">
<rect width="343" height="278" fill="white"/>
</clipPath>
</defs>
</svg>
