<svg preserveAspectRatio="xMidYMid meet" viewBox="0 0 128 131" fill="none" xmlns="http://www.w3.org/2000/svg">
<path d="M92.6801 34.5121C92.6049 35.1135 85.9627 34.1977 85.2795 33.9244C82.1795 32.6844 78.66 32.4772 75.3975 31.9219C71.7262 31.297 67.8724 31.1918 64.166 30.9859C63.2898 30.9373 62.1836 30.7315 61.3363 30.4962C60.3963 30.2351 59.4315 30.3691 58.5938 29.8105" stroke="#292828" stroke-width="2" stroke-linecap="round"/>
<path d="M58.7894 30.0064C58.9193 29.8333 56.6475 29.8165 56.2319 29.7126C55.0563 29.4187 53.5319 29.2555 52.3248 29.2228C50.0389 29.161 47.7086 28.4392 45.4248 28.4392C40.517 28.4392 35.6066 28.2433 30.678 28.2433C29.3979 28.2433 28.1883 28.0188 26.9015 28.0474C25.7455 28.0731 24.5863 28.4392 23.4298 28.4392C22.3415 28.4392 21.3078 28.7929 20.241 28.831C19.4412 28.8596 17.8484 28.9389 17.161 29.3208C15.953 29.9919 14.053 30.1178 13.2431 31.3777C12.362 32.7483 10.9902 34.6024 10.9902 36.2752" stroke="#292828" stroke-width="2" stroke-linecap="round"/>
<path d="M11.9707 32.748V32.9439" stroke="#292828" stroke-width="2" stroke-linecap="round"/>
<path d="M10.7949 37.0586C9.86753 37.1166 10.2072 40.7564 10.2072 41.5207C10.2072 41.9084 10.5306 40.4103 10.5555 40.2365C10.6545 39.5433 10.7582 38.8584 10.882 38.1687C10.8846 38.1542 11.0629 37.0028 10.9473 37.581C10.8951 37.8418 10.7985 39.2171 10.599 39.0176" stroke="#292828" stroke-width="2" stroke-linecap="round"/>
<path d="M10.0116 41.9551C9.08718 42.0871 10.2973 47.4434 10.4469 47.8756C10.7485 48.7468 10.4034 49.5005 10.4034 50.3787C10.4034 51.2276 10.4034 52.0765 10.4034 52.9254C10.4034 54.6001 9.78562 56.1086 9.63064 57.7358C9.5529 58.5521 9.36697 59.375 9.18443 60.1736C8.95175 61.1916 9.0552 62.2235 9.03207 63.2645C9.01035 64.2415 8.48866 65.1419 8.44437 66.0941C8.39436 67.1694 8.2205 68.3671 8.00904 69.4244C7.78397 70.5497 7.36549 71.6531 7.27986 72.8091C7.19874 73.9042 7.21769 75.17 6.97513 76.2373C6.49862 78.3339 6.76639 80.6325 6.19154 82.7019C5.01828 86.9256 5.87658 91.5783 6.30037 95.8162C6.69345 99.747 9.76887 101.707 13.1895 103.075C14.028 103.411 14.8106 103.976 15.7035 104.066C16.7828 104.174 17.8618 104.272 18.9249 104.436C19.9779 104.598 21.096 104.361 22.1573 104.458C23.0807 104.541 23.983 104.747 24.8998 104.849C27.4169 105.129 30.1642 105.426 32.5399 105.426" stroke="#292828" stroke-width="2" stroke-linecap="round"/>
<path d="M39.1996 52.5347C38.2852 52.5347 37.7601 53.7783 37.1971 54.3413C36.4864 55.052 35.5706 55.5099 35.0857 56.4527C34.4098 57.7669 33.4328 58.8524 32.735 60.1747C32.3465 60.9107 31.8751 61.4973 31.5596 62.2861C31.2248 63.123 31.1247 63.9996 30.776 64.8328C30.2168 66.1686 29.2196 67.358 28.8605 68.7943C28.4997 70.2378 28.5432 71.8305 28.1858 73.2999C27.8345 74.744 27.6416 76.4658 27.6416 77.9579C27.6416 79.3187 27.3734 80.9931 27.7396 82.3112C28.1251 83.6993 27.8843 85.3772 28.0443 86.8169C28.208 88.2899 28.7682 89.5739 29.2959 90.9308C29.8127 92.2597 29.8092 93.6767 30.493 94.9467C31.2547 96.3612 31.7555 97.3083 31.7555 98.9626C31.7555 99.7796 31.8506 100.589 32.1473 101.357C32.3875 101.979 32.854 102.437 33.0832 103.033C33.44 103.961 33.9816 105.168 34.6504 105.863C35.7213 106.975 36.4277 108.287 37.676 109.258C38.4309 109.845 39.3355 110.069 40.0267 110.76C40.5149 111.248 40.629 111.843 41.0606 112.371C41.922 113.423 43.3123 113.88 44.195 114.83C45.1494 115.858 46.3881 116.296 47.5253 117.083C49.4143 118.391 51.5769 119.502 53.6852 120.424C56.211 121.529 58.8351 121.398 61.532 121.698C63.0313 121.864 64.3672 122.47 65.9397 122.47C67.4598 122.47 68.9798 122.47 70.4998 122.47C74.0093 122.47 77.1009 121.444 80.4906 120.751C83.6392 120.107 86.1756 118.607 88.7728 116.789C91.178 115.106 93.9747 114.543 95.9122 112.175C97.6135 110.095 99.0493 107.948 100.516 105.667C101.252 104.521 102.264 103.498 102.867 102.293C103.471 101.084 103.915 99.6384 104.63 98.5273C105.209 97.6256 105.418 96.5804 105.761 95.5888C106.107 94.5914 106.848 93.5671 107.372 92.6503C107.649 92.1656 107.744 91.5232 107.764 90.9743C107.791 90.2178 108.244 89.3679 108.548 88.6888C109.03 87.6113 108.983 86.0747 108.939 84.9014C108.889 83.5517 108.604 82.3897 108.983 81.027C109.453 79.3348 109.785 77.9701 109.538 76.2384C109.252 74.2339 109.04 72.3219 108.548 70.3506C108.067 68.4276 105.986 68.3423 105.239 66.6611C105 66.1242 104.831 65.5377 104.63 64.9851C104.439 64.4614 103.883 64.1487 103.694 63.6574C102.801 61.3366 103.181 59.2054 101.256 57.2798C100.394 56.4176 99.2435 55.442 98.5568 54.4501C98.2354 53.9859 97.9893 53.2594 97.5338 52.9265C96.7636 52.3637 96.0125 51.7535 95.3354 51.0763C94.8367 50.5776 94.4465 49.9915 93.9423 49.4874C93.0725 48.6176 91.6168 48.3014 90.6229 47.5284C88.7584 46.0783 86.6241 44.7736 84.463 43.8281C83.5623 43.434 82.6945 42.6737 81.7095 42.533C80.5255 42.3638 79.0809 41.7428 77.9766 41.2597C76.6945 40.6987 74.8197 40.7623 73.7648 39.8993C72.9973 39.2713 70.8478 39.4788 69.9121 39.6489C68.3806 39.9274 66.9808 39.5388 65.45 39.6054C64.7866 39.6342 64.0977 39.9077 63.4475 40.0407C62.6335 40.2072 61.7816 40.1073 60.9879 40.3455C59.4939 40.7936 57.9526 40.9357 56.4387 41.325C54.356 41.8605 52.4941 43.0902 50.4746 43.8172C47.7376 44.8026 45.9099 47.7283 43.2264 48.8017C41.8577 49.3492 40.7152 50.6273 39.7002 51.6423C38.4858 52.8567 36.8829 53.4377 36.6529 55.2773" stroke="#292828" stroke-width="2" stroke-linecap="round"/>
<path d="M71.1324 55.8655C70.5951 55.7678 70.3141 55.2778 69.7502 55.2778C68.9376 55.2778 68.125 55.2778 67.3124 55.2778C65.7003 55.2778 63.6594 55.2438 62.132 55.7784C61.4751 56.0083 61.0446 56.5019 60.358 56.6926C59.5818 56.9082 58.7873 57.4835 58.2031 58.0204C57.5587 58.6125 56.6929 58.7818 56.0482 59.3916C55.2367 60.1593 54.2795 60.5324 53.3492 61.1112C52.5703 61.5958 52.3158 62.5352 51.7276 63.2117C50.9999 64.0485 50.3327 64.5637 49.7795 65.5516C48.9372 67.0556 48.0891 68.5052 47.3416 70.0681C45.6614 73.5814 44.4902 76.9959 44.4902 80.9296C44.4902 84.2942 44.5728 87.6871 45.2303 90.9748C45.6076 92.8615 45.6889 94.3379 46.6886 96.0682C47.4956 97.4648 48.8138 98.8082 50.1278 99.7467C51.3389 100.612 52.0392 102.12 53.4036 102.772C54.9396 103.507 56.6267 103.944 58.2031 104.557C59.5437 105.078 60.9694 105.82 62.4367 105.82C64.2296 105.82 66.0556 106.207 67.8021 105.722C71.3123 104.747 75.21 105.242 78.5765 103.621C80.7657 102.567 83.0183 101.762 85.1391 100.53C86.7421 99.5995 87.8245 98.2292 88.97 96.7973C90.6977 94.6378 92.6474 91.9022 93.3124 89.1682C93.666 87.7146 93.203 86.2424 93.8566 84.8584C94.3172 83.883 94.2489 81.7942 94.009 80.7446C93.6937 79.3653 93.826 77.855 93.6498 76.4457C93.4899 75.1662 92.5643 73.6543 91.9956 72.5168C91.162 70.8497 91.1093 69.2145 89.438 68.0112C88.4582 67.3057 87.7049 66.7547 87.109 65.6713C86.676 64.884 86.0924 64.1088 85.4221 63.5055C84.1758 62.3839 82.7979 60.8521 81.3627 60.0229C79.9594 59.2121 78.6328 58.1657 77.2053 57.4327C74.2585 55.9194 70.0735 54.162 67.0185 56.4532" stroke="#292828" stroke-width="2" stroke-linecap="round"/>
<path d="M52.1298 115.025C50.749 115.025 52.4251 115.601 52.9569 115.613C54.5741 115.649 56.0458 116.312 57.6149 116.397C59.3923 116.493 61.1663 116.928 62.9477 116.984C65.0145 117.05 67.2365 117.03 69.2817 117.333C71.0138 117.589 72.9099 117.376 74.6581 117.376C76.6416 117.376 78.482 117.144 80.3827 116.593C81.2714 116.335 82.3011 116.152 83.0708 115.613C83.7346 115.148 84.4702 114.707 85.2366 114.438C86.8613 113.866 88.6306 112.77 89.9817 111.695C91.2514 110.685 91.9991 109.337 93.0725 108.169C94.096 107.055 95.269 105.792 95.9675 104.447C96.4065 103.601 97.1215 103.226 97.6544 102.488C98.0606 101.925 98.2906 101.205 98.5577 100.572C99.0833 99.3275 99.6778 97.8162 100.364 96.6545C100.991 95.5937 101.615 94.2918 101.931 93.0848C102.268 91.8001 103.129 90.4757 103.248 89.1668C103.332 88.2449 103.345 87.3454 103.499 86.4242C103.741 84.9701 104.043 83.5506 104.043 82.0709C104.043 80.4412 103.671 79.3326 104.435 77.8047" stroke="#292828" stroke-width="2" stroke-linecap="round"/>
<path d="M98.1664 111.108C98.6776 111.108 98.8958 110.971 99.3418 110.759C99.7803 110.552 100.663 110.7 101.116 110.727C102.649 110.817 103.865 111.5 105.415 111.5C108.119 111.5 110.969 111.868 113.599 110.912C114.729 110.501 115.926 110.449 116.287 109.149C116.568 108.136 116.663 106.983 117.081 106.025C117.53 104.999 117.64 103.956 117.909 102.88C118.301 101.311 119.009 99.7742 119.28 98.1785C119.513 96.8031 119.214 95.3543 119.334 93.9666C119.461 92.5062 120.047 90.9329 120.303 89.461C120.537 88.1169 121.459 86.4962 122.066 85.2492C122.695 83.9567 122.85 82.7471 122.85 81.3312C122.85 78.8467 122.223 75.8907 123.154 73.4953C124.12 71.0123 124.417 68.8546 124.417 66.16C124.417 63.617 125.063 61.1387 125.004 58.5635C124.977 57.3578 125.004 56.1784 125.004 54.9829C125.004 54.0162 125.074 53.0715 124.809 52.1424C124.55 51.2382 124.613 50.3426 124.613 49.3998C124.613 48.4493 124.038 47.3123 123.59 46.4613C122.923 45.1941 121.505 43.8057 120.303 43.0331C118.435 41.832 116.385 41.1721 114.426 40.1926C112.078 39.0187 109.723 38.0205 107.156 37.45C105.385 37.0565 103.492 36.6551 101.693 36.427C100.128 36.2286 98.7127 35.3292 97.1434 35.2951C95.6951 35.2636 94.3001 34.9296 92.8771 34.9033C91.7057 34.8816 90.6201 34.4008 89.5469 34.7074" stroke="#292828" stroke-width="2" stroke-linecap="round"/>
<path d="M96.5986 34.1189C98.2285 33.9559 99.1112 31.983 100.212 31.0824C101.394 30.1155 103.409 28.9417 104.979 28.8296C106.718 28.7054 108.174 28.8777 109.92 29.0364C111.066 29.1406 112.095 29.5828 113.25 29.6132C114.337 29.6418 115.52 29.9653 116.58 30.2009C119.306 30.8065 121.996 31.7332 122.468 34.8045C122.689 36.2372 122.285 37.8807 121.674 39.2122C121.208 40.2264 120.875 41.3424 120.705 42.4445C120.631 42.926 120.92 43.7475 120.302 43.1302" stroke="#292828" stroke-width="2" stroke-linecap="round"/>
<path d="M105.609 31.377C105.906 31.4099 106.02 31.6968 106.295 31.7579C106.777 31.8649 107.277 31.9269 107.764 32.0082C109.277 32.2602 110.734 32.6632 112.226 32.9877C112.822 33.1172 118.013 34.3866 117.755 34.9031" stroke="#292828" stroke-width="2" stroke-linecap="round"/>
<path d="M106.785 28.4381C106.645 28.9998 106.339 28.1365 106.437 27.8069C106.682 26.9791 106.961 26.3535 107.667 25.8043C108.151 25.4278 108.861 25.4996 109.43 25.4996C110.417 25.4996 111.897 25.5159 112.814 25.8914C115.147 26.8455 117.714 27.578 120.182 28.3293C121.677 28.7841 120.694 29.6557 120.694 30.7889" stroke="#292828" stroke-width="2" stroke-linecap="round"/>
<path d="M15.3006 29.2224C14.8227 29.2523 14.1171 29.3956 14.3646 28.5912C14.607 27.8035 14.6008 26.8302 14.9523 26.088C15.4025 25.1377 16.2459 24.9543 17.2161 24.7603C18.9785 24.4078 20.9101 24.5209 22.7012 24.5209C26.3012 24.5209 29.8601 24.325 33.4756 24.325C34.2907 24.325 35.7295 24.1954 35.674 25.3045C35.648 25.8259 34.2542 27.6552 35.2822 27.6552" stroke="#292828" stroke-width="2" stroke-linecap="round"/>
<path d="M35.6738 25.5003C37.0566 25.362 38.624 23.7125 39.3741 22.6707C40.1282 21.6233 40.7939 20.5018 41.4637 19.4057C41.9121 18.6719 42.1401 17.8431 42.5738 17.1202C43.035 16.3516 43.734 15.7199 44.0975 14.8783C44.4567 14.0464 44.9096 13.1376 45.4687 12.4186C46.1604 11.5294 47.1125 11.2613 47.9719 10.612C49.3219 9.592 50.9089 9.37669 52.5973 9.25163C54.8481 9.0849 57.1134 8.84895 59.3775 8.84895C64.1589 8.84895 68.9376 8.49419 73.6781 9.28428C74.4506 9.41302 75.2492 9.372 76.0071 9.55636C76.766 9.74095 77.7289 9.78737 78.4232 10.1549C78.8271 10.3688 79.1194 10.7256 79.555 10.895C80.7152 11.3462 81.8529 11.3427 82.7874 12.2772C83.6627 13.1525 84.987 12.9977 85.8238 13.7464C86.4804 14.3339 87.119 15.4479 87.3475 16.2931C87.7636 17.833 87.8628 19.4248 88.1746 20.9838C88.5398 22.81 88.1917 24.4026 89.0344 26.088C89.9925 28.0043 89.3284 32.0884 91.8966 32.9444" stroke="#292828" stroke-width="2" stroke-linecap="round"/>
<path d="M36.8497 27.6557C36.6172 28.0276 37.6731 27.6733 37.7857 27.6121C38.399 27.2788 39.0362 26.9273 39.5814 26.4911C40.526 25.7355 41.6381 25.2267 42.6179 24.5213C43.3794 23.973 43.94 22.992 44.2939 22.127C44.6349 21.2934 45.3014 20.4693 45.5128 19.6238C45.8006 18.4728 45.7439 17.3835 46.3508 16.3044C46.8949 15.3371 47.2671 14.377 47.7221 13.366C48.3069 12.0665 50.1436 10.5004 51.5421 10.2207" stroke="#292828" stroke-width="2" stroke-linecap="round"/>
<path d="M53.3047 12.7669C55.4353 12.6147 57.5794 12.9409 59.7258 12.9628C61.1273 12.9771 62.4799 13.3286 63.8832 13.3546C65.8437 13.3909 67.9908 13.3596 69.9234 13.6702C71.4687 13.9185 72.8825 14.4623 74.4726 14.5191C76.1313 14.5783 77.4466 14.6857 78.9891 15.3027C81.094 16.1446 83.6628 15.3105 85.6279 16.293" stroke="#292828" stroke-width="2" stroke-linecap="round"/>
<path d="M51.9336 25.1093C52.9775 25.029 53.9281 24.7176 54.9918 24.7176C56.5841 24.7176 58.1773 24.7027 59.7695 24.7176C63.4612 24.7521 66.9559 25.0238 70.5548 25.795C73.2422 26.3709 76.0356 26.589 78.7608 26.8615C79.3962 26.9251 81.624 26.5042 81.906 27.0683" stroke="#292828" stroke-width="2" stroke-linecap="round"/>
<path d="M1 95.6309C1.56719 95.7569 1.98904 98.0435 2.17539 98.5258C2.43328 99.1933 2.86138 99.8151 3.35078 100.332C3.9445 100.96 4.39088 102.041 5.11386 102.487C5.69063 102.844 6.00169 103.468 6.52869 103.859C7.10066 104.282 7.69454 104.65 8.29177 105.034C9.64894 105.906 11.3744 106.97 12.9498 107.276C15.1694 107.708 17.3701 108.72 19.5342 109.442C21.7202 110.17 24.0373 110.421 26.26 111.009C27.7662 111.408 29.326 111.805 30.7765 112.369C32.1084 112.887 33.1372 113.67 34.4551 114.285C38.1531 116.01 40.3749 119.682 43.5099 122.121C45.4936 123.663 47.7272 124.149 49.9746 125.212C51.4741 125.921 53.1277 126.363 54.7197 126.822C56.4516 127.322 58.0429 127.981 59.8566 128.15C61.318 128.286 62.7011 128.797 64.1663 128.934C65.6383 129.07 66.9309 129.006 68.3999 128.944C71.4009 128.819 74.4916 128.783 77.3895 127.845C79.5239 127.155 81.6592 126.268 83.7779 125.505C84.6481 125.192 85.9175 124.033 86.8035 124.624" stroke="#292828" stroke-width="2" stroke-linecap="round"/>
<path d="M106.332 9.22461C106.594 10.6227 107.337 12.0136 107.819 13.356C108.224 14.4839 108.582 15.6282 108.988 16.7555C109.232 17.4335 109.694 18.203 109.472 18.951C109.336 19.4088 109.32 19.4497 109.519 19.8481" stroke="#292828" stroke-width="2" stroke-linecap="round"/>
<path d="M114.193 20.9105C113.678 20.8462 115.026 18.7305 115.149 18.4553C115.821 16.9557 116.339 15.2444 116.695 13.6393C117.042 12.0766 117.546 10.5691 118.442 9.22461" stroke="#292828" stroke-width="2" stroke-linecap="round"/>
<path d="M120.567 22.8219C119.581 22.8219 120.999 21.1009 121.252 20.7444C121.74 20.0569 122.31 19.3338 122.952 18.785C123.668 18.1729 124.652 17.8641 125.313 17.2033C126.025 16.4913 126.404 15.5542 126.942 14.748" stroke="#292828" stroke-width="2" stroke-linecap="round"/>
<path d="M30.9043 20.2725C31.2417 21.1723 33.8377 19.3852 34.1976 18.9977C34.882 18.2606 35.4166 17.5418 36.0036 16.7077C37.127 15.1113 38.8497 13.994 39.9461 12.3993C40.9965 10.8713 41.9372 9.06697 43.6525 8.16165C44.5641 7.68053 44.8411 6.93491 45.5766 6.27302C46.3023 5.61988 47.3353 5.55095 48.2207 5.28149C50.0501 4.72471 51.8941 4.29159 53.8039 3.95945C54.836 3.77996 55.93 3.88519 56.9202 3.47549C57.9272 3.0588 58.8606 2.79055 59.9065 2.51937C60.8471 2.27552 63.7466 2 62.7749 2" stroke="#292828" stroke-width="2" stroke-linecap="round"/>
<path d="M19.6441 34.2957C19.2627 33.533 17.5554 36.9473 17.425 37.1523C16.8631 38.0352 16.6695 39.5202 16.6695 40.5518C16.6695 41.2669 15.994 44.6119 16.7167 44.872C18.0128 45.3386 19.6612 45.3442 21.0252 45.3442C21.8591 45.3442 22.6274 45.7048 23.4686 45.7573C24.3314 45.8113 25.118 45.7216 25.9238 46.0878C27.1882 46.6626 29.526 46.1941 30.8932 46.1941C32.5551 46.1941 34.1535 46.1518 35.7919 45.9698C36.8842 45.8484 38.4076 45.6509 39.4039 45.1789C40.6686 44.5798 41.3226 42.736 41.9535 41.5669C42.5293 40.5001 42.5071 39.2383 43.0277 38.132C43.4632 37.2065 43.8657 36.421 43.8657 35.3699C43.8657 34.1389 42.4931 34.2785 41.5168 34.0833C39.4508 33.6701 37.4555 33.3665 35.3669 33.0681C32.9033 32.7162 30.2083 33.0209 27.718 33.0209C26.5679 33.0209 25.4549 33.2127 24.3184 33.2334C23.171 33.2542 22.046 33.0209 20.9189 33.0209C20.1721 33.0209 19.4759 33.4188 18.747 33.4458C18.3918 33.459 17.571 33.2678 18.1568 33.6583" stroke="#292828" stroke-width="2" stroke-linecap="round"/>
<path d="M21.9805 35.9965C21.994 35.6585 22.0271 35.0841 22.3582 34.8633C22.3746 34.8524 22.2143 36.2101 22.2047 36.3388C22.0779 38.0508 21.8373 39.5796 21.5083 41.2611C21.3737 41.9492 21.1745 44.7921 20.4932 45.1328" stroke="#292828" stroke-width="2" stroke-linecap="round"/>
<path d="M25.3799 43.2201C25.4575 42.5988 35.4899 42.5827 36.8533 42.5827C37.6344 42.5827 37.0673 41.0911 36.9595 40.5524C36.7633 39.5713 37.1509 38.2997 37.3255 37.3181C37.4777 36.4619 37.5407 35.6119 37.715 34.8275C37.8386 34.2713 37.8171 33.4881 38.1281 33.0215" stroke="#292828" stroke-width="2" stroke-linecap="round"/>
<path d="M100.17 41.5198C99.3743 40.6244 104.597 40.4493 105.281 40.5755C106.896 40.8729 108.874 41.0456 110.369 41.7323C111.625 42.3096 113.095 42.0212 114.311 42.6294C114.787 42.8672 115.306 43.2227 115.468 43.7507C115.768 44.7245 116.998 45.8571 117.546 46.7844C118.421 48.2658 118.247 50.0296 118.986 51.5059C119.841 53.217 119.785 55.0012 119.552 56.8649C119.322 58.7041 119.717 60.5204 119.717 62.3537C119.717 64.2391 119.573 65.9972 119.34 67.8662C119.093 69.8421 119.13 71.8577 118.75 73.8153C118.348 75.8824 117.679 77.9321 117.168 79.977C116.636 82.1056 116.145 84.0779 115.775 86.2449C115.421 88.3198 115.135 90.4727 114.618 92.5128C113.951 95.144 113.556 103.301 113.556 100.587" stroke="#292828" stroke-width="2" stroke-linecap="round"/>
<path d="M12.8444 51.5057C12.9008 51.0542 13.3703 51.6022 13.529 51.7182C14.3391 52.3102 14.0816 53.1057 13.8005 53.9491C13.3632 55.261 13.0568 56.5498 13.0568 57.927C13.0568 61.7014 13.0605 65.4743 12.8326 69.2352C12.6811 71.7348 12.4533 74.2779 12.6791 76.7897C12.9253 79.5287 12.4194 82.1481 12.4194 84.8754C12.4194 87.2637 12.4194 89.652 12.4194 92.0404C12.4194 92.5664 12.1445 95.837 12.8444 95.4871" stroke="#292828" stroke-width="2" stroke-linecap="round"/>
<path d="M8.3828 17.0859C7.73502 17.1669 9.1616 19.5806 9.2799 19.8481C9.63979 20.6617 10.0593 21.5009 10.6964 22.138C10.7917 22.2333 11.1901 22.3977 10.9325 22.3977" stroke="#292828" stroke-width="2" stroke-linecap="round"/>
<path d="M2.00781 22.8223C2.18551 23.6219 4.55284 24.6902 5.06503 25.0532C5.4259 25.309 8.09143 27.7533 6.64676 26.092C6.3581 25.76 4.90617 24.0832 4.43942 24.2387C3.99396 24.3872 5.24781 25.1196 5.40734 25.1594" stroke="#292828" stroke-width="2" stroke-linecap="round"/>
<path d="M4.1329 20.0605C3.28984 20.0605 4.52079 20.8829 4.71129 21.0167C5.80265 21.7829 7.00815 22.228 7.91016 23.2476C8.57006 23.9936 9.3503 24.1565 8.38231 23.6725" stroke="#292828" stroke-width="2" stroke-linecap="round"/>
<path d="M92.6801 33.5121C92.6049 34.1135 85.9627 33.1977 85.2795 32.9244C82.1795 31.6844 78.66 31.4772 75.3975 30.9219C71.7262 30.297 67.8724 30.1918 64.166 29.9859C63.2898 29.9373 62.1836 29.7315 61.3363 29.4962C60.3963 29.2351 59.4315 29.3691 58.5938 28.8105" stroke="#ECACC4" stroke-width="2" stroke-linecap="round"/>
<path d="M58.7894 29.0064C58.9193 28.8333 56.6475 28.8165 56.2319 28.7126C55.0563 28.4187 53.5319 28.2555 52.3248 28.2228C50.0389 28.161 47.7086 27.4392 45.4248 27.4392C40.517 27.4392 35.6066 27.2433 30.678 27.2433C29.3979 27.2433 28.1883 27.0188 26.9015 27.0474C25.7455 27.0731 24.5863 27.4392 23.4298 27.4392C22.3415 27.4392 21.3078 27.7929 20.241 27.831C19.4412 27.8596 17.8484 27.9389 17.161 28.3208C15.953 28.9919 14.053 29.1178 13.2431 30.3777C12.362 31.7483 10.9902 33.6024 10.9902 35.2752" stroke="#ECACC4" stroke-width="2" stroke-linecap="round"/>
<path d="M11.9707 31.748V31.9439" stroke="#ECACC4" stroke-width="2" stroke-linecap="round"/>
<path d="M10.7949 36.0586C9.86753 36.1166 10.2072 39.7564 10.2072 40.5207C10.2072 40.9084 10.5306 39.4103 10.5555 39.2365C10.6545 38.5433 10.7582 37.8584 10.882 37.1687C10.8846 37.1542 11.0629 36.0028 10.9473 36.581C10.8951 36.8418 10.7985 38.2171 10.599 38.0176" stroke="#ECACC4" stroke-width="2" stroke-linecap="round"/>
<path d="M10.0116 40.9551C9.08718 41.0871 10.2973 46.4434 10.4469 46.8756C10.7485 47.7468 10.4034 48.5005 10.4034 49.3787C10.4034 50.2276 10.4034 51.0765 10.4034 51.9254C10.4034 53.6001 9.78562 55.1086 9.63064 56.7358C9.5529 57.5521 9.36697 58.375 9.18443 59.1736C8.95175 60.1916 9.0552 61.2235 9.03207 62.2645C9.01035 63.2415 8.48866 64.1419 8.44437 65.0941C8.39436 66.1694 8.2205 67.3671 8.00904 68.4244C7.78397 69.5497 7.36549 70.6531 7.27986 71.8091C7.19874 72.9042 7.21769 74.17 6.97513 75.2373C6.49862 77.3339 6.76639 79.6325 6.19154 81.7019C5.01828 85.9256 5.87658 90.5783 6.30037 94.8162C6.69345 98.747 9.76887 100.707 13.1895 102.075C14.028 102.411 14.8106 102.976 15.7035 103.066C16.7828 103.174 17.8618 103.272 18.9249 103.436C19.9779 103.598 21.096 103.361 22.1573 103.458C23.0807 103.541 23.983 103.747 24.8998 103.849C27.4169 104.129 30.1642 104.426 32.5399 104.426" stroke="#ECACC4" stroke-width="2" stroke-linecap="round"/>
<path d="M39.1996 51.5347C38.2852 51.5347 37.7601 52.7783 37.1971 53.3413C36.4864 54.052 35.5706 54.5099 35.0857 55.4527C34.4098 56.7669 33.4328 57.8524 32.735 59.1747C32.3465 59.9107 31.8751 60.4973 31.5596 61.2861C31.2248 62.123 31.1247 62.9996 30.776 63.8328C30.2168 65.1686 29.2196 66.358 28.8605 67.7943C28.4997 69.2378 28.5432 70.8305 28.1858 72.2999C27.8345 73.744 27.6416 75.4658 27.6416 76.9579C27.6416 78.3187 27.3734 79.9931 27.7396 81.3112C28.1251 82.6993 27.8843 84.3772 28.0443 85.8169C28.208 87.2899 28.7682 88.5739 29.2959 89.9308C29.8127 91.2597 29.8092 92.6767 30.493 93.9467C31.2547 95.3612 31.7555 96.3083 31.7555 97.9626C31.7555 98.7796 31.8506 99.5892 32.1473 100.357C32.3875 100.979 32.854 101.437 33.0832 102.033C33.44 102.961 33.9816 104.168 34.6504 104.863C35.7213 105.975 36.4277 107.287 37.676 108.258C38.4309 108.845 39.3355 109.069 40.0267 109.76C40.5149 110.248 40.629 110.843 41.0606 111.371C41.922 112.423 43.3123 112.88 44.195 113.83C45.1494 114.858 46.3881 115.296 47.5253 116.083C49.4143 117.391 51.5769 118.502 53.6852 119.424C56.211 120.529 58.8351 120.398 61.532 120.698C63.0313 120.864 64.3672 121.47 65.9397 121.47C67.4598 121.47 68.9798 121.47 70.4998 121.47C74.0093 121.47 77.1009 120.444 80.4906 119.751C83.6392 119.107 86.1756 117.607 88.7728 115.789C91.178 114.106 93.9747 113.543 95.9122 111.175C97.6135 109.095 99.0493 106.948 100.516 104.667C101.252 103.521 102.264 102.498 102.867 101.293C103.471 100.084 103.915 98.6384 104.63 97.5273C105.209 96.6256 105.418 95.5804 105.761 94.5888C106.107 93.5914 106.848 92.5671 107.372 91.6503C107.649 91.1656 107.744 90.5232 107.764 89.9743C107.791 89.2178 108.244 88.3679 108.548 87.6888C109.03 86.6113 108.983 85.0747 108.939 83.9014C108.889 82.5517 108.604 81.3897 108.983 80.027C109.453 78.3348 109.785 76.9701 109.538 75.2384C109.252 73.2339 109.04 71.3219 108.548 69.3506C108.067 67.4276 105.986 67.3423 105.239 65.6611C105 65.1242 104.831 64.5377 104.63 63.9851C104.439 63.4614 103.883 63.1487 103.694 62.6574C102.801 60.3366 103.181 58.2054 101.256 56.2798C100.394 55.4176 99.2435 54.442 98.5568 53.4501C98.2354 52.9859 97.9893 52.2594 97.5338 51.9265C96.7636 51.3637 96.0125 50.7535 95.3354 50.0763C94.8367 49.5776 94.4465 48.9915 93.9423 48.4874C93.0725 47.6176 91.6168 47.3014 90.6229 46.5284C88.7584 45.0783 86.6241 43.7736 84.463 42.8281C83.5623 42.434 82.6945 41.6737 81.7095 41.533C80.5255 41.3638 79.0809 40.7428 77.9766 40.2597C76.6945 39.6987 74.8197 39.7623 73.7648 38.8993C72.9973 38.2713 70.8478 38.4788 69.9121 38.6489C68.3806 38.9274 66.9808 38.5388 65.45 38.6054C64.7866 38.6342 64.0977 38.9077 63.4475 39.0407C62.6335 39.2072 61.7816 39.1073 60.9879 39.3455C59.4939 39.7936 57.9526 39.9357 56.4387 40.325C54.356 40.8605 52.4941 42.0902 50.4746 42.8172C47.7376 43.8026 45.9099 46.7283 43.2264 47.8017C41.8577 48.3492 40.7152 49.6273 39.7002 50.6423C38.4858 51.8567 36.8829 52.4377 36.6529 54.2773" stroke="#ECACC4" stroke-width="2" stroke-linecap="round"/>
<path d="M71.1324 54.8655C70.5951 54.7678 70.3141 54.2778 69.7502 54.2778C68.9376 54.2778 68.125 54.2778 67.3124 54.2778C65.7003 54.2778 63.6594 54.2438 62.132 54.7784C61.4751 55.0083 61.0446 55.5019 60.358 55.6926C59.5818 55.9082 58.7873 56.4835 58.2031 57.0204C57.5587 57.6125 56.6929 57.7818 56.0482 58.3916C55.2367 59.1593 54.2795 59.5324 53.3492 60.1112C52.5703 60.5958 52.3158 61.5352 51.7276 62.2117C50.9999 63.0485 50.3327 63.5637 49.7795 64.5516C48.9372 66.0556 48.0891 67.5052 47.3416 69.0681C45.6614 72.5814 44.4902 75.9959 44.4902 79.9296C44.4902 83.2942 44.5728 86.6871 45.2303 89.9748C45.6076 91.8615 45.6889 93.3379 46.6886 95.0682C47.4956 96.4648 48.8138 97.8082 50.1278 98.7467C51.3389 99.6118 52.0392 101.12 53.4036 101.772C54.9396 102.507 56.6267 102.944 58.2031 103.557C59.5437 104.078 60.9694 104.82 62.4367 104.82C64.2296 104.82 66.0556 105.207 67.8021 104.722C71.3123 103.747 75.21 104.242 78.5765 102.621C80.7657 101.567 83.0183 100.762 85.1391 99.5303C86.7421 98.5995 87.8245 97.2292 88.97 95.7973C90.6977 93.6378 92.6474 90.9022 93.3124 88.1682C93.666 86.7146 93.203 85.2424 93.8566 83.8584C94.3172 82.883 94.2489 80.7942 94.009 79.7446C93.6937 78.3653 93.826 76.855 93.6498 75.4457C93.4899 74.1662 92.5643 72.6543 91.9956 71.5168C91.162 69.8497 91.1093 68.2145 89.438 67.0112C88.4582 66.3057 87.7049 65.7547 87.109 64.6713C86.676 63.884 86.0924 63.1088 85.4221 62.5055C84.1758 61.3839 82.7979 59.8521 81.3627 59.0229C79.9594 58.2121 78.6328 57.1657 77.2053 56.4327C74.2585 54.9194 70.0735 53.162 67.0185 55.4532" stroke="#ECACC4" stroke-width="2" stroke-linecap="round"/>
<path d="M52.1298 114.025C50.749 114.025 52.4251 114.601 52.9569 114.613C54.5741 114.649 56.0458 115.312 57.6149 115.397C59.3923 115.493 61.1663 115.928 62.9477 115.984C65.0145 116.05 67.2365 116.03 69.2817 116.333C71.0138 116.589 72.9099 116.376 74.6581 116.376C76.6416 116.376 78.482 116.144 80.3827 115.593C81.2714 115.335 82.3011 115.152 83.0708 114.613C83.7346 114.148 84.4702 113.707 85.2366 113.438C86.8613 112.866 88.6306 111.77 89.9817 110.695C91.2514 109.685 91.9991 108.337 93.0725 107.169C94.096 106.055 95.269 104.792 95.9675 103.447C96.4065 102.601 97.1215 102.226 97.6544 101.488C98.0606 100.925 98.2906 100.205 98.5577 99.5724C99.0833 98.3275 99.6778 96.8162 100.364 95.6545C100.991 94.5937 101.615 93.2918 101.931 92.0848C102.268 90.8001 103.129 89.4757 103.248 88.1668C103.332 87.2449 103.345 86.3454 103.499 85.4242C103.741 83.9701 104.043 82.5506 104.043 81.0709C104.043 79.4412 103.671 78.3326 104.435 76.8047" stroke="#ECACC4" stroke-width="2" stroke-linecap="round"/>
<path d="M98.1664 110.108C98.6776 110.108 98.8958 109.971 99.3418 109.759C99.7803 109.552 100.663 109.7 101.116 109.727C102.649 109.817 103.865 110.5 105.415 110.5C108.119 110.5 110.969 110.868 113.599 109.912C114.729 109.501 115.926 109.449 116.287 108.149C116.568 107.136 116.663 105.983 117.081 105.025C117.53 103.999 117.64 102.956 117.909 101.88C118.301 100.311 119.009 98.7742 119.28 97.1785C119.513 95.8031 119.214 94.3543 119.334 92.9666C119.461 91.5062 120.047 89.9329 120.303 88.461C120.537 87.1169 121.459 85.4962 122.066 84.2492C122.695 82.9567 122.85 81.7471 122.85 80.3312C122.85 77.8467 122.223 74.8907 123.154 72.4953C124.12 70.0123 124.417 67.8546 124.417 65.16C124.417 62.617 125.063 60.1387 125.004 57.5635C124.977 56.3578 125.004 55.1784 125.004 53.9829C125.004 53.0162 125.074 52.0715 124.809 51.1424C124.55 50.2382 124.613 49.3426 124.613 48.3998C124.613 47.4493 124.038 46.3123 123.59 45.4613C122.923 44.1941 121.505 42.8057 120.303 42.0331C118.435 40.832 116.385 40.1721 114.426 39.1926C112.078 38.0187 109.723 37.0205 107.156 36.45C105.385 36.0565 103.492 35.6551 101.693 35.427C100.128 35.2286 98.7127 34.3292 97.1434 34.2951C95.6951 34.2636 94.3001 33.9296 92.8771 33.9033C91.7057 33.8816 90.6201 33.4008 89.5469 33.7074" stroke="#ECACC4" stroke-width="2" stroke-linecap="round"/>
<path d="M96.5986 33.1189C98.2285 32.9559 99.1112 30.983 100.212 30.0824C101.394 29.1155 103.409 27.9417 104.979 27.8296C106.718 27.7054 108.174 27.8777 109.92 28.0364C111.066 28.1406 112.095 28.5828 113.25 28.6132C114.337 28.6418 115.52 28.9653 116.58 29.2009C119.306 29.8065 121.996 30.7332 122.468 33.8045C122.689 35.2372 122.285 36.8807 121.674 38.2122C121.208 39.2264 120.875 40.3424 120.705 41.4445C120.631 41.926 120.92 42.7475 120.302 42.1302" stroke="#ECACC4" stroke-width="2" stroke-linecap="round"/>
<path d="M105.609 30.377C105.906 30.4099 106.02 30.6968 106.295 30.7579C106.777 30.8649 107.277 30.9269 107.764 31.0082C109.277 31.2602 110.734 31.6632 112.226 31.9877C112.822 32.1172 118.013 33.3866 117.755 33.9031" stroke="#ECACC4" stroke-width="2" stroke-linecap="round"/>
<path d="M106.785 27.4381C106.645 27.9998 106.339 27.1365 106.437 26.8069C106.682 25.9791 106.961 25.3535 107.667 24.8043C108.151 24.4278 108.861 24.4996 109.43 24.4996C110.417 24.4996 111.897 24.5159 112.814 24.8914C115.147 25.8455 117.714 26.578 120.182 27.3293C121.677 27.7841 120.694 28.6557 120.694 29.7889" stroke="#ECACC4" stroke-width="2" stroke-linecap="round"/>
<path d="M15.3006 28.2224C14.8227 28.2523 14.1171 28.3956 14.3646 27.5912C14.607 26.8035 14.6008 25.8302 14.9523 25.088C15.4025 24.1377 16.2459 23.9543 17.2161 23.7603C18.9785 23.4078 20.9101 23.5209 22.7012 23.5209C26.3012 23.5209 29.8601 23.325 33.4756 23.325C34.2907 23.325 35.7295 23.1954 35.674 24.3045C35.648 24.8259 34.2542 26.6552 35.2822 26.6552" stroke="#ECACC4" stroke-width="2" stroke-linecap="round"/>
<path d="M35.6738 24.5003C37.0566 24.362 38.624 22.7125 39.3741 21.6707C40.1282 20.6233 40.7939 19.5018 41.4637 18.4057C41.9121 17.6719 42.1401 16.8431 42.5738 16.1202C43.035 15.3516 43.734 14.7199 44.0975 13.8783C44.4567 13.0464 44.9096 12.1376 45.4687 11.4186C46.1604 10.5294 47.1125 10.2613 47.9719 9.61203C49.3219 8.592 50.9089 8.37669 52.5973 8.25163C54.8481 8.0849 57.1134 7.84895 59.3775 7.84895C64.1589 7.84895 68.9376 7.49419 73.6781 8.28428C74.4506 8.41302 75.2492 8.372 76.0071 8.55636C76.766 8.74095 77.7289 8.78737 78.4232 9.15493C78.8271 9.36876 79.1194 9.72556 79.555 9.89499C80.7152 10.3462 81.8529 10.3427 82.7874 11.2772C83.6627 12.1525 84.987 11.9977 85.8238 12.7464C86.4804 13.3339 87.119 14.4479 87.3475 15.2931C87.7636 16.833 87.8628 18.4248 88.1746 19.9838C88.5398 21.81 88.1917 23.4026 89.0344 25.088C89.9925 27.0043 89.3284 31.0884 91.8966 31.9444" stroke="#ECACC4" stroke-width="2" stroke-linecap="round"/>
<path d="M36.8497 26.6557C36.6172 27.0276 37.6731 26.6733 37.7857 26.6121C38.399 26.2788 39.0362 25.9273 39.5814 25.4911C40.526 24.7355 41.6381 24.2267 42.6179 23.5213C43.3794 22.973 43.94 21.992 44.2939 21.127C44.6349 20.2934 45.3014 19.4693 45.5128 18.6238C45.8006 17.4728 45.7439 16.3835 46.3508 15.3044C46.8949 14.3371 47.2671 13.377 47.7221 12.366C48.3069 11.0665 50.1436 9.5004 51.5421 9.2207" stroke="#ECACC4" stroke-width="2" stroke-linecap="round"/>
<path d="M53.3047 11.7669C55.4353 11.6147 57.5794 11.9409 59.7258 11.9628C61.1273 11.9771 62.4799 12.3286 63.8832 12.3546C65.8437 12.3909 67.9908 12.3596 69.9234 12.6702C71.4687 12.9185 72.8825 13.4623 74.4726 13.5191C76.1313 13.5783 77.4466 13.6857 78.9891 14.3027C81.094 15.1446 83.6628 14.3105 85.6279 15.293" stroke="#ECACC4" stroke-width="2" stroke-linecap="round"/>
<path d="M51.9336 24.1093C52.9775 24.029 53.9281 23.7176 54.9918 23.7176C56.5841 23.7176 58.1773 23.7027 59.7695 23.7176C63.4612 23.7521 66.9559 24.0238 70.5548 24.795C73.2422 25.3709 76.0356 25.589 78.7608 25.8615C79.3962 25.9251 81.624 25.5042 81.906 26.0683" stroke="#ECACC4" stroke-width="2" stroke-linecap="round"/>
<path d="M1 94.6309C1.56719 94.7569 1.98904 97.0435 2.17539 97.5258C2.43328 98.1933 2.86138 98.8151 3.35078 99.3324C3.9445 99.9601 4.39088 101.041 5.11386 101.487C5.69063 101.844 6.00169 102.468 6.52869 102.859C7.10066 103.282 7.69454 103.65 8.29177 104.034C9.64894 104.906 11.3744 105.97 12.9498 106.276C15.1694 106.708 17.3701 107.72 19.5342 108.442C21.7202 109.17 24.0373 109.421 26.26 110.009C27.7662 110.408 29.326 110.805 30.7765 111.369C32.1084 111.887 33.1372 112.67 34.4551 113.285C38.1531 115.01 40.3749 118.682 43.5099 121.121C45.4936 122.663 47.7272 123.149 49.9746 124.212C51.4741 124.921 53.1277 125.363 54.7197 125.822C56.4516 126.322 58.0429 126.981 59.8566 127.15C61.318 127.286 62.7011 127.797 64.1663 127.934C65.6383 128.07 66.9309 128.006 68.3999 127.944C71.4009 127.819 74.4916 127.783 77.3895 126.845C79.5239 126.155 81.6592 125.268 83.7779 124.505C84.6481 124.192 85.9175 123.033 86.8035 123.624" stroke="#ECACC4" stroke-width="2" stroke-linecap="round"/>
<path d="M106.332 8.22461C106.594 9.62271 107.337 11.0136 107.819 12.356C108.224 13.4839 108.582 14.6282 108.988 15.7555C109.232 16.4335 109.694 17.203 109.472 17.951C109.336 18.4088 109.32 18.4497 109.519 18.8481" stroke="#ECACC4" stroke-width="2" stroke-linecap="round"/>
<path d="M114.193 19.9105C113.678 19.8462 115.026 17.7305 115.149 17.4553C115.821 15.9557 116.339 14.2444 116.695 12.6393C117.042 11.0766 117.546 9.56908 118.442 8.22461" stroke="#ECACC4" stroke-width="2" stroke-linecap="round"/>
<path d="M120.567 21.8219C119.581 21.8219 120.999 20.1009 121.252 19.7444C121.74 19.0569 122.31 18.3338 122.952 17.785C123.668 17.1729 124.652 16.8641 125.313 16.2033C126.025 15.4913 126.404 14.5542 126.942 13.748" stroke="#ECACC4" stroke-width="2" stroke-linecap="round"/>
<path d="M30.9043 19.2725C31.2417 20.1723 33.8377 18.3852 34.1976 17.9977C34.882 17.2606 35.4166 16.5418 36.0036 15.7077C37.127 14.1113 38.8497 12.994 39.9461 11.3993C40.9965 9.87134 41.9372 8.06697 43.6525 7.16165C44.5641 6.68053 44.8411 5.93491 45.5766 5.27302C46.3023 4.61988 47.3353 4.55095 48.2207 4.28149C50.0501 3.72471 51.8941 3.29159 53.8039 2.95945C54.836 2.77996 55.93 2.88519 56.9202 2.47549C57.9272 2.0588 58.8606 1.79055 59.9065 1.51937C60.8471 1.27552 63.7466 1 62.7749 1" stroke="#ECACC4" stroke-width="2" stroke-linecap="round"/>
<path d="M19.6441 33.2957C19.2627 32.533 17.5554 35.9473 17.425 36.1523C16.8631 37.0352 16.6695 38.5202 16.6695 39.5518C16.6695 40.2669 15.994 43.6119 16.7167 43.872C18.0128 44.3386 19.6612 44.3442 21.0252 44.3442C21.8591 44.3442 22.6274 44.7048 23.4686 44.7573C24.3314 44.8113 25.118 44.7216 25.9238 45.0878C27.1882 45.6626 29.526 45.1941 30.8932 45.1941C32.5551 45.1941 34.1535 45.1518 35.7919 44.9698C36.8842 44.8484 38.4076 44.6509 39.4039 44.1789C40.6686 43.5798 41.3226 41.736 41.9535 40.5669C42.5293 39.5001 42.5071 38.2383 43.0277 37.132C43.4632 36.2065 43.8657 35.421 43.8657 34.3699C43.8657 33.1389 42.4931 33.2785 41.5168 33.0833C39.4508 32.6701 37.4555 32.3665 35.3669 32.0681C32.9033 31.7162 30.2083 32.0209 27.718 32.0209C26.5679 32.0209 25.4549 32.2127 24.3184 32.2334C23.171 32.2542 22.046 32.0209 20.9189 32.0209C20.1721 32.0209 19.4759 32.4188 18.747 32.4458C18.3918 32.459 17.571 32.2678 18.1568 32.6583" stroke="#ECACC4" stroke-width="2" stroke-linecap="round"/>
<path d="M21.9805 34.9965C21.994 34.6585 22.0271 34.0841 22.3582 33.8633C22.3746 33.8524 22.2143 35.2101 22.2047 35.3388C22.0779 37.0508 21.8373 38.5796 21.5083 40.2611C21.3737 40.9492 21.1745 43.7921 20.4932 44.1328" stroke="#ECACC4" stroke-width="2" stroke-linecap="round"/>
<path d="M25.3799 42.2201C25.4575 41.5988 35.4899 41.5827 36.8533 41.5827C37.6344 41.5827 37.0673 40.0911 36.9595 39.5524C36.7633 38.5713 37.1509 37.2997 37.3255 36.3181C37.4777 35.4619 37.5407 34.6119 37.715 33.8275C37.8386 33.2713 37.8171 32.4881 38.1281 32.0215" stroke="#ECACC4" stroke-width="2" stroke-linecap="round"/>
<path d="M100.17 40.5198C99.3743 39.6244 104.597 39.4493 105.281 39.5755C106.896 39.8729 108.874 40.0456 110.369 40.7323C111.625 41.3096 113.095 41.0212 114.311 41.6294C114.787 41.8672 115.306 42.2227 115.468 42.7507C115.768 43.7245 116.998 44.8571 117.546 45.7844C118.421 47.2658 118.247 49.0296 118.986 50.5059C119.841 52.217 119.785 54.0012 119.552 55.8649C119.322 57.7041 119.717 59.5204 119.717 61.3537C119.717 63.2391 119.573 64.9972 119.34 66.8662C119.093 68.8421 119.13 70.8577 118.75 72.8153C118.348 74.8824 117.679 76.9321 117.168 78.977C116.636 81.1056 116.145 83.0779 115.775 85.2449C115.421 87.3198 115.135 89.4727 114.618 91.5128C113.951 94.144 113.556 102.301 113.556 99.5867" stroke="#ECACC4" stroke-width="2" stroke-linecap="round"/>
<path d="M12.8444 50.5057C12.9008 50.0542 13.3703 50.6022 13.529 50.7182C14.3391 51.3102 14.0816 52.1057 13.8005 52.9491C13.3632 54.261 13.0568 55.5498 13.0568 56.927C13.0568 60.7014 13.0605 64.4743 12.8326 68.2352C12.6811 70.7348 12.4533 73.2779 12.6791 75.7897C12.9253 78.5287 12.4194 81.1481 12.4194 83.8754C12.4194 86.2637 12.4194 88.652 12.4194 91.0404C12.4194 91.5664 12.1445 94.837 12.8444 94.4871" stroke="#ECACC4" stroke-width="2" stroke-linecap="round"/>
<path d="M8.3828 16.0859C7.73502 16.1669 9.1616 18.5806 9.2799 18.8481C9.63979 19.6617 10.0593 20.5009 10.6964 21.138C10.7917 21.2333 11.1901 21.3977 10.9325 21.3977" stroke="#ECACC4" stroke-width="2" stroke-linecap="round"/>
<path d="M2.00781 21.8223C2.18551 22.6219 4.55284 23.6902 5.06503 24.0532C5.4259 24.309 8.09143 26.7533 6.64676 25.092C6.3581 24.76 4.90617 23.0832 4.43942 23.2387C3.99396 23.3872 5.24781 24.1196 5.40734 24.1594" stroke="#ECACC4" stroke-width="2" stroke-linecap="round"/>
<path d="M4.1329 19.0605C3.28984 19.0605 4.52079 19.8829 4.71129 20.0167C5.80265 20.7829 7.00815 21.228 7.91016 22.2476C8.57006 22.9936 9.3503 23.1565 8.38231 22.6725" stroke="#ECACC4" stroke-width="2" stroke-linecap="round"/>
</svg>
