<svg preserveAspectRatio="xMidYMid meet" viewBox="0 0 118 162" fill="none" xmlns="http://www.w3.org/2000/svg">
<path d="M15.4962 74.7129C14.3419 75.9033 13.3535 77.2465 12.1738 78.4263C11.1802 79.4198 10.8636 81.0431 10.5668 82.3785C10.2401 83.8487 9.63304 85.1791 9.63304 86.7325C9.63304 88.4765 9.24444 89.9193 8.85128 91.6076C7.85732 95.8758 8.14461 100.328 7.72207 104.659C7.31894 108.791 7.97887 113.112 8.61241 117.167C8.931 119.206 9.70135 121.065 10.1216 123.073C10.6234 125.471 11.6042 127.648 12.9555 129.675C15.3967 133.337 18.7263 136.618 22.5755 138.817C24.1903 139.74 25.4909 140.545 27.3095 141.054C28.5176 141.392 29.6699 142.014 30.8926 142.292C32.288 142.609 33.5917 142.921 35.0402 142.921C36.0067 142.921 38.862 143.399 39.5354 142.726" stroke="#292828" stroke-width="2" stroke-linecap="round"/>
<path d="M14.1279 75.2993C14.1629 75.8584 14.4591 75.5592 14.7142 75.2558C15.3997 74.4408 16.0772 73.8687 17.0161 73.3449C18.2625 72.6495 19.6329 71.9417 20.9683 71.4339C21.869 71.0914 23.1434 70.0725 24.0954 70.0224C25.3513 69.9563 26.5931 69.6802 27.8087 69.3383C29.4458 68.8779 31.3846 68.6543 33.0856 68.6543C34.7791 68.6543 36.3441 69.2246 37.9716 69.6315C39.168 69.9306 40.0344 70.3262 40.9032 71.195C41.6039 71.8957 42.5256 72.1268 43.2485 72.7694C45.0346 74.357 47.4738 75.1504 48.6231 77.4491C49.7942 79.7912 51.6577 81.864 52.673 84.2461C53.1287 85.3151 53.0561 86.563 53.6502 87.5685C54.2326 88.5541 54.836 89.6397 55.5504 90.5327C56.3409 91.5209 56.8272 92.6988 57.5048 93.7575C57.8471 94.2924 58.7371 95.2341 57.7111 95.2341" stroke="#292828" stroke-width="2" stroke-linecap="round"/>
<path d="M58.4931 94.8423C58.4418 94.6884 57.0918 96.0339 56.9296 96.2321C56.1494 97.1857 55.5114 98.1064 54.6278 98.99C53.1965 100.421 52.4478 102.364 50.9578 103.735C49.9153 104.694 49.5647 105.543 48.8731 106.721C48.0822 108.068 46.7478 108.999 45.833 110.239C45.0423 111.31 44.4165 112.42 43.8243 113.605C43.1884 114.876 42.1056 115.875 41.3053 117.036C40.617 118.034 40.3774 119.249 39.7743 120.293C39.2994 121.115 38.928 122.09 38.656 122.997C37.9818 125.244 37.5811 127.26 37.5811 129.631C37.5811 130.926 38.1064 131.831 38.4605 133.051C38.8391 134.355 39.1322 135.638 39.4486 136.949C39.5913 137.54 40.8031 141.016 40.5127 141.162" stroke="#292828" stroke-width="2" stroke-linecap="round"/>
<path d="M57.7109 95.6242C58.0383 93.8235 60.5316 91.9624 61.6632 90.6296C62.3172 89.8594 63.1872 89.4332 64.0627 88.9793C65.098 88.4425 66.0884 87.7425 67.1789 87.3289C68.8793 86.6839 70.6534 86.3239 72.3689 85.6568C74.1765 84.9538 75.9408 84.7276 77.8413 84.4407C79.6706 84.1646 81.4489 83.9728 83.3136 84.1367C85.017 84.2864 86.4423 84.5251 87.9933 85.255C89.016 85.7363 90.1689 86.3014 91.3049 86.4277C92.1888 86.5259 92.9512 86.8294 93.9542 86.8294C95.0003 86.8294 98.6103 86.9867 98.9488 88.0021" stroke="#292828" stroke-width="2" stroke-linecap="round"/>
<path d="M101.881 84.875C101.104 84.9527 101.098 85.9474 100.817 86.5254C100.115 87.9682 99.9051 89.0381 99.6874 90.5862C99.5808 91.3446 98.7714 94.2561 100.317 94.2561C103.054 94.2561 103.8 91.1879 104.769 89.1747C105.047 88.5979 106.458 85.8522 105.203 85.8522" stroke="#292828" stroke-width="2" stroke-linecap="round"/>
<path d="M104.813 92.4961C105.379 94.0828 106.809 94.5659 108.026 95.3408C108.779 95.8198 109.188 96.7808 109.905 97.2735C111.142 98.1243 113.094 99.8718 113.217 101.53C113.331 103.081 114.642 104.828 115.573 105.992C117.684 108.632 116.229 112.012 115.258 114.787C114.377 117.303 113.965 120.181 112.826 122.594C111.537 125.322 109.744 127.989 108.124 130.52C107.19 131.98 105.848 133.003 104.813 134.364C103.934 135.519 103.645 137.074 102.467 137.99C100.174 139.774 98.5995 142.566 96.6041 144.679C95.7392 145.594 95.1037 146.682 94.2588 147.621C93.2225 148.773 92.2036 150.035 91.1101 151.128C88.9349 153.303 86.6134 155.124 83.9005 156.557C77.3107 160.038 69.8945 160.296 62.6084 159.912C60.7002 159.812 58.775 159.089 56.8864 158.794C55.1341 158.52 53.9786 157.959 52.4347 157.187C50.3925 156.166 48.9435 154.284 46.8538 153.365C44.573 152.361 43.6749 149.096 42.6192 147.024C42.1981 146.197 41.5964 145.46 41.0992 144.679C40.583 143.868 40.5915 143.025 40.3174 142.138C39.806 140.483 40.1896 139.259 40.5128 137.643" stroke="#292828" stroke-width="2" stroke-linecap="round"/>
<path d="M16.6687 72.5625C14.6402 72.5625 12.4751 73.3098 10.5123 73.746C8.97762 74.087 7.84292 75.5236 6.85322 76.6233C4.43862 79.3062 3.48948 82.7471 2.79241 86.2324C2.59881 87.2005 2.42993 88.1809 2.40153 89.1749C2.37075 90.2523 1.66944 91.2527 1.61977 92.3454C1.55173 93.8423 1.22889 95.2687 1.22889 96.7971C1.22889 101.216 0.623992 105.778 1.3809 110.13C1.63764 111.607 1.62203 113.183 1.81521 114.68C2.04709 116.477 2.29931 118.245 2.41239 120.054C2.59913 123.042 3.41079 126.327 4.55137 129.088C5.39567 131.132 6.13831 133.676 7.39611 135.505C8.33652 136.873 9.6401 137.969 10.61 139.316C11.1 139.997 11.578 140.74 12.1735 141.336C12.6349 141.797 13.2533 142.046 13.7262 142.519C15.7767 144.57 18.6786 145.889 21.5112 146.482C22.2612 146.639 22.9418 146.634 23.7154 146.634C24.4904 146.634 25.2762 146.597 26.0498 146.645C26.7557 146.689 27.3933 147.025 28.1019 147.025C30.6437 147.025 33.2337 147.025 35.8218 147.025C37.0596 147.025 38.2973 147.025 39.5351 147.025C39.8622 147.025 40.3925 147.122 40.7078 146.982C40.8206 146.932 41.3578 146.571 41.0987 146.83" stroke="#292828" stroke-width="2" stroke-linecap="round"/>
<path d="M91.7025 93.3164C90.9955 93.7515 92.8792 93.6 93.1835 93.6C94.7784 93.6 96.468 93.4294 98.0518 93.6158C98.6661 93.688 98.807 94.3132 99.2334 94.435C99.7598 94.5854 98.43 94.4508 98.2251 94.4508" stroke="#292828" stroke-width="2" stroke-linecap="round"/>
<path d="M88.0152 90.4793C86.8935 90.417 87.2324 89.6228 86.5343 89.408C85.4871 89.0858 84.2299 90.7802 83.7771 91.4876C81.4227 95.1664 84.8461 96.4347 88.0152 96.4347C91.0354 96.4347 91.4587 92.8288 90.5675 90.6999C89.9041 89.1149 88.0021 88.2732 86.3452 88.9511C85.0502 89.4808 85.1793 91.6062 85.1793 92.748" stroke="#292828" stroke-width="2" stroke-linecap="round"/>
<path d="M80.6425 93.3158C80.5548 92.6141 75.2517 94.4143 74.561 94.6077C73.5066 94.903 72.518 95.7779 71.5518 96.3093C70.2648 97.0171 69.0702 97.7033 67.8809 98.5622C65.5244 100.264 62.829 101.487 60.7754 103.541C59.5027 104.813 58.102 105.962 56.8367 107.227C55.6999 108.364 55.2316 109.943 54.2528 111.166C52.3218 113.58 50.7739 115.941 49.227 118.618C47.7646 121.149 46.796 124.142 45.4773 126.779C43.953 129.828 43.0036 133.193 42.5784 136.548C42.4141 137.844 42.0742 139.084 42.0742 140.392C42.0742 140.676 42.0742 142.307 42.0742 141.243" stroke="#292828" stroke-width="2" stroke-linecap="round"/>
<path d="M48.5957 153.72C48.5957 155.421 48.5957 150.317 48.5957 148.615C48.5957 146.214 49.115 143.892 49.5095 141.525C49.8665 139.383 50.143 137.127 51.022 135.129C52.1396 132.589 53.8922 130.649 55.1183 128.197C56.2439 125.945 57.8188 124.246 59.3721 122.304C60.727 120.611 62.0755 118.648 63.8938 117.436C65.5403 116.338 67.1288 115.303 68.384 113.734C69.193 112.722 70.46 112.288 71.2829 111.465" stroke="#292828" stroke-width="2" stroke-linecap="round"/>
<path d="M79.791 103.241C80.6116 103.15 81.5151 102.459 82.2803 102.169C84.0805 101.488 86.1319 100.907 88.0309 100.578C90.8824 100.085 94.0291 100.405 96.9167 100.405C99.0619 100.405 101.085 100.972 103.266 100.972C104.95 100.972 106.163 101.432 107.803 101.76C109.008 102.001 109.534 102.731 110.261 103.666C110.814 104.377 111.421 104.755 112.246 105.226C112.69 105.479 115.956 106.783 114.673 107.211" stroke="#292828" stroke-width="2" stroke-linecap="round"/>
<path d="M55.1188 135.003C54.3051 134.28 54.5516 138.715 54.5516 139.257C54.5516 139.941 54.1426 142.314 54.8352 142.66" stroke="#292828" stroke-width="2" stroke-linecap="round"/>
<path d="M50.582 143.512C50.8341 145.906 50.9089 149.834 52.8508 151.452" stroke="#292828" stroke-width="2" stroke-linecap="round"/>
<path d="M102.195 52.762C101.869 53.3739 102.137 53.4889 102.179 54.243C102.286 56.159 102.461 58.0907 102.479 60.0093C102.505 62.7634 102.195 65.4665 102.195 68.2177C102.195 71.2474 102.232 74.6936 101.896 77.718C101.754 78.9966 100.831 82.9789 102.053 83.9569C102.844 84.5896 105.061 84.9171 106.024 84.3823C107.795 83.3983 109.79 81.5879 109.852 79.4195C109.959 75.6799 110.581 71.7596 109.915 68.0129C109.547 65.9431 109.844 63.7683 109.427 61.6794C109.051 59.7994 109.285 57.7338 109.285 55.8185C109.285 53.3874 109.942 51.4875 111.27 49.422C112.852 46.9617 115.366 44.6175 116.091 41.7178C116.52 40.0018 116.658 38.671 116.658 36.881C116.658 34.5378 116.657 32.3212 116.091 30.0591C115.584 28.0323 115.344 25.3578 113.822 23.8359C111.701 21.7148 110.717 18.6843 108.718 16.4625C107.634 15.2587 106.57 14.6032 105.315 13.6266C103.634 12.3198 101.732 12.1288 99.9264 11.2003C96.3625 9.36751 90.5584 8.94977 86.5977 9.93995" stroke="#292828" stroke-width="2" stroke-linecap="round"/>
<path d="M34.1333 33.1947C33.8697 32.9311 30.8925 39.9552 30.6672 40.6311C29.8794 42.9944 28.9435 45.5411 27.6107 47.6578C25.7381 50.6321 25.2408 54.2104 24.4912 57.5835C24.1019 59.3353 23.3439 61.5221 24.633 63.0977C27.1169 66.1336 28.5162 62.1116 29.8795 59.9152C33.6822 53.7886 35.9105 46.5883 40.3723 40.8517C42.1814 38.5256 43.9177 36.7838 46.7688 35.747C48.3916 35.1569 50.2736 33.1947 51.9995 33.1947" stroke="#292828" stroke-width="2" stroke-linecap="round"/>
<path d="M49.7305 33.4776C50.9827 31.7558 54.691 31.9385 56.5366 30.752C57.8768 29.8904 59.3506 28.6464 60.5069 27.5222C62.7118 25.3786 65.755 23.3073 68.731 22.4806C72.0757 21.5515 75.3253 20.6534 78.6567 22.134C79.3633 22.4481 80.1421 22.4974 80.8624 22.7642C81.5357 23.0136 81.844 23.6437 82.6112 23.8355C83.8329 24.141 85.0914 25.7328 85.967 26.6084C87.1905 27.832 88.7229 29.4866 89.1495 31.1931C89.5075 32.625 89.6008 34.1384 90.0633 35.5257C91.0633 38.5259 91.0912 42.0267 93.4664 44.317C94.7512 45.556 96.4866 46.2029 97.7832 47.4995C98.5832 48.2995 99.6811 48.5466 100.493 49.3586C100.77 49.6352 101.393 49.8863 101.564 50.2094C101.796 50.6475 101.583 51.2855 101.769 51.7691C102.07 52.5514 101.377 54.7633 101.911 55.0304" stroke="#292828" stroke-width="2" stroke-linecap="round"/>
<path d="M33.85 32.9113C33.85 33.806 33.9418 31.0874 33.6767 30.233C33.2907 28.9894 32.6076 27.702 32.0066 26.5463C31.2704 25.1304 30.7305 24.377 30.7305 22.7178C30.7305 18.518 34.6023 15.7235 37.8202 13.4066C41.3985 10.8303 45.3927 8.57276 49.3056 6.5532C51.778 5.27713 54.7652 5.16433 57.4037 4.39476C61.7216 3.13537 66.1322 2 70.6536 2C72.2281 2 73.2742 2.16353 74.6869 2.56718C76.0994 2.97076 78.7185 3.38711 79.634 4.55231C80.4361 5.57318 81.8758 5.82185 82.848 6.75801C84.1421 8.00418 85.2757 8.51042 86.2511 10.1611C87.1378 11.6617 88.2209 12.9034 89.0082 14.478C89.7432 15.9479 90.0357 17.5332 90.7098 19.0312C91.5087 20.8066 91.8256 22.6649 92.6949 24.4036C93.4541 25.922 94.263 27.3684 94.9636 28.9253C95.6059 30.3527 96.5114 31.5542 97.3741 32.8483C97.9653 33.7351 98.6824 35.7225 99.4223 36.3144C100.474 37.1561 101.393 38.0642 102.337 39.0085C103.068 39.7399 103.728 41.1277 104.747 41.419C106.485 41.9154 109.545 43.3286 110.986 41.356C111.689 40.394 111.73 39.1611 111.412 38.0159C110.977 36.4515 111.522 34.7553 111.128 33.1791C110.775 31.7677 110.884 30.1541 110.136 28.878C109.624 28.0048 109.528 26.9346 108.938 26.1052C108.181 25.0391 107.125 24.1468 106.512 22.9857C104.939 20.0074 102.934 17.8431 99.7846 16.3371C97.8003 15.388 96.194 13.9987 93.908 13.9108C93.2922 13.8871 91.9888 13.8175 91.4187 13.5642C90.481 13.1474 89.4309 13.6263 88.5828 13.3436" stroke="#292828" stroke-width="2" stroke-linecap="round"/>
<path d="M85.4628 24.1191C85.2566 24.1191 85.4628 23.7988 85.4628 23.4889C85.4628 22.7431 85.2443 22.2276 84.8956 21.5668C84.071 20.0045 82.5936 18.8051 81.6343 17.3129C81.2457 16.7085 80.6522 16.3104 80.2321 15.7374C79.7749 15.114 79.7694 14.1719 79.2238 13.6263C78.0891 12.4916 76.9224 11.5109 75.5371 10.6643C74.1813 9.83578 72.9982 9.02872 71.5511 8.3956C70.0539 7.7406 68.3148 8.0001 66.7458 7.60785C64.8509 7.13413 63.0813 7.65171 61.2158 7.93871C59.3101 8.23189 57.1593 8.28335 55.4652 9.37241C54.1063 10.246 52.3946 10.6547 50.8648 11.3575C50.1007 11.7086 49.2928 11.7488 48.5961 12.2713C47.6271 12.998 46.865 13.7828 45.7602 14.3352C43.9885 15.221 43.1421 17.229 41.5063 18.1637C39.3867 19.3749 38.4651 21.2075 37.6778 23.3944C36.0469 27.9246 37.9034 31.3295 42.0735 33.4145C42.7693 33.7624 43.3418 33.4776 44.0586 33.4776C45.0279 33.4776 45.9207 33.8444 46.9103 33.7454C48.4138 33.595 49.7547 32.5242 51.1484 32.0596" stroke="#292828" stroke-width="2" stroke-linecap="round"/>
<path d="M85.4629 22.418C85.4629 23.7526 87.2789 24.7265 87.6686 26.0416C87.8928 26.7983 87.9801 27.2309 88.2988 27.948C88.4116 28.2019 89.163 28.9405 88.866 28.9405" stroke="#292828" stroke-width="2" stroke-linecap="round"/>
<path d="M23.0729 65.5234C23.0778 65.4365 23.2673 64.1423 23.5771 64.4521C23.7764 64.6514 23.1261 66.2161 23.0729 66.4372C22.9072 67.1262 21.3867 70.6281 22.7894 70.6281" stroke="#292828" stroke-width="2" stroke-linecap="round"/>
<path d="M25.909 65.5232C26.1827 64.1547 26.4677 65.7241 26.3186 66.4055C26.009 67.8211 25.5463 69.1966 25.3418 70.6278" stroke="#292828" stroke-width="2" stroke-linecap="round"/>
<path d="M36.4019 124.228C36.3215 125.514 33.5255 123.674 32.857 123.377C31.834 122.922 30.935 121.583 30.6671 120.541C30.2621 118.966 29.4317 117.632 29.0286 116.019C28.6243 114.402 28.0819 112.816 27.6736 111.183C26.8035 107.702 26.7598 103.987 26.7598 100.406C26.7598 98.4398 26.4621 96.1983 27.0434 94.309C27.5209 92.7572 28.2584 91.5751 29.0286 90.1969C30.1644 88.1643 33.3622 85.6319 35.8347 86.7308C38.4655 87.9 39.929 88.7049 41.5065 91.2683C42.3533 92.6443 43.1332 93.9722 43.4916 95.5851C43.9054 97.4472 44.8834 98.8366 45.4138 100.627C46.0966 102.931 46.3275 110.183 46.3275 107.779" stroke="#292828" stroke-width="2" stroke-linecap="round"/>
<path d="M71.4249 154.454C70.5722 155.402 73.5882 154.519 73.8199 154.454C76.5937 153.678 79.4053 153.045 81.8698 151.461C83.586 150.357 85.5541 149.341 86.8927 147.735C87.2584 147.296 87.3572 146.707 87.7409 146.288C88.2109 145.775 87.8343 146.148 87.7409 146.521" stroke="#292828" stroke-width="2" stroke-linecap="round"/>
<path d="M15.4962 73.7129C14.3419 74.9033 13.3535 76.2465 12.1738 77.4263C11.1802 78.4198 10.8636 80.0431 10.5668 81.3785C10.2401 82.8487 9.63304 84.1791 9.63304 85.7325C9.63304 87.4765 9.24444 88.9193 8.85128 90.6076C7.85732 94.8758 8.14461 99.3276 7.72207 103.659C7.31894 107.791 7.97887 112.112 8.61241 116.167C8.931 118.206 9.70135 120.065 10.1216 122.073C10.6234 124.471 11.6042 126.648 12.9555 128.675C15.3967 132.337 18.7263 135.618 22.5755 137.817C24.1903 138.74 25.4909 139.545 27.3095 140.054C28.5176 140.392 29.6699 141.014 30.8926 141.292C32.288 141.609 33.5917 141.921 35.0402 141.921C36.0067 141.921 38.862 142.399 39.5354 141.726" stroke="#ECACC4" stroke-width="2" stroke-linecap="round"/>
<path d="M14.1279 74.2993C14.1629 74.8584 14.4591 74.5592 14.7142 74.2558C15.3997 73.4408 16.0772 72.8687 17.0161 72.3449C18.2625 71.6495 19.6329 70.9417 20.9683 70.4339C21.869 70.0914 23.1434 69.0725 24.0954 69.0224C25.3513 68.9563 26.5931 68.6802 27.8087 68.3383C29.4458 67.8779 31.3846 67.6543 33.0856 67.6543C34.7791 67.6543 36.3441 68.2246 37.9716 68.6315C39.168 68.9306 40.0344 69.3262 40.9032 70.195C41.6039 70.8957 42.5256 71.1268 43.2485 71.7694C45.0346 73.357 47.4738 74.1504 48.6231 76.4491C49.7942 78.7912 51.6577 80.864 52.673 83.2461C53.1287 84.3151 53.0561 85.563 53.6502 86.5685C54.2326 87.5541 54.836 88.6397 55.5504 89.5327C56.3409 90.5209 56.8272 91.6988 57.5048 92.7575C57.8471 93.2924 58.7371 94.2341 57.7111 94.2341" stroke="#ECACC4" stroke-width="2" stroke-linecap="round"/>
<path d="M58.4931 93.8423C58.4418 93.6884 57.0918 95.0339 56.9296 95.2321C56.1494 96.1857 55.5114 97.1064 54.6278 97.99C53.1965 99.4213 52.4478 101.364 50.9578 102.735C49.9153 103.694 49.5647 104.543 48.8731 105.721C48.0822 107.068 46.7478 107.999 45.833 109.239C45.0423 110.31 44.4165 111.42 43.8243 112.605C43.1884 113.876 42.1056 114.875 41.3053 116.036C40.617 117.034 40.3774 118.249 39.7743 119.293C39.2994 120.115 38.928 121.09 38.656 121.997C37.9818 124.244 37.5811 126.26 37.5811 128.631C37.5811 129.926 38.1064 130.831 38.4605 132.051C38.8391 133.355 39.1322 134.638 39.4486 135.949C39.5913 136.54 40.8031 140.016 40.5127 140.162" stroke="#ECACC4" stroke-width="2" stroke-linecap="round"/>
<path d="M57.7109 94.6242C58.0383 92.8235 60.5316 90.9624 61.6632 89.6296C62.3172 88.8594 63.1872 88.4332 64.0627 87.9793C65.098 87.4425 66.0884 86.7425 67.1789 86.3289C68.8793 85.6839 70.6534 85.3239 72.3689 84.6568C74.1765 83.9538 75.9408 83.7276 77.8413 83.4407C79.6706 83.1646 81.4489 82.9728 83.3136 83.1367C85.017 83.2864 86.4423 83.5251 87.9933 84.255C89.016 84.7363 90.1689 85.3014 91.3049 85.4277C92.1888 85.5259 92.9512 85.8294 93.9542 85.8294C95.0003 85.8294 98.6103 85.9867 98.9488 87.0021" stroke="#ECACC4" stroke-width="2" stroke-linecap="round"/>
<path d="M101.881 83.875C101.104 83.9527 101.098 84.9474 100.817 85.5254C100.115 86.9682 99.9051 88.0381 99.6874 89.5862C99.5808 90.3446 98.7714 93.2561 100.317 93.2561C103.054 93.2561 103.8 90.1879 104.769 88.1747C105.047 87.5979 106.458 84.8522 105.203 84.8522" stroke="#ECACC4" stroke-width="2" stroke-linecap="round"/>
<path d="M104.813 91.4961C105.379 93.0828 106.809 93.5659 108.026 94.3408C108.779 94.8198 109.188 95.7808 109.905 96.2735C111.142 97.1243 113.094 98.8718 113.217 100.53C113.331 102.081 114.642 103.828 115.573 104.992C117.684 107.632 116.229 111.012 115.258 113.787C114.377 116.303 113.965 119.181 112.826 121.594C111.537 124.322 109.744 126.989 108.124 129.52C107.19 130.98 105.848 132.003 104.813 133.364C103.934 134.519 103.645 136.074 102.467 136.99C100.174 138.774 98.5995 141.566 96.6041 143.679C95.7392 144.594 95.1037 145.682 94.2588 146.621C93.2225 147.773 92.2036 149.035 91.1101 150.128C88.9349 152.303 86.6134 154.124 83.9005 155.557C77.3107 159.038 69.8945 159.296 62.6084 158.912C60.7002 158.812 58.775 158.089 56.8864 157.794C55.1341 157.52 53.9786 156.959 52.4347 156.187C50.3925 155.166 48.9435 153.284 46.8538 152.365C44.573 151.361 43.6749 148.096 42.6192 146.024C42.1981 145.197 41.5964 144.46 41.0992 143.679C40.583 142.868 40.5915 142.025 40.3174 141.138C39.806 139.483 40.1896 138.259 40.5128 136.643" stroke="#ECACC4" stroke-width="2" stroke-linecap="round"/>
<path d="M16.6687 71.5625C14.6402 71.5625 12.4751 72.3098 10.5123 72.746C8.97762 73.087 7.84292 74.5236 6.85322 75.6233C4.43862 78.3062 3.48948 81.7471 2.79241 85.2324C2.59881 86.2005 2.42993 87.1809 2.40153 88.1749C2.37075 89.2523 1.66944 90.2527 1.61977 91.3454C1.55173 92.8423 1.22889 94.2687 1.22889 95.7971C1.22889 100.216 0.623992 104.778 1.3809 109.13C1.63764 110.607 1.62203 112.183 1.81521 113.68C2.04709 115.477 2.29931 117.245 2.41239 119.054C2.59913 122.042 3.41079 125.327 4.55137 128.088C5.39567 130.132 6.13831 132.676 7.39611 134.505C8.33652 135.873 9.6401 136.969 10.61 138.316C11.1 138.997 11.578 139.74 12.1735 140.336C12.6349 140.797 13.2533 141.046 13.7262 141.519C15.7767 143.57 18.6786 144.889 21.5112 145.482C22.2612 145.639 22.9418 145.634 23.7154 145.634C24.4904 145.634 25.2762 145.597 26.0498 145.645C26.7557 145.689 27.3933 146.025 28.1019 146.025C30.6437 146.025 33.2337 146.025 35.8218 146.025C37.0596 146.025 38.2973 146.025 39.5351 146.025C39.8622 146.025 40.3925 146.122 40.7078 145.982C40.8206 145.932 41.3578 145.571 41.0987 145.83" stroke="#ECACC4" stroke-width="2" stroke-linecap="round"/>
<path d="M91.7025 92.3164C90.9955 92.7515 92.8792 92.6 93.1835 92.6C94.7784 92.6 96.468 92.4294 98.0518 92.6158C98.6661 92.688 98.807 93.3132 99.2334 93.435C99.7598 93.5854 98.43 93.4508 98.2251 93.4508" stroke="#ECACC4" stroke-width="2" stroke-linecap="round"/>
<path d="M88.0152 89.4793C86.8935 89.417 87.2324 88.6228 86.5343 88.408C85.4871 88.0858 84.2299 89.7802 83.7771 90.4876C81.4227 94.1664 84.8461 95.4347 88.0152 95.4347C91.0354 95.4347 91.4587 91.8288 90.5675 89.6999C89.9041 88.1149 88.0021 87.2732 86.3452 87.9511C85.0502 88.4808 85.1793 90.6062 85.1793 91.748" stroke="#ECACC4" stroke-width="2" stroke-linecap="round"/>
<path d="M80.6425 92.3158C80.5548 91.6141 75.2517 93.4143 74.561 93.6077C73.5066 93.903 72.518 94.7779 71.5518 95.3093C70.2648 96.0171 69.0702 96.7033 67.8809 97.5622C65.5244 99.2642 62.829 100.487 60.7754 102.541C59.5027 103.813 58.102 104.962 56.8367 106.227C55.6999 107.364 55.2316 108.943 54.2528 110.166C52.3218 112.58 50.7739 114.941 49.227 117.618C47.7646 120.149 46.796 123.142 45.4773 125.779C43.953 128.828 43.0036 132.193 42.5784 135.548C42.4141 136.844 42.0742 138.084 42.0742 139.392C42.0742 139.676 42.0742 141.307 42.0742 140.243" stroke="#ECACC4" stroke-width="2" stroke-linecap="round"/>
<path d="M48.5957 152.72C48.5957 154.421 48.5957 149.317 48.5957 147.615C48.5957 145.214 49.115 142.892 49.5095 140.525C49.8665 138.383 50.143 136.127 51.022 134.129C52.1396 131.589 53.8922 129.649 55.1183 127.197C56.2439 124.945 57.8188 123.246 59.3721 121.304C60.727 119.611 62.0755 117.648 63.8938 116.436C65.5403 115.338 67.1288 114.303 68.384 112.734C69.193 111.722 70.46 111.288 71.2829 110.465" stroke="#ECACC4" stroke-width="2" stroke-linecap="round"/>
<path d="M79.791 102.241C80.6116 102.15 81.5151 101.459 82.2803 101.169C84.0805 100.488 86.1319 99.9069 88.0309 99.5782C90.8824 99.0847 94.0291 99.4049 96.9167 99.4049C99.0619 99.4049 101.085 99.9721 103.266 99.9721C104.95 99.9721 106.163 100.432 107.803 100.76C109.008 101.001 109.534 101.731 110.261 102.666C110.814 103.377 111.421 103.755 112.246 104.226C112.69 104.479 115.956 105.783 114.673 106.211" stroke="#ECACC4" stroke-width="2" stroke-linecap="round"/>
<path d="M55.1188 134.003C54.3051 133.28 54.5516 137.715 54.5516 138.257C54.5516 138.941 54.1426 141.314 54.8352 141.66" stroke="#ECACC4" stroke-width="2" stroke-linecap="round"/>
<path d="M50.582 142.512C50.8341 144.906 50.9089 148.834 52.8508 150.452" stroke="#ECACC4" stroke-width="2" stroke-linecap="round"/>
<path d="M102.195 51.762C101.869 52.3739 102.137 52.4889 102.179 53.243C102.286 55.159 102.461 57.0907 102.479 59.0093C102.505 61.7634 102.195 64.4665 102.195 67.2177C102.195 70.2474 102.232 73.6936 101.896 76.718C101.754 77.9966 100.831 81.9789 102.053 82.9569C102.844 83.5896 105.061 83.9171 106.024 83.3823C107.795 82.3983 109.79 80.5879 109.852 78.4195C109.959 74.6799 110.581 70.7596 109.915 67.0129C109.547 64.9431 109.844 62.7683 109.427 60.6794C109.051 58.7994 109.285 56.7338 109.285 54.8185C109.285 52.3874 109.942 50.4875 111.27 48.422C112.852 45.9617 115.366 43.6175 116.091 40.7178C116.52 39.0018 116.658 37.671 116.658 35.881C116.658 33.5378 116.657 31.3212 116.091 29.0591C115.584 27.0323 115.344 24.3578 113.822 22.8359C111.701 20.7148 110.717 17.6843 108.718 15.4625C107.634 14.2587 106.57 13.6032 105.315 12.6266C103.634 11.3198 101.732 11.1288 99.9264 10.2003C96.3625 8.36751 90.5584 7.94977 86.5977 8.93995" stroke="#ECACC4" stroke-width="2" stroke-linecap="round"/>
<path d="M34.1333 32.1947C33.8697 31.9311 30.8925 38.9552 30.6672 39.6311C29.8794 41.9944 28.9435 44.5411 27.6107 46.6578C25.7381 49.6321 25.2408 53.2104 24.4912 56.5835C24.1019 58.3353 23.3439 60.5221 24.633 62.0977C27.1169 65.1336 28.5162 61.1116 29.8795 58.9152C33.6822 52.7886 35.9105 45.5883 40.3723 39.8517C42.1814 37.5256 43.9177 35.7838 46.7688 34.747C48.3916 34.1569 50.2736 32.1947 51.9995 32.1947" stroke="#ECACC4" stroke-width="2" stroke-linecap="round"/>
<path d="M49.7305 32.4776C50.9827 30.7558 54.691 30.9385 56.5366 29.752C57.8768 28.8904 59.3506 27.6464 60.5069 26.5222C62.7118 24.3786 65.755 22.3073 68.731 21.4806C72.0757 20.5515 75.3253 19.6534 78.6567 21.134C79.3633 21.4481 80.1421 21.4974 80.8624 21.7642C81.5357 22.0136 81.844 22.6437 82.6112 22.8355C83.8329 23.141 85.0914 24.7328 85.967 25.6084C87.1905 26.832 88.7229 28.4866 89.1495 30.1931C89.5075 31.625 89.6008 33.1384 90.0633 34.5257C91.0633 37.5259 91.0912 41.0267 93.4664 43.317C94.7512 44.556 96.4866 45.2029 97.7832 46.4995C98.5832 47.2995 99.6811 47.5466 100.493 48.3586C100.77 48.6352 101.393 48.8863 101.564 49.2094C101.796 49.6475 101.583 50.2855 101.769 50.7691C102.07 51.5514 101.377 53.7633 101.911 54.0304" stroke="#ECACC4" stroke-width="2" stroke-linecap="round"/>
<path d="M33.85 31.9113C33.85 32.806 33.9418 30.0874 33.6767 29.233C33.2907 27.9894 32.6076 26.702 32.0066 25.5463C31.2704 24.1304 30.7305 23.377 30.7305 21.7178C30.7305 17.518 34.6023 14.7235 37.8202 12.4066C41.3985 9.83029 45.3927 7.57276 49.3056 5.5532C51.778 4.27713 54.7652 4.16433 57.4037 3.39476C61.7216 2.13537 66.1322 1 70.6536 1C72.2281 1 73.2742 1.16353 74.6869 1.56718C76.0994 1.97076 78.7185 2.38711 79.634 3.55231C80.4361 4.57318 81.8758 4.82185 82.848 5.75801C84.1421 7.00418 85.2757 7.51042 86.2511 9.16109C87.1378 10.6617 88.2209 11.9034 89.0082 13.478C89.7432 14.9479 90.0357 16.5332 90.7098 18.0312C91.5087 19.8066 91.8256 21.6649 92.6949 23.4036C93.4541 24.922 94.263 26.3684 94.9636 27.9253C95.6059 29.3527 96.5114 30.5542 97.3741 31.8483C97.9653 32.7351 98.6824 34.7225 99.4223 35.3144C100.474 36.1561 101.393 37.0642 102.337 38.0085C103.068 38.7399 103.728 40.1277 104.747 40.419C106.485 40.9154 109.545 42.3286 110.986 40.356C111.689 39.394 111.73 38.1611 111.412 37.0159C110.977 35.4515 111.522 33.7553 111.128 32.1791C110.775 30.7677 110.884 29.1541 110.136 27.878C109.624 27.0048 109.528 25.9346 108.938 25.1052C108.181 24.0391 107.125 23.1468 106.512 21.9857C104.939 19.0074 102.934 16.8431 99.7846 15.3371C97.8003 14.388 96.194 12.9987 93.908 12.9108C93.2922 12.8871 91.9888 12.8175 91.4187 12.5642C90.481 12.1474 89.4309 12.6263 88.5828 12.3436" stroke="#ECACC4" stroke-width="2" stroke-linecap="round"/>
<path d="M85.4628 23.1191C85.2566 23.1191 85.4628 22.7988 85.4628 22.4889C85.4628 21.7431 85.2443 21.2276 84.8956 20.5668C84.071 19.0045 82.5936 17.8051 81.6343 16.3129C81.2457 15.7085 80.6522 15.3104 80.2321 14.7374C79.7749 14.114 79.7694 13.1719 79.2238 12.6263C78.0891 11.4916 76.9224 10.5109 75.5371 9.66432C74.1813 8.83578 72.9982 8.02872 71.5511 7.3956C70.0539 6.7406 68.3148 7.0001 66.7458 6.60785C64.8509 6.13413 63.0813 6.65171 61.2158 6.93871C59.3101 7.23189 57.1593 7.28335 55.4652 8.37241C54.1063 9.246 52.3946 9.65467 50.8648 10.3575C50.1007 10.7086 49.2928 10.7488 48.5961 11.2713C47.6271 11.998 46.865 12.7828 45.7602 13.3352C43.9885 14.221 43.1421 16.229 41.5063 17.1637C39.3867 18.3749 38.4651 20.2075 37.6778 22.3944C36.0469 26.9246 37.9034 30.3295 42.0735 32.4145C42.7693 32.7624 43.3418 32.4776 44.0586 32.4776C45.0279 32.4776 45.9207 32.8444 46.9103 32.7454C48.4138 32.595 49.7547 31.5242 51.1484 31.0596" stroke="#ECACC4" stroke-width="2" stroke-linecap="round"/>
<path d="M85.4629 21.418C85.4629 22.7526 87.2789 23.7265 87.6686 25.0416C87.8928 25.7983 87.9801 26.2309 88.2988 26.948C88.4116 27.2019 89.163 27.9405 88.866 27.9405" stroke="#ECACC4" stroke-width="2" stroke-linecap="round"/>
<path d="M23.0729 64.5234C23.0778 64.4365 23.2673 63.1423 23.5771 63.4521C23.7764 63.6514 23.1261 65.2161 23.0729 65.4372C22.9072 66.1262 21.3867 69.6281 22.7894 69.6281" stroke="#ECACC4" stroke-width="2" stroke-linecap="round"/>
<path d="M25.909 64.5232C26.1827 63.1547 26.4677 64.7241 26.3186 65.4055C26.009 66.8211 25.5463 68.1966 25.3418 69.6278" stroke="#ECACC4" stroke-width="2" stroke-linecap="round"/>
<path d="M36.4019 123.228C36.3215 124.514 33.5255 122.674 32.857 122.377C31.834 121.922 30.935 120.583 30.6671 119.541C30.2621 117.966 29.4317 116.632 29.0286 115.019C28.6243 113.402 28.0819 111.816 27.6736 110.183C26.8035 106.702 26.7598 102.987 26.7598 99.4062C26.7598 97.4398 26.4621 95.1983 27.0434 93.309C27.5209 91.7572 28.2584 90.5751 29.0286 89.1969C30.1644 87.1643 33.3622 84.6319 35.8347 85.7308C38.4655 86.9 39.929 87.7049 41.5065 90.2683C42.3533 91.6443 43.1332 92.9722 43.4916 94.5851C43.9054 96.4472 44.8834 97.8366 45.4138 99.6267C46.0966 101.931 46.3275 109.183 46.3275 106.779" stroke="#ECACC4" stroke-width="2" stroke-linecap="round"/>
<path d="M71.4249 153.454C70.5722 154.402 73.5882 153.519 73.8199 153.454C76.5937 152.678 79.4053 152.045 81.8698 150.461C83.586 149.357 85.5541 148.341 86.8927 146.735C87.2584 146.296 87.3572 145.707 87.7409 145.288C88.2109 144.775 87.8343 145.148 87.7409 145.521" stroke="#ECACC4" stroke-width="2" stroke-linecap="round"/>
</svg>
