<svg preserveAspectRatio="xMidYMid meet" viewBox="0 0 164 120" fill="none" xmlns="http://www.w3.org/2000/svg">
<path d="M37.6891 19.4568C34.8497 18.705 32.7048 17.0742 29.731 16.2868C28.7584 16.0293 26.6139 15.1577 25.6269 15.7315C24.6774 16.2834 25.8387 17.9582 25.5812 19.0258C23.4427 27.8934 22.4474 36.8812 20.1019 45.7388C19.0436 49.7356 17.0269 53.3381 15.9749 57.3109C15.1306 60.4996 13.1999 63.1725 13.6235 66.6372C13.837 68.3831 18.4805 68.2612 19.6838 68.3895C21.9128 68.6271 24.2216 69.5616 26.3949 70.1371" stroke="#292828" stroke-width="2" stroke-linecap="round"/>
<path d="M37.9225 20.5801C37.3488 20.5127 37.1787 27.0001 36.9742 28.0638C36.3006 31.566 35.6109 35.1757 34.737 38.6307C33.297 44.3241 31.7298 50.1313 31.0907 55.9687C30.5302 61.0891 26.931 76.1376 28.2495 71.1582" stroke="#292828" stroke-width="2" stroke-linecap="round"/>
<path d="M38.9448 18.7258C38.3607 19.1483 37.1137 21.4527 37.5571 19.9526C38.1018 18.1099 38.9522 16.3557 39.5293 14.5114C40.3303 11.9517 43.1988 9.64258 45.7079 9.23928C52.8836 8.08589 59.8136 10.7246 66.3703 13.264C67.592 13.7371 66.8754 17.5999 66.593 18.6664C65.2311 23.8097 64.8831 29.1377 63.5246 34.2681C61.2065 43.0223 58.5838 51.7012 56.0882 60.3448C54.169 66.9925 52.5413 73.74 50.7702 80.4286C50.086 83.0126 49.9949 85.9259 49.1921 88.395C48.6888 89.9432 42.7919 89.2106 41.8309 89.1027C38.8865 88.7722 35.0705 88.9515 32.447 87.415C30.7983 86.4495 26.9807 86.0744 26.1653 84.1575C24.0132 79.0982 26.9033 72.2282 28.1765 67.4197" stroke="#292828" stroke-width="2" stroke-linecap="round"/>
<path d="M59.8723 46.0548C66.3228 47.7628 72.9259 48.6846 79.333 50.3812C81.9085 51.0632 84.1867 52.0827 86.8847 52.4104C89.8229 52.7672 91.4911 54.7224 94.1734 55.4327C96.636 56.0848 99.2428 55.6405 101.681 56.6237C103.052 57.1762 104.184 57.7881 105.668 58.1811C106.796 58.4797 114.51 59.9911 110.158 58.8387" stroke="#292828" stroke-width="2" stroke-linecap="round"/>
<path d="M58.5719 58.9957C60.1096 57.9765 63.5515 59.2717 65.18 59.6827C68.3571 60.4845 71.4059 61.0827 74.6743 61.3996C80.5215 61.9665 85.7268 63.9321 91.6416 64.3278C95.4804 64.5846 98.2397 67.2926 101.964 67.7106C103.101 67.8382 108.825 69.6453 105.908 68.8729" stroke="#292828" stroke-width="2" stroke-linecap="round"/>
<path d="M119.041 29.3076C117.575 30.9704 117.252 34.2187 116.784 36.2678C116.03 39.5766 115.421 42.9031 114.57 46.1912C113.219 51.4127 111.809 56.6196 110.428 61.8334C108.908 67.5724 107.901 73.3824 106.388 79.0968C104.45 86.4179 102.042 93.5036 100.106 100.815C99.5494 102.917 99.9368 104.549 99.6527 106.54C99.4653 107.854 107.981 106.238 109.241 106.452C112.783 107.053 116.321 107.367 119.829 108.163C121.855 108.622 123.165 108.27 123.635 106.277C128.644 85.0577 133.34 63.6046 138.925 42.5143C139.251 41.282 139.577 40.0498 139.904 38.8175C140.137 37.9351 139.205 37.4085 138.903 36.5747C137.975 34.0042 135.385 32.0681 133.412 30.22C130.874 27.8422 127.481 29.3061 124.372 29.2431C121.932 29.1937 118.056 29.014 117.258 32.0241" stroke="#292828" stroke-width="2" stroke-linecap="round"/>
<path d="M137.267 44.7614C135.151 44.8947 141.181 46.4045 143.073 47.3616C145.183 48.4286 147.215 49.6123 149.542 50.1372C149.993 50.239 150.826 49.5658 150.645 50.4294C150.259 52.2757 149.586 54.0471 149.309 55.921C147.844 65.8395 141.566 75.0875 141.689 85.2555C141.74 89.4438 139.538 94.382 138.46 98.453C138.111 99.7714 137.595 101.707 136.026 101.292C133.42 100.602 130.011 99.6397 127.321 100.05C126.234 100.215 126.962 99.7317 127.302 98.4504" stroke="#292828" stroke-width="2" stroke-linecap="round"/>
<path d="M146.145 69.4304C144.481 68.9899 149.522 70.299 151.242 70.2487C151.888 70.2299 154.256 69.9717 154.71 70.7537C155.051 71.3406 153.674 73.1135 153.425 73.6017C152.31 75.7804 151.442 77.7407 150.759 80.0993C149.511 84.4155 144.761 82.3487 141.864 81.5818" stroke="#292828" stroke-width="2" stroke-linecap="round"/>
<path d="M15.0486 34.7162C13.633 34.3414 14.9987 34.013 15.8082 33.8546C16.8949 33.6419 20.1827 34.4815 19.1123 34.1981C17.5013 33.7715 14.9766 33.827 13.3382 34.2633C10.8567 34.9242 11.7099 43.6142 11.5781 45.3699C11.438 47.2371 15.5956 47.8429 17.1216 46.9558" stroke="#292828" stroke-width="2" stroke-linecap="round"/>
<path d="M52.8065 16.5507C51.8662 13.798 45.02 25.8885 44.4512 28.0364C44.0338 29.6128 45.2867 30.9016 44.8598 32.5139" stroke="#292828" stroke-width="2" stroke-linecap="round"/>
<path d="M118.996 47.9231C118.694 48.2245 120.946 42.8485 121.674 41.2795C122.518 39.4637 123.098 37.5452 124.855 36.5236C125.877 35.9298 129.918 35.7752 129.745 35.7294" stroke="#292828" stroke-width="2" stroke-linecap="round"/>
<path d="M37.4333 20.4236C34.5938 19.6718 32.4489 18.041 29.4752 17.2536C28.5025 16.996 26.358 16.1245 25.371 16.6982C24.4216 17.2502 25.5828 18.925 25.3253 19.9926C23.1869 28.8602 22.1915 37.848 19.8461 46.7056C18.7878 50.7024 16.7711 54.3049 15.7191 58.2777C14.8747 61.4664 12.9441 64.1393 13.3676 67.604C13.5811 69.3499 18.2247 69.228 19.428 69.3563C21.6569 69.5939 23.9657 70.5284 26.1391 71.1039" stroke="#ECACC4" stroke-width="2" stroke-linecap="round"/>
<path d="M37.6676 21.5469C37.0939 21.4795 36.9238 27.9669 36.7193 29.0306C36.0457 32.5328 35.356 36.1425 34.4821 39.5975C33.0421 45.2908 31.4749 51.0981 30.8358 56.9355C30.2753 62.0559 26.6761 77.1044 27.9946 72.125" stroke="#ECACC4" stroke-width="2" stroke-linecap="round"/>
<path d="M38.6899 19.6926C38.1058 20.1151 36.8588 22.4195 37.3022 20.9194C37.847 19.0767 38.6973 17.3225 39.2744 15.4782C40.0754 12.9185 42.9439 10.6094 45.453 10.2061C52.6287 9.05268 59.5587 11.6914 66.1154 14.2308C67.3371 14.7039 66.6205 18.5667 66.3381 19.6332C64.9762 24.7765 64.6282 30.1045 63.2697 35.2349C60.9516 43.9891 58.3289 52.668 55.8334 61.3116C53.9141 67.9593 52.2864 74.7068 50.5153 81.3954C49.8311 83.9793 49.74 86.8927 48.9373 89.3618C48.4339 90.9099 42.5371 90.1774 41.576 90.0695C38.6316 89.739 34.8156 89.9183 32.1921 88.3818C30.5434 87.4163 26.7258 87.0412 25.9104 85.1243C23.7583 80.065 26.6484 73.195 27.9216 68.3865" stroke="#ECACC4" stroke-width="2" stroke-linecap="round"/>
<path d="M59.6175 47.0211C66.0679 48.7291 72.671 49.6509 79.0781 51.3475C81.6536 52.0295 83.9318 53.049 86.6298 53.3767C89.568 53.7335 91.2362 55.6887 93.9186 56.399C96.3811 57.0511 98.9879 56.6069 101.427 57.59C102.797 58.1425 103.929 58.7544 105.413 59.1474C106.541 59.446 114.255 60.9574 109.903 59.805" stroke="#ECACC4" stroke-width="2" stroke-linecap="round"/>
<path d="M58.316 59.9625C59.8538 58.9433 63.2956 60.2385 64.9242 60.6495C68.1013 61.4513 71.15 62.0495 74.4184 62.3664C80.2656 62.9333 85.4709 64.8989 91.3857 65.2946C95.2245 65.5514 97.9838 68.2594 101.708 68.6774C102.845 68.805 108.569 70.6121 105.652 69.8397" stroke="#ECACC4" stroke-width="2" stroke-linecap="round"/>
<path d="M118.785 30.2744C117.319 31.9372 116.996 35.1855 116.528 37.2346C115.774 40.5434 115.165 43.8699 114.314 47.158C112.963 52.3795 111.553 57.5864 110.172 62.8002C108.652 68.5392 107.645 74.3492 106.132 80.0636C104.194 87.3847 101.786 94.4704 99.8501 101.781C99.2935 103.883 99.681 105.516 99.3969 107.507C99.2094 108.82 107.726 107.204 108.985 107.418C112.527 108.02 116.065 108.333 119.573 109.13C121.599 109.589 122.909 109.237 123.379 107.244C128.389 86.0245 133.084 64.5714 138.669 43.481C138.995 42.2488 139.322 41.0166 139.648 39.7843C139.882 38.9019 138.949 38.3753 138.648 37.5415C137.719 34.971 135.129 33.0349 133.156 31.1868C130.618 28.809 127.225 30.2729 124.116 30.2099C121.676 30.1605 117.8 29.9808 117.003 32.9909" stroke="#ECACC4" stroke-width="2" stroke-linecap="round"/>
<path d="M137.011 45.7282C134.895 45.8615 140.925 47.3713 142.817 48.3284C144.927 49.3954 146.959 50.5791 149.286 51.104C149.737 51.2058 150.57 50.5326 150.389 51.3962C150.003 53.2425 149.33 55.0139 149.053 56.8878C147.588 66.8063 141.31 76.0543 141.433 86.2223C141.484 90.4106 139.282 95.3488 138.204 99.4198C137.855 100.738 137.339 102.674 135.77 102.259C133.164 101.569 129.755 100.606 127.065 101.017C125.978 101.182 126.707 100.699 127.046 99.4172" stroke="#ECACC4" stroke-width="2" stroke-linecap="round"/>
<path d="M145.89 70.3972C144.226 69.9567 149.267 71.2658 150.987 71.2155C151.633 71.1967 154.001 70.9385 154.455 71.7205C154.796 72.3074 153.419 74.0803 153.17 74.5685C152.055 76.7472 151.187 78.7075 150.504 81.0661C149.256 85.3823 144.506 83.3155 141.61 82.5486" stroke="#ECACC4" stroke-width="2" stroke-linecap="round"/>
<path d="M14.7928 35.683C13.3772 35.3082 14.7428 34.9798 15.5523 34.8214C16.639 34.6087 19.9268 35.4483 18.8564 35.1649C17.2454 34.7383 14.7207 34.7938 13.0823 35.2301C10.6009 35.891 11.454 44.581 11.3223 46.3367C11.1822 48.2039 15.3398 48.8097 16.8658 47.9226" stroke="#ECACC4" stroke-width="2" stroke-linecap="round"/>
<path d="M52.5506 17.5175C51.6104 14.7648 44.7641 26.8553 44.1953 29.0032C43.7779 30.5796 45.0308 31.8684 44.6039 33.4807" stroke="#ECACC4" stroke-width="2" stroke-linecap="round"/>
<path d="M118.74 48.8899C118.438 49.1913 120.69 43.8153 121.419 42.2463C122.262 40.4305 122.842 38.512 124.6 37.4904C125.621 36.8966 129.662 36.742 129.489 36.6962" stroke="#ECACC4" stroke-width="2" stroke-linecap="round"/>
</svg>
