<svg preserveAspectRatio="xMidYMid meet" viewBox="0 0 140 120" fill="none" xmlns="http://www.w3.org/2000/svg">
<path d="M57.1936 33.7617C57.1545 33.7729 61.5052 42.8986 62.3305 44.5492C63.4195 46.7271 64.1556 48.9776 65.1273 51.1987C66.0198 53.2387 67.3819 55.885 67.867 58.0193C68.6389 61.4159 70.5676 64.1726 71.8338 67.4085C72.7629 69.7829 81.6536 93.1916 81.3371 93.3498" stroke="#292828" stroke-width="2" stroke-linecap="round"/>
<path d="M57.708 32.2216C57.708 34.5189 59.2533 27.7649 60.7902 26.0573C63.9129 22.5876 66.3429 19.7602 70.0651 16.7824C74.7631 13.024 79.6925 10.7534 84.9051 7.8213C87.7638 6.21326 90.1201 4.17489 93.1527 2.82709C94.945 2.03051 98.9723 1.03912 99.317 3.96862C99.6178 6.52535 102.138 9.41179 102.913 11.9308C103.917 15.1961 106.165 18.5883 108.307 21.2058C109.566 22.7455 110.233 25.2877 111.132 27.0847C112.267 29.3558 113.596 31.4997 114.728 33.7627C116.567 37.442 118.571 40.8625 119.979 44.6643C121.093 47.672 122.716 50.196 123.974 53.0261C124.485 54.1747 127.252 57.7496 125.772 58.9335C124.915 59.6194 124.799 60.842 125.401 61.6161C125.41 61.6276 120.87 62.813 120.264 63.1572C117.373 64.8001 114.216 66.109 110.904 66.6389C107.958 67.1102 106.003 68.9811 103.426 70.2347C99.2423 72.2703 96.1566 74.9933 92.9244 78.2255C90.0917 81.0581 88.2986 84.1573 86.1893 87.4719C84.9018 89.4952 84.8411 93.3508 81.8515 93.3508" stroke="#292828" stroke-width="2" stroke-linecap="round"/>
<path d="M57.1944 33.7619C56.9017 30.8349 51.4775 31.9236 49.5176 31.6786C46.2153 31.2658 43.3631 29.6523 39.9858 29.6523C35.8398 29.6523 31.4394 30.3799 27.3718 31.1934C25.5572 31.5563 22.9045 32.1259 21.2646 33.0484C19.0586 34.2893 18.3797 36.6663 15.614 37.3577C14.4577 37.6468 12.4011 38.6724 11.4759 39.4125C10.4285 40.2504 8.94357 39.9492 7.88011 40.9535C6.51515 42.2427 6.09832 42.1973 6.85273 44.1498C8.05524 47.2622 9.06422 50.2851 10.5627 53.2821C15.4234 63.0034 18.4557 74.197 21.3502 84.6173C21.8798 86.5237 29.1033 102.961 29.7405 102.596C31.2797 101.717 31.9363 100.072 33.5646 99.2574C35.6726 98.2035 38.1935 97.8606 40.4995 97.4595C45.1093 96.6578 49.4845 94.988 54.1408 94.4059C60.7838 93.5755 69.9793 92.0624 76.201 95.5189C78.1534 96.6036 79.4231 98.3723 81.452 96.5463C82.6893 95.4327 84.715 92.4701 82.3653 91.2952" stroke="#292828" stroke-width="2" stroke-linecap="round"/>
<path d="M102.399 11.1603C102.839 12.6993 108.634 6.6248 109.591 7.82129C110.193 8.57436 109.929 8.95656 110.133 9.87605C110.484 11.4548 111.937 13.569 112.673 15.0415C115.613 20.9219 120.253 25.8069 123.204 31.7079C124.924 35.1477 127.15 38.7868 129.111 42.0959C130.703 44.7827 131.325 48.1675 132.307 51.114C133.68 55.2333 135.694 59.2418 136.845 63.2714C138.006 67.3352 122.631 72.74 119.322 74.6011C116.436 76.2244 112.233 75.7149 109.591 77.9401C107.247 79.9135 104.594 80.7706 101.885 82.0496C99.2924 83.2741 95.7294 83.6572 93.4666 85.4171C92.0887 86.4888 91.2187 88.1172 89.8137 89.2413C88.0372 90.6625 83.3926 93.8276 83.3926 96.4329" stroke="#292828" stroke-width="2" stroke-linecap="round"/>
<path d="M85.4473 97.9739C85.6102 99.2775 88.2096 92.6431 88.7863 92.0665C90.0669 90.7858 92.4703 91.2959 94.18 91.2959C97.3042 91.2959 99.0656 90.1094 101.885 89.0129C105.418 87.6389 109.571 87.3228 112.701 85.1316C115.877 82.9089 120.064 82.0616 123.346 79.9947C126.117 78.25 129.76 78.321 132.421 76.6272C134.2 75.4951 136.267 74.2042 137.844 72.8031C139.806 71.0585 137.332 64.5844 134.762 64.0703" stroke="#292828" stroke-width="2" stroke-linecap="round"/>
<path d="M6.33892 51.2286C4.63245 51.0153 3.52597 50.337 1.7157 51.3427C0.0481792 52.2691 1.75323 55.8803 2.22939 57.3929C4.25969 63.842 7.06073 69.7632 8.39368 76.428C9.90912 84.0051 11.333 91.5245 14.8148 98.4881C16.6816 102.222 17.6015 107.411 20.6081 110.417C22.7275 112.537 30.4009 108.84 33.0508 108.762C40.3306 108.548 46.2068 102.585 53.0848 101.057C55.5366 100.512 57.7258 99.0039 60.305 98.4881C62.5739 98.0343 65.2934 97.4669 67.4681 96.6902C71.3592 95.3005 83.9285 95.406 79.7967 95.406" stroke="#292828" stroke-width="2" stroke-linecap="round"/>
<path d="M3.77016 51.2286C2.95174 50.0009 7.02379 49.6875 7.87968 49.6875" stroke="#292828" stroke-width="2" stroke-linecap="round"/>
<path d="M23.8048 111.331C22.6431 111.663 26.5144 117.63 27.6575 118.266C28.5209 118.745 32.5777 116.741 33.3081 115.954C34.7676 114.382 37.6854 113.358 39.6151 112.472C42.2942 111.242 44.4142 109.321 47.3204 108.477C51.2722 107.33 55.0689 105.735 58.8499 104.139C62.4026 102.639 66.3844 101.004 70.037 99.8297C72.6263 98.9974 76.3184 97.9747 79.0266 97.9747C81.8463 97.9747 88.5299 98.6268 88.5299 94.3789" stroke="#292828" stroke-width="2" stroke-linecap="round"/>
<path d="M17.6406 46.6049C18.4981 47.0337 22.0302 43.4528 23.2912 43.0091C25.6121 42.1925 28.0189 42.1123 30.3687 41.468C34.0866 40.4486 39.4437 37.6375 43.3252 38.5C45.2488 38.9275 47.2312 38.9555 49.0899 39.5274C51.0753 40.1383 51.8565 39.3023 51.0305 40.9543" stroke="#292828" stroke-width="2" stroke-linecap="round"/>
<path d="M18.668 54.8245C23.348 52.7265 27.9003 51.1847 32.7945 49.9159C36.0559 49.0703 39.1563 47.6328 42.5546 47.6328C44.8731 47.6328 47.132 48.6173 49.4894 48.6602C50.1495 48.6722 55.1799 48.6602 53.5989 48.6602" stroke="#292828" stroke-width="2" stroke-linecap="round"/>
<path d="M22.2637 64.5844C25.7381 61.9275 29.7974 59.8509 33.8217 58.1632C36.9481 56.8522 40.3652 54.9181 43.8387 54.8242C46.4897 54.7526 49.0985 54.3105 51.7438 54.3105C52.6281 54.3105 55.2751 54.8242 53.0851 54.8242" stroke="#292828" stroke-width="2" stroke-linecap="round"/>
<path d="M24.832 72.2894C25.0125 72.9211 34.4354 67.9531 35.3627 67.4379C38.7804 65.5392 43.6196 63.7275 47.5486 63.1572C50.3465 62.751 52.93 63.2256 55.6535 63.5282C56.4929 63.6214 60.7679 63.5567 57.7082 63.5567" stroke="#292828" stroke-width="2" stroke-linecap="round"/>
<path d="M27.9139 81.0218C27.1526 81.7831 28.8499 80.2365 29.0555 80.1086C31.4687 78.607 33.9736 77.3609 36.6467 76.3986C41.5547 74.6317 46.2884 74.0834 51.4296 73.4306C53.9032 73.1165 56.501 73.3164 58.9922 73.3164C61.1119 73.3164 62.404 72.9494 59.7628 72.2891" stroke="#292828" stroke-width="2" stroke-linecap="round"/>
<path d="M30.9961 89.2406C33.4606 87.6459 36.5691 86.9314 39.2151 85.6448C41.6162 84.4773 43.9788 83.0105 46.521 82.1631C50.1858 80.9415 54.2038 81.303 57.8222 79.9942C62.0199 78.4759 65.2416 78.4531 69.5229 78.4531" stroke="#292828" stroke-width="2" stroke-linecap="round"/>
<path d="M67.9824 34.7897C69.6807 31.1505 74.572 27.497 77.7425 25.0581C80.357 23.047 83.8459 20.9152 86.8748 19.6073C88.7067 18.8163 90.7261 18.2693 92.611 17.6096C93.191 17.4066 95.5774 17.3242 95.208 17.3242" stroke="#292828" stroke-width="2" stroke-linecap="round"/>
<path d="M72.6055 43.0103C72.6956 43.5509 73.5483 41.5494 73.6329 41.355C74.5715 39.1961 75.9589 37.1151 77.457 35.3049C80.519 31.605 85.2266 29.1607 89.1577 26.458C90.9435 25.2303 92.8628 24.1469 94.9796 23.6042C95.9062 23.3666 96.607 23.5495 97.3768 22.8622C97.8412 22.4475 101.311 20.1059 99.3174 21.4353" stroke="#292828" stroke-width="2" stroke-linecap="round"/>
<path d="M76.7151 48.1449C76.7151 48.5054 76.4667 49.7201 76.9434 49.0581C78.0849 47.4727 79.4219 46.1737 80.9387 44.9486C85.2001 41.5067 88.4893 37.0963 93.5527 34.7889C95.9027 33.718 98.3199 32.4319 100.744 31.5926C101.413 31.3611 103.604 30.0477 101.886 31.1931" stroke="#292828" stroke-width="2" stroke-linecap="round"/>
<path d="M85.4469 53.7971C84.9473 54.2513 81.7275 56.7636 83.4492 54.7959C86.6029 51.1917 89.5559 47.4905 93.4091 44.5792C96.6138 42.1578 99.8637 40.5011 103.426 38.7859C104.09 38.4664 108.211 36.0088 107.536 37.359" stroke="#292828" stroke-width="2" stroke-linecap="round"/>
<path d="M81.3379 64.5847C81.615 67.0788 85.6515 61.967 87.5307 60.3039C91.5912 56.7106 96.5058 51.6847 101.886 49.973C104.967 48.9925 107.522 48.8506 109.591 46.0918" stroke="#292828" stroke-width="2" stroke-linecap="round"/>
<path d="M86.4746 71.7761C83.2787 71.7761 89.4204 67.4121 90.2988 66.7533C92.7906 64.8845 95.8043 63.68 98.0612 61.5023C100.07 59.5641 101.556 57.729 104.225 56.5937C107.905 55.0288 119.753 53.2832 115.755 53.2832" stroke="#292828" stroke-width="2" stroke-linecap="round"/>
<path d="M57.1936 32.7617C57.1545 32.7729 61.5052 41.8986 62.3305 43.5492C63.4195 45.7271 64.1556 47.9776 65.1273 50.1987C66.0198 52.2387 67.3819 54.885 67.867 57.0193C68.6389 60.4159 70.5676 63.1726 71.8338 66.4085C72.7629 68.7829 81.6536 92.1916 81.3371 92.3498" stroke="#ECACC4" stroke-width="2" stroke-linecap="round"/>
<path d="M57.708 31.2216C57.708 33.5189 59.2533 26.7649 60.7902 25.0573C63.9129 21.5876 66.3429 18.7602 70.0651 15.7824C74.7631 12.024 79.6925 9.75336 84.9051 6.8213C87.7638 5.21326 90.1201 3.17489 93.1527 1.82709C94.945 1.03051 98.9723 0.0391158 99.317 2.96862C99.6178 5.52535 102.138 8.41179 102.913 10.9308C103.917 14.1961 106.165 17.5883 108.307 20.2058C109.566 21.7455 110.233 24.2877 111.132 26.0847C112.267 28.3558 113.596 30.4997 114.728 32.7627C116.567 36.442 118.571 39.8625 119.979 43.6643C121.093 46.672 122.716 49.196 123.974 52.0261C124.485 53.1747 127.252 56.7496 125.772 57.9335C124.915 58.6194 124.799 59.842 125.401 60.6161C125.41 60.6276 120.87 61.813 120.264 62.1572C117.373 63.8001 114.216 65.109 110.904 65.6389C107.958 66.1102 106.003 67.9811 103.426 69.2347C99.2423 71.2703 96.1566 73.9933 92.9244 77.2255C90.0917 80.0581 88.2986 83.1573 86.1893 86.4719C84.9018 88.4952 84.8411 92.3508 81.8515 92.3508" stroke="#ECACC4" stroke-width="2" stroke-linecap="round"/>
<path d="M57.1944 32.7619C56.9017 29.8349 51.4775 30.9236 49.5176 30.6786C46.2153 30.2658 43.3631 28.6523 39.9858 28.6523C35.8398 28.6523 31.4394 29.3799 27.3718 30.1934C25.5572 30.5563 22.9045 31.1259 21.2646 32.0484C19.0586 33.2893 18.3797 35.6663 15.614 36.3577C14.4577 36.6468 12.4011 37.6724 11.4759 38.4125C10.4285 39.2504 8.94357 38.9492 7.88011 39.9535C6.51515 41.2427 6.09832 41.1973 6.85273 43.1498C8.05524 46.2622 9.06422 49.2851 10.5627 52.2821C15.4234 62.0034 18.4557 73.197 21.3502 83.6173C21.8798 85.5237 29.1033 101.961 29.7405 101.596C31.2797 100.717 31.9363 99.0716 33.5646 98.2574C35.6726 97.2035 38.1935 96.8606 40.4995 96.4595C45.1093 95.6578 49.4845 93.988 54.1408 93.4059C60.7838 92.5755 69.9793 91.0624 76.201 94.5189C78.1534 95.6036 79.4231 97.3723 81.452 95.5463C82.6893 94.4327 84.715 91.4701 82.3653 90.2952" stroke="#ECACC4" stroke-width="2" stroke-linecap="round"/>
<path d="M102.399 10.1603C102.839 11.6993 108.634 5.6248 109.591 6.82129C110.193 7.57436 109.929 7.95656 110.133 8.87605C110.484 10.4548 111.937 12.569 112.673 14.0415C115.613 19.9219 120.253 24.8069 123.204 30.7079C124.924 34.1477 127.15 37.7868 129.111 41.0959C130.703 43.7827 131.325 47.1675 132.307 50.114C133.68 54.2333 135.694 58.2418 136.845 62.2714C138.006 66.3352 122.631 71.74 119.322 73.6011C116.436 75.2244 112.233 74.7149 109.591 76.9401C107.247 78.9135 104.594 79.7706 101.885 81.0496C99.2924 82.2741 95.7294 82.6572 93.4666 84.4171C92.0887 85.4888 91.2187 87.1172 89.8137 88.2413C88.0372 89.6625 83.3926 92.8276 83.3926 95.4329" stroke="#ECACC4" stroke-width="2" stroke-linecap="round"/>
<path d="M85.4473 96.9739C85.6102 98.2775 88.2096 91.6431 88.7863 91.0665C90.0669 89.7858 92.4703 90.2959 94.18 90.2959C97.3042 90.2959 99.0656 89.1094 101.885 88.0129C105.418 86.6389 109.571 86.3228 112.701 84.1316C115.877 81.9089 120.064 81.0616 123.346 78.9947C126.117 77.25 129.76 77.321 132.421 75.6272C134.2 74.4951 136.267 73.2042 137.844 71.8031C139.806 70.0585 137.332 63.5844 134.762 63.0703" stroke="#ECACC4" stroke-width="2" stroke-linecap="round"/>
<path d="M6.33892 50.2286C4.63245 50.0153 3.52597 49.337 1.7157 50.3427C0.0481792 51.2691 1.75323 54.8803 2.22939 56.3929C4.25969 62.842 7.06073 68.7632 8.39368 75.428C9.90912 83.0051 11.333 90.5245 14.8148 97.4881C16.6816 101.222 17.6015 106.411 20.6081 109.417C22.7275 111.537 30.4009 107.84 33.0508 107.762C40.3306 107.548 46.2068 101.585 53.0848 100.057C55.5366 99.5117 57.7258 98.0039 60.305 97.4881C62.5739 97.0343 65.2934 96.4669 67.4681 95.6902C71.3592 94.3005 83.9285 94.406 79.7967 94.406" stroke="#ECACC4" stroke-width="2" stroke-linecap="round"/>
<path d="M3.77016 50.2286C2.95174 49.0009 7.02379 48.6875 7.87968 48.6875" stroke="#ECACC4" stroke-width="2" stroke-linecap="round"/>
<path d="M23.8048 110.331C22.6431 110.663 26.5144 116.63 27.6575 117.266C28.5209 117.745 32.5777 115.741 33.3081 114.954C34.7676 113.382 37.6854 112.358 39.6151 111.472C42.2942 110.242 44.4142 108.321 47.3204 107.477C51.2722 106.33 55.0689 104.735 58.8499 103.139C62.4026 101.639 66.3844 100.004 70.037 98.8297C72.6263 97.9974 76.3184 96.9747 79.0266 96.9747C81.8463 96.9747 88.5299 97.6268 88.5299 93.3789" stroke="#ECACC4" stroke-width="2" stroke-linecap="round"/>
<path d="M17.6406 45.6049C18.4981 46.0337 22.0302 42.4528 23.2912 42.0091C25.6121 41.1925 28.0189 41.1123 30.3687 40.468C34.0866 39.4486 39.4437 36.6375 43.3252 37.5C45.2488 37.9275 47.2312 37.9555 49.0899 38.5274C51.0753 39.1383 51.8565 38.3023 51.0305 39.9543" stroke="#ECACC4" stroke-width="2" stroke-linecap="round"/>
<path d="M18.668 53.8245C23.348 51.7265 27.9003 50.1847 32.7945 48.9159C36.0559 48.0703 39.1563 46.6328 42.5546 46.6328C44.8731 46.6328 47.132 47.6173 49.4894 47.6602C50.1495 47.6722 55.1799 47.6602 53.5989 47.6602" stroke="#ECACC4" stroke-width="2" stroke-linecap="round"/>
<path d="M22.2637 63.5844C25.7381 60.9275 29.7974 58.8509 33.8217 57.1632C36.9481 55.8522 40.3652 53.9181 43.8387 53.8242C46.4897 53.7526 49.0985 53.3105 51.7438 53.3105C52.6281 53.3105 55.2751 53.8242 53.0851 53.8242" stroke="#ECACC4" stroke-width="2" stroke-linecap="round"/>
<path d="M24.832 71.2894C25.0125 71.9211 34.4354 66.9531 35.3627 66.4379C38.7804 64.5392 43.6196 62.7275 47.5486 62.1572C50.3465 61.751 52.93 62.2256 55.6535 62.5282C56.4929 62.6214 60.7679 62.5567 57.7082 62.5567" stroke="#ECACC4" stroke-width="2" stroke-linecap="round"/>
<path d="M27.9139 80.0218C27.1526 80.7831 28.8499 79.2365 29.0555 79.1086C31.4687 77.607 33.9736 76.3609 36.6467 75.3986C41.5547 73.6317 46.2884 73.0834 51.4296 72.4306C53.9032 72.1165 56.501 72.3164 58.9922 72.3164C61.1119 72.3164 62.404 71.9494 59.7628 71.2891" stroke="#ECACC4" stroke-width="2" stroke-linecap="round"/>
<path d="M30.9961 88.2406C33.4606 86.6459 36.5691 85.9314 39.2151 84.6448C41.6162 83.4773 43.9788 82.0105 46.521 81.1631C50.1858 79.9415 54.2038 80.303 57.8222 78.9942C62.0199 77.4759 65.2416 77.4531 69.5229 77.4531" stroke="#ECACC4" stroke-width="2" stroke-linecap="round"/>
<path d="M67.9824 33.7897C69.6807 30.1505 74.572 26.497 77.7425 24.0581C80.357 22.047 83.8459 19.9152 86.8748 18.6073C88.7067 17.8163 90.7261 17.2693 92.611 16.6096C93.191 16.4066 95.5774 16.3242 95.208 16.3242" stroke="#ECACC4" stroke-width="2" stroke-linecap="round"/>
<path d="M72.6055 42.0103C72.6956 42.5509 73.5483 40.5494 73.6329 40.355C74.5715 38.1961 75.9589 36.1151 77.457 34.3049C80.519 30.605 85.2266 28.1607 89.1577 25.458C90.9435 24.2303 92.8628 23.1469 94.9796 22.6042C95.9062 22.3666 96.607 22.5495 97.3768 21.8622C97.8412 21.4475 101.311 19.1059 99.3174 20.4353" stroke="#ECACC4" stroke-width="2" stroke-linecap="round"/>
<path d="M76.7151 47.1449C76.7151 47.5054 76.4667 48.7201 76.9434 48.0581C78.0849 46.4727 79.4219 45.1737 80.9387 43.9486C85.2001 40.5067 88.4893 36.0963 93.5527 33.7889C95.9027 32.718 98.3199 31.4319 100.744 30.5926C101.413 30.3611 103.604 29.0477 101.886 30.1931" stroke="#ECACC4" stroke-width="2" stroke-linecap="round"/>
<path d="M85.4469 52.7971C84.9473 53.2513 81.7275 55.7636 83.4492 53.7959C86.6029 50.1917 89.5559 46.4905 93.4091 43.5792C96.6138 41.1578 99.8637 39.5011 103.426 37.7859C104.09 37.4664 108.211 35.0088 107.536 36.359" stroke="#ECACC4" stroke-width="2" stroke-linecap="round"/>
<path d="M81.3379 63.5847C81.615 66.0788 85.6515 60.967 87.5307 59.3039C91.5912 55.7106 96.5058 50.6847 101.886 48.973C104.967 47.9925 107.522 47.8506 109.591 45.0918" stroke="#ECACC4" stroke-width="2" stroke-linecap="round"/>
<path d="M86.4746 70.7761C83.2787 70.7761 89.4204 66.4121 90.2988 65.7533C92.7906 63.8845 95.8043 62.68 98.0612 60.5023C100.07 58.5641 101.556 56.729 104.225 55.5937C107.905 54.0288 119.753 52.2832 115.755 52.2832" stroke="#ECACC4" stroke-width="2" stroke-linecap="round"/>
</svg>
