<svg preserveAspectRatio="xMidYMid meet" viewBox="0 0 131 122" fill="none" xmlns="http://www.w3.org/2000/svg">
<path d="M20.51 12.8533C20.0294 13.4049 20.1413 14.1199 20.1397 14.8073C20.1374 15.7432 19.9231 16.6093 19.6843 17.5088C19.251 19.1412 19.0492 20.8005 18.816 22.4698C18.4596 25.0205 18.2754 27.5934 17.9178 30.1529C17.5912 32.4903 17.5926 34.6037 17.6305 36.9476C17.662 38.8884 17.4253 40.8031 17.3974 42.7277C17.38 43.9329 17.5005 44.1388 18.6411 44.4884C21.3987 45.3338 24.118 46.2227 26.9289 46.9121C29.5842 47.5633 32.397 48.4318 35.1568 48.5095C36.8939 48.5584 38.6055 48.877 39.3074 47.0253C39.6017 46.2488 39.6774 45.3718 39.9135 44.5688C40.1716 43.6907 40.6004 42.8419 40.9816 42.0113C41.547 40.7793 42.4566 40.6304 43.5961 40.7896C44.4377 40.9071 45.274 40.807 46.1217 40.8309C47.2146 40.8616 48.2774 41.0962 49.3736 41.1099C51.89 41.1414 54.4191 41.893 56.9247 42.1162C58.4034 42.248 59.8758 42.0697 61.3611 42.2103C62.8863 42.3547 64.4268 42.3671 65.9522 42.5207C68.9997 42.8276 72.0401 43.3615 75.0737 43.7854C77.1838 44.0802 79.508 44.5383 81.5392 45.1755C83.1642 45.6852 84.6485 46.3307 85.9671 47.4201C86.8506 48.1499 88.4235 49.4832 88.7535 50.6134C89.2169 52.201 89.6905 53.5625 89.8531 55.2166C90.0606 57.3259 89.8793 59.4896 89.5864 61.5858C89.2455 64.0257 89.4637 66.6329 88.8593 69.0201C87.7512 73.3968 86.7567 77.8192 85.4891 82.1315C85.1301 83.3529 84.8226 84.6921 84.7864 85.9765C84.7583 86.9731 84.9306 88.548 84.2583 89.4078C83.9095 89.8539 82.9409 90.0344 82.4139 90.0653C81.0129 90.1475 79.595 90.216 78.1923 90.1765C75.3766 90.0972 72.648 89.5382 69.8747 89.1508C66.9869 88.7473 63.8634 88.4171 61.0902 87.4951C57.9582 86.4537 54.3156 85.911 51.0329 85.681C49.3604 85.5638 47.6542 85.4934 46.0532 84.9463C44.7465 84.4998 43.3574 84.0579 42.0183 83.7205C38.8378 82.9191 35.5354 83.1263 32.3207 82.6772C26.5155 81.8661 20.6157 81.831 14.7911 81.1044C12.3956 80.8055 9.98663 80.6084 7.58555 80.2729C6.54451 80.1275 5.03633 79.6167 4.00321 79.8503C3.35754 79.9963 3.52668 80.7691 3.55477 81.2481C3.67571 83.3102 3.81276 85.2863 3.75093 87.3704C3.68797 89.4924 3.34356 91.8193 3.05107 93.9128C2.74087 96.1331 1.73667 98.3022 1.68468 100.557C1.66194 101.543 1.61137 102.002 2.15535 102.833C2.79933 103.816 3.72597 104.556 4.65706 105.276C5.93848 106.266 7.45269 106.35 9.01126 106.585C10.9521 106.877 12.8432 107.458 14.7887 107.743C19.0405 108.364 23.2498 108.876 27.5432 109.067C32.7055 109.296 37.9165 108.996 43.0663 109.6C48.7238 110.264 54.2587 111.505 59.8943 112.292C64.6249 112.953 69.2086 114.041 73.9847 114.299C78.6411 114.552 83.2577 115.717 87.896 116.194C92.3651 116.654 97.0024 116.347 101.387 117.476C104.282 118.221 107.212 118.557 110.065 119.477C112.392 120.227 115.217 121.12 115.724 117.853C116.376 113.656 117.241 109.508 117.828 105.304C118.166 102.886 118.809 100.344 118.659 97.8943C118.511 95.4693 118.4 93.1302 118.65 90.7077C119.125 86.1242 119.845 81.5686 119.958 76.9578C120.018 74.5081 120.561 71.6496 121.788 69.5023C122.717 67.8784 123.331 66.4355 123.51 64.5632C123.686 62.7277 123.054 60.9693 122.962 59.151C122.856 57.0417 122.977 54.8289 123.245 52.7354C123.672 49.403 124.815 46.1366 124.812 42.7702C124.81 39.9885 125.087 36.2634 122.566 34.385C121.486 33.5798 120.819 32.3547 119.955 31.3329C119.018 30.2251 117.917 29.1277 116.846 28.1528C115.379 26.818 114.204 25.2684 112.617 24.0666C110.771 22.6691 108.791 21.6006 106.616 20.8136C97.8287 17.6346 87.9361 18.3348 78.7433 17.6595C69.6382 16.9905 60.4954 15.9543 51.5647 13.9986C47.5858 13.1272 43.8625 12.1118 39.7651 11.9021C37.722 11.7976 35.7198 11.4551 33.6917 11.1899C31.6599 10.9242 29.589 10.9672 27.5604 10.6838C25.644 10.416 22.8703 9.96421 21.4757 11.5862C21.1337 11.984 18.8304 13.8454 20.3419 14.0566" stroke="#292828" stroke-width="2" stroke-linecap="round"/>
<path d="M33.2671 10.6053C32.0393 10.4337 32.3553 8.83658 32.6342 7.88803C32.8932 7.00662 32.4709 6.20005 32.7818 5.36749C33.1326 4.42835 35.9969 5.52023 36.4959 5.61377C39.266 6.133 42.1111 6.12172 44.8848 6.75659C46.1767 7.05232 47.5175 6.65877 48.8287 6.8208C49.8057 6.94152 50.6886 7.04 51.6707 6.82841C53.0973 6.52102 54.6787 6.58659 56.1353 6.7901C57.088 6.92321 56.4247 8.14528 56.2135 8.73856C55.6624 10.2873 55.0533 12.0102 55.8098 13.5795" stroke="#292828" stroke-width="2" stroke-linecap="round"/>
<path d="M103.498 19.7159C104.299 18.7131 103.976 17.2166 104.193 15.9964C104.284 15.4836 104.322 16.3267 104.298 16.4979" stroke="#292828" stroke-width="2" stroke-linecap="round"/>
<path d="M103.359 38.2737C102.448 38.0682 102.247 37.984 101.617 38.7509C100.985 39.521 100.32 40.3189 99.721 41.105C98.5538 42.6366 98.0106 44.2454 98.9781 46.0739C100.57 49.0828 102.928 52.5101 106.805 51.2372C108.969 50.5269 110.725 49.279 111.512 47.0266C112.223 44.9933 112.941 42.1264 111.256 40.4285C109.426 38.5853 107.04 38.6322 104.746 38.3117C103.815 38.1817 102.945 39.1628 101.993 39.2707C101.069 39.3754 100.638 40.185 100.52 41.0316" stroke="#292828" stroke-width="2" stroke-linecap="round"/>
<path d="M104.9 52.3328C105.008 51.5619 104.859 53.9026 104.663 54.6559C104.615 54.8413 104.106 56.5002 104.591 55.7948" stroke="#292828" stroke-width="2" stroke-linecap="round"/>
<path d="M22.707 48.5619C23.045 47.1145 22.9079 49.6321 22.8586 49.9851C22.7865 50.5016 22.2253 52.21 22.5179 52.7026C22.7098 53.0258 23.1358 53.0485 23.4871 53.0133C24.5186 52.91 25.5232 52.902 26.5645 52.8688C27.4912 52.8392 28.429 53.0417 29.3459 53.1698C29.7106 53.2207 29.9775 53.4333 30.3438 53.4844C30.7923 53.5471 30.8486 53.2945 30.4297 53.4964" stroke="#292828" stroke-width="2" stroke-linecap="round"/>
<path d="M31.0034 48.1426C30.8635 49.7606 30.45 54.6122 30.6748 53.0038" stroke="#292828" stroke-width="2" stroke-linecap="round"/>
<path d="M23.0468 47.3824C23.1703 46.4991 22.9489 47.2372 22.8378 47.694C22.7206 48.1762 22.7785 48.6211 22.8067 49.1014" stroke="#292828" stroke-width="2" stroke-linecap="round"/>
<path d="M26.1877 55.0067C26.31 54.5528 26.7877 53.2207 26.6115 54.4817C26.4176 55.8696 26.2237 57.2576 26.0298 58.6455C25.7843 60.4027 25.5388 62.1599 25.2933 63.917C25.0256 65.8334 24.2223 71.5824 24.4901 69.6661" stroke="#292828" stroke-width="2" stroke-linecap="round"/>
<path d="M5.35275 79.9605C5.74917 78.0172 6.23822 76.1315 6.5131 74.164C6.53316 74.0204 6.66425 72.2556 6.91533 72.8181C7.17964 73.4103 9.2025 73.5857 9.75671 73.5267C10.6827 73.428 11.2875 73.2661 12.2682 73.3908C13.6898 73.5715 15.108 73.437 16.5373 73.6367C18.9855 73.9787 21.5059 74.3691 23.9322 74.8549C26.1265 75.2941 28.2461 75.5828 30.4739 75.7688C31.6637 75.8682 32.8447 75.9614 34.0341 76.0715C35.2491 76.184 36.5861 75.9467 37.7537 76.3478C38.7232 76.6808 39.4686 76.9364 40.4945 76.7307C41.3454 76.5601 40.844 77.227 40.6405 77.6371C39.9915 78.9452 39.6446 80.3747 39.4438 81.8123C39.3813 82.2595 39.3245 83.9205 39.5049 82.6289" stroke="#292828" stroke-width="2" stroke-linecap="round"/>
<path d="M2.26288 97.0548C3.78685 96.3512 6.2355 97.3303 7.79853 97.6432C8.69743 97.8231 9.65121 97.8148 10.5327 98.0739C11.624 98.3947 12.5867 98.6801 13.7365 98.6967C14.7279 98.7111 15.7081 98.976 16.6941 99.0613C17.8336 99.1598 18.963 99.0375 20.1024 99.1967C22.4291 99.5217 24.7686 99.7002 27.0883 99.9974C31.7514 100.595 36.316 102.026 41.0458 102.259C42.3794 102.325 43.4498 102.73 44.7327 102.979C46.1159 103.247 47.5663 103.209 48.9669 103.405C51.7782 103.797 54.5937 104.016 57.4044 104.408C60.1305 104.789 63.036 105.332 65.7895 105.229C68.3226 105.135 70.9227 105.946 73.4294 106.297C78.7149 107.035 83.9609 107.943 89.2392 108.681C92.2377 109.1 95.2459 109.345 98.2401 109.763C100.935 110.14 103.548 110.718 106.215 111.218C107.334 111.428 108.423 111.711 109.552 111.869C110.527 112.005 111.51 112.419 112.493 112.416C113.538 112.413 115.565 112.604 116.524 112.142" stroke="#292828" stroke-width="2" stroke-linecap="round"/>
<path d="M97.6872 77.6136C97.7309 78.0234 104.526 77.4633 105.256 77.6585C106.572 78.0104 107.643 77.6307 108.919 77.7808C109.219 77.8161 111.246 78.2812 110.404 78.1636" stroke="#292828" stroke-width="2" stroke-linecap="round"/>
<path d="M96.3391 86.0129C98.3673 85.9848 100.348 85.7622 102.38 85.8442C103.771 85.9004 105.079 86.0112 106.483 85.9502C107.526 85.905 108.313 86.2838 109.252 86.4149" stroke="#292828" stroke-width="2" stroke-linecap="round"/>
<path d="M20.6487 11.8631C20.1681 12.4147 20.28 13.1297 20.2783 13.817C20.2761 14.7529 20.0617 15.6191 19.823 16.5185C19.3897 18.151 19.1879 19.8103 18.9546 21.4796C18.5983 24.0302 18.414 26.6032 18.0565 29.1626C17.7299 31.5001 17.7313 33.6134 17.7692 35.9574C17.8006 37.8982 17.5639 39.8129 17.5361 41.7374C17.5187 42.9427 17.6392 43.1485 18.7798 43.4982C21.5374 44.3436 24.2566 45.2325 27.0675 45.9218C29.7229 46.5731 32.5357 47.4415 35.2955 47.5192C37.0326 47.5682 38.7442 47.8868 39.4461 46.035C39.7404 45.2585 39.8161 44.3816 40.0522 43.5785C40.3103 42.7005 40.739 41.8516 41.1202 41.0211C41.6857 39.7891 42.5953 39.6401 43.7347 39.7993C44.5763 39.9169 45.4126 39.8167 46.2604 39.8406C47.3532 39.8714 48.416 40.106 49.5123 40.1197C52.0286 40.1512 54.5577 40.9028 57.0634 41.126C58.5421 41.2577 60.0144 41.0794 61.4998 41.2201C63.0249 41.3645 64.5655 41.3768 66.0909 41.5305C69.1384 41.8374 72.1788 42.3713 75.2124 42.7951C77.3225 43.0899 79.6467 43.5481 81.6778 44.1852C83.3028 44.695 84.7872 45.3405 86.1058 46.4299C86.9893 47.1597 88.5622 48.493 88.8921 49.6232C89.3556 51.2108 89.8291 52.5722 89.9918 54.2263C90.1993 56.3357 90.0179 58.4993 89.7251 60.5956C89.3842 63.0355 89.6023 65.6427 88.998 68.0299C87.8899 72.4065 86.8954 76.829 85.6278 81.1412C85.2688 82.3627 84.9613 83.7019 84.9251 84.9863C84.897 85.9829 85.0693 87.5577 84.397 88.4176C84.0482 88.8636 83.0796 89.0442 82.5526 89.0751C81.1515 89.1573 79.7337 89.2258 78.331 89.1863C75.5152 89.107 72.7867 88.548 70.0134 88.1605C67.1255 87.7571 64.0021 87.4268 61.2289 86.5048C58.0968 85.4635 54.4543 84.9208 51.1716 84.6908C49.499 84.5736 47.7929 84.5031 46.1919 83.9561C44.8852 83.5096 43.496 83.0677 42.157 82.7303C38.9765 81.9289 35.6741 82.1361 32.4594 81.687C26.6542 80.8759 20.7544 80.8407 14.9298 80.1141C12.5343 79.8153 10.1253 79.6181 7.72422 79.2827C6.68318 79.1372 5.175 78.6264 4.14188 78.8601C3.49621 79.0061 3.66535 79.7788 3.69345 80.2579C3.81439 82.32 3.95143 84.2961 3.8896 86.3802C3.82664 88.5022 3.48223 90.8291 3.18974 92.9226C2.87954 95.1429 1.87534 97.3119 1.82335 99.5666C1.80061 100.553 1.75004 101.012 2.29402 101.843C2.938 102.825 3.86465 103.566 4.79573 104.285C6.07715 105.276 7.59137 105.36 9.14993 105.595C11.0908 105.887 12.9819 106.468 14.9273 106.752C19.1792 107.374 23.3885 107.886 27.6819 108.077C32.8442 108.306 38.0552 108.005 43.205 108.61C48.8625 109.274 54.3974 110.514 60.033 111.302C64.7635 111.963 69.3472 113.051 74.1234 113.309C78.7797 113.561 83.3964 114.727 88.0347 115.204C92.5038 115.664 97.141 115.357 101.526 116.485C104.42 117.231 107.35 117.567 110.203 118.486C112.531 119.237 115.356 120.13 115.863 116.863C116.514 112.666 117.379 108.518 117.967 104.314C118.305 101.896 118.947 99.354 118.798 96.9041C118.649 94.479 118.538 92.14 118.789 89.7175C119.263 85.134 119.983 80.5784 120.097 75.9675C120.157 73.5178 120.699 70.6594 121.927 68.5121C122.855 66.8881 123.47 65.4452 123.649 63.5729C123.825 61.7375 123.192 59.9791 123.101 58.1608C122.994 56.0514 123.115 53.8386 123.384 51.7451C123.811 48.4127 124.954 45.1464 124.951 41.7799C124.949 38.9982 125.226 35.2732 122.705 33.3947C121.625 32.5895 120.958 31.3645 120.094 30.3427C119.157 29.2349 118.056 28.1374 116.984 27.1626C115.517 25.8278 114.342 24.2782 112.755 23.0764C110.91 21.6788 108.93 20.6103 106.755 19.8234C97.9673 16.6444 88.0748 17.3446 78.882 16.6692C69.7769 16.0003 60.6341 14.9641 51.7034 13.0083C47.7244 12.137 44.0012 11.1216 39.9037 10.9119C37.8607 10.8073 35.8584 10.4649 33.8304 10.1997C31.7985 9.93395 29.7277 9.97698 27.6991 9.69356C25.7827 9.42582 23.009 8.97397 21.6144 10.596C21.2724 10.9937 18.9691 12.8552 20.4806 13.0664" stroke="#ECACC4" stroke-width="2" stroke-linecap="round"/>
<path d="M33.4058 9.61504C32.178 9.4435 32.494 7.84635 32.7728 6.8978C33.0319 6.01638 32.6095 5.20982 32.9205 4.37725C33.2713 3.43812 36.1355 4.53 36.6346 4.62354C39.4046 5.14277 42.2498 5.13149 45.0234 5.76636C46.3154 6.06209 47.6561 5.66854 48.9674 5.83057C49.9443 5.95128 50.8273 6.04977 51.8093 5.83817C53.236 5.53079 54.8174 5.59636 56.2739 5.79986C57.2267 5.93298 56.5633 7.15505 56.3522 7.74833C55.8011 9.29711 55.192 11.02 55.9485 12.5893" stroke="#ECACC4" stroke-width="2" stroke-linecap="round"/>
<path d="M103.637 18.7257C104.437 17.7229 104.115 16.2264 104.332 15.0061C104.423 14.4933 104.461 15.3364 104.437 15.5077" stroke="#ECACC4" stroke-width="2" stroke-linecap="round"/>
<path d="M103.497 37.2835C102.587 37.078 102.386 36.9938 101.756 37.7607C101.124 38.5308 100.459 39.3287 99.8596 40.1148C98.6924 41.6463 98.1493 43.2551 99.1167 45.0836C100.709 48.0925 103.067 51.5199 106.944 50.247C109.107 49.5366 110.863 48.2887 111.651 46.0364C112.361 44.0031 113.079 41.1361 111.394 39.4383C109.565 37.595 107.178 37.642 104.884 37.3215C103.954 37.1915 103.083 38.1725 102.131 38.2804C101.207 38.3852 100.777 39.1947 100.659 40.0414" stroke="#ECACC4" stroke-width="2" stroke-linecap="round"/>
<path d="M105.039 51.3426C105.146 50.5717 104.998 52.9123 104.802 53.6656C104.753 53.8511 104.245 55.5099 104.73 54.8045" stroke="#ECACC4" stroke-width="2" stroke-linecap="round"/>
<path d="M22.8456 47.5717C23.1837 46.1243 23.0466 48.6418 22.9973 48.9949C22.9251 49.5114 22.364 51.2197 22.6566 51.7124C22.8485 52.0355 23.2745 52.0582 23.6257 52.0231C24.6573 51.9198 25.6618 51.9118 26.7031 51.8786C27.6299 51.849 28.5677 52.0514 29.4846 52.1795C29.8493 52.2305 30.1162 52.443 30.4824 52.4942C30.931 52.5569 30.9873 52.3043 30.5684 52.5062" stroke="#ECACC4" stroke-width="2" stroke-linecap="round"/>
<path d="M31.1421 47.1523C31.0022 48.7704 30.5887 53.622 30.8134 52.0135" stroke="#ECACC4" stroke-width="2" stroke-linecap="round"/>
<path d="M23.1855 46.3922C23.3089 45.5088 23.0875 46.2469 22.9765 46.7038C22.8592 47.186 22.9172 47.6309 22.9454 48.1112" stroke="#ECACC4" stroke-width="2" stroke-linecap="round"/>
<path d="M26.3264 54.0164C26.4486 53.5626 26.9264 52.2305 26.7502 53.4915C26.5563 54.8794 26.3624 56.2673 26.1685 57.6552C25.923 59.4124 25.6775 61.1696 25.432 62.9268C25.1642 64.8432 24.361 70.5922 24.6288 68.6759" stroke="#ECACC4" stroke-width="2" stroke-linecap="round"/>
<path d="M5.49142 78.9703C5.88784 77.0269 6.37689 75.1412 6.65177 73.1737C6.67183 73.0302 6.80292 71.2653 7.054 71.8279C7.31831 72.4201 9.34118 72.5955 9.89538 72.5364C10.8214 72.4378 11.4262 72.2758 12.4069 72.4005C13.8284 72.5813 15.2467 72.4468 16.676 72.6465C19.1242 72.9885 21.6445 73.3789 24.0709 73.8646C26.2652 74.3039 28.3848 74.5925 30.6126 74.7786C31.8023 74.8779 32.9834 74.9711 34.1728 75.0812C35.3878 75.1938 36.7247 74.9564 37.8924 75.3575C38.8619 75.6905 39.6073 75.9461 40.6332 75.7404C41.4841 75.5699 40.9826 76.2368 40.7792 76.6468C40.1302 77.9549 39.7833 79.3844 39.5825 80.8221C39.52 81.2693 39.4632 82.9303 39.6436 81.6387" stroke="#ECACC4" stroke-width="2" stroke-linecap="round"/>
<path d="M2.40155 96.0645C3.92552 95.3609 6.37417 96.3401 7.9372 96.6529C8.8361 96.8329 9.78988 96.8245 10.6714 97.0836C11.7627 97.4044 12.7254 97.6899 13.8752 97.7065C14.8665 97.7208 15.8468 97.9858 16.8328 98.071C17.9723 98.1695 19.1017 98.0472 20.2411 98.2064C22.5678 98.5315 24.9073 98.7099 27.227 99.0072C31.8901 99.6048 36.4547 101.036 41.1845 101.269C42.518 101.334 43.5885 101.74 44.8714 101.988C46.2545 102.256 47.705 102.219 49.1056 102.414C51.9169 102.807 54.7324 103.025 57.5431 103.418C60.2691 103.799 63.1746 104.341 65.9282 104.239C68.4613 104.145 71.0614 104.956 73.5681 105.306C78.8535 106.045 84.0995 106.953 89.3778 107.69C92.3764 108.109 95.3845 108.354 98.3788 108.773C101.074 109.149 103.686 109.728 106.354 110.228C107.472 110.437 108.561 110.721 109.69 110.879C110.666 111.015 111.649 111.429 112.632 111.426C113.676 111.423 115.704 111.614 116.662 111.152" stroke="#ECACC4" stroke-width="2" stroke-linecap="round"/>
<path d="M97.8259 76.6234C97.8696 77.0331 104.665 76.4731 105.395 76.6683C106.71 77.0201 107.781 76.6405 109.058 76.7906C109.358 76.8259 111.385 77.291 110.543 77.1733" stroke="#ECACC4" stroke-width="2" stroke-linecap="round"/>
<path d="M96.4778 85.0226C98.506 84.9946 100.487 84.7719 102.518 84.854C103.91 84.9102 105.217 85.0209 106.622 84.96C107.664 84.9148 108.452 85.2936 109.39 85.4247" stroke="#ECACC4" stroke-width="2" stroke-linecap="round"/>
</svg>
