<svg preserveAspectRatio="xMidYMid meet" viewBox="0 0 107 142" fill="none" xmlns="http://www.w3.org/2000/svg">
<path d="M30.1695 36.0313C28.2981 36.0312 26.7218 38.754 25.1863 39.6639C22.8416 41.0534 21.0606 43.0807 18.9338 44.7821C17.929 45.5859 17.3215 46.3901 16.557 47.4019C15.7253 48.5028 14.6838 49.396 13.8832 50.5079C12.1171 52.9608 11.1714 55.899 9.50776 58.3945C7.56705 61.3056 6.31049 64.1776 5.25388 67.51C4.23921 70.7101 2.60175 73.6378 1.72924 76.9225C1.03682 79.5293 1 82.6871 1 85.3763C1 88.4288 1.02019 91.4422 1.22957 94.4782C1.65054 100.582 4.18407 105.768 7.32005 110.9C8.3222 112.539 9.86607 113.603 10.9662 115.153C12.0137 116.629 13.2456 117.807 14.4234 119.164C16.9476 122.073 20.3726 123.883 23.6198 125.849C28.8748 129.03 34.5986 128.84 40.3923 128.158C42.525 127.907 43.4207 127.139 44.7542 125.727C45.2054 125.25 47.5719 123.684 47.4281 123.54" stroke="#292828" stroke-width="2" stroke-linecap="round"/>
<path d="M50.832 117.706C50.9032 117.136 51.9882 116.257 52.3445 115.761C52.8308 115.084 53.0822 114.143 53.2628 113.33C53.4599 112.443 53.5961 111.295 54.2351 110.656" stroke="#292828" stroke-width="2" stroke-linecap="round"/>
<path d="M57.1516 99.9609C56.8332 99.9609 57.4965 99.4255 57.6783 99.1642C58.1807 98.4419 58.6575 97.7066 59.0827 96.936C59.5427 96.1022 59.8798 95.3069 60.5547 94.6132C61.5379 93.6027 62.7951 92.3733 64.2009 91.9933C67.4442 91.1168 70.7144 91.5112 73.9781 92.2364C75.2209 92.5126 75.9901 93.4949 76.841 94.3701C77.8447 95.4025 78.1151 96.9517 79.3258 97.7732C81.4099 99.1875 83.8012 99.9609 86.3211 99.9609C92.328 99.9609 95.5186 94.9856 98.9612 90.778C100.079 89.4116 101.39 88.4049 102.364 86.8887C102.72 86.3349 102.726 85.6756 103.094 85.0791C104.409 82.9417 105.247 79.5696 105.281 77.1115C105.337 73.08 105.281 69.0437 105.281 65.0116C105.281 61.5774 105.445 57.7946 104.309 54.5052C102.931 50.5156 100.482 47.0985 97.5567 44.1068C95.0187 41.5111 91.8621 39.7326 89.238 37.2466C87.9084 35.987 86.2427 34.9908 84.8086 33.8435C83.2849 32.6245 81.3359 32.3033 79.7579 31.2236C77.3428 29.5712 73.3303 29.0455 70.4669 28.9819C67.9502 28.926 65.6582 28.8234 63.2286 28.1987C61.6488 27.7924 59.9828 27.5234 58.367 27.5234" stroke="#292828" stroke-width="2" stroke-linecap="round"/>
<path d="M37.7051 31.8994C37.8306 30.7694 43.488 29.8437 44.5113 29.6576C45.9632 29.3937 50.3624 28.9824 48.8867 28.9824" stroke="#292828" stroke-width="2" stroke-linecap="round"/>
<path d="M69.791 36.5172C65.6362 33.7099 61.953 37.8507 62.5526 42.108C62.7668 43.629 64.1255 45.4142 64.9834 46.6725C66.0195 48.192 69.1892 47.2808 70.7633 47.5098C72.7045 47.7921 74.5277 47.2833 76.057 45.9973C77.5878 44.71 77.187 41.6518 76.7862 39.9743C75.7196 35.5103 70.3189 35.6254 66.874 37.0034" stroke="#292828" stroke-width="2" stroke-linecap="round"/>
<path d="M88.7514 51.1013C87.6019 50.1818 86.3263 49.5175 85.0917 50.5206C83.2251 52.0372 82.0721 55.1937 82.5934 57.5159C83.4096 61.1517 87.8618 65.879 91.9114 64.4167C93.539 63.8289 95.7836 62.8188 96.3949 61.0406C97.1196 58.9323 97.1797 55.2352 95.5171 53.5726C94.3464 52.4019 91.3309 51.1423 89.6697 50.9123C87.5113 50.6134 85.7924 51.8895 84.6191 53.5321" stroke="#292828" stroke-width="2" stroke-linecap="round"/>
<path d="M80.2433 71.0348C77.137 70.3445 75.3468 72.9989 73.6802 75.0591C72.3581 76.6933 70.6116 78.0323 71.533 80.3933C72.8655 83.8078 78.6956 86.511 82.1339 85.3224C85.64 84.1104 88.3808 78.0836 86.5093 74.6809C85.3601 72.5915 82.4294 69.9004 79.9192 69.9004C77.9058 69.9004 76.0755 72.576 75.3817 74.1948" stroke="#292828" stroke-width="2" stroke-linecap="round"/>
<path d="M27.2523 101.906C24.7862 102.487 22.5062 102.265 20.149 103.419C18.0227 104.46 17.043 106.614 17.043 108.902C17.043 114.406 21.695 116.364 26.523 116.68C28.6969 116.822 31.213 116.168 32.1139 113.952C32.9395 111.922 33.2358 108.604 31.8708 106.768C30.3747 104.755 27.6155 102.97 25.1186 102.69C24.2713 102.594 22.7281 102.352 22.3907 103.365" stroke="#292828" stroke-width="2" stroke-linecap="round"/>
<path d="M12.9106 81.0009C11.7607 80.1796 10.7812 80.3201 9.9396 81.406C8.46817 83.3047 6.64453 86.1613 6.64453 88.6444C6.64453 93.0817 12.4927 95.5014 16.1516 94.1002C20.4121 92.4685 20.292 85.4482 18.4474 82.1893C16.7715 79.2285 11.1875 79.6501 10.4798 83.1886" stroke="#292828" stroke-width="2" stroke-linecap="round"/>
<path d="M23.121 56.4502C21.562 56.2275 21.0811 55.9366 19.6099 56.6933C17.4935 57.7817 16.0353 59.7584 15.8827 62.149C15.5711 67.0308 19.0457 71.4698 24.0933 69.2794C28.8341 67.222 28.7311 60.637 27.1993 56.4502C25.4354 51.6289 21.009 55.0833 19.4748 58.1517" stroke="#292828" stroke-width="2" stroke-linecap="round"/>
<path d="M19.7168 5.16016C19.7082 5.16445 23.2027 10.6133 23.5926 11.2371C25.0171 13.5164 25.9554 15.787 26.8876 18.2729C27.3471 19.4982 27.868 21.1252 28.7647 22.1217C29.0714 22.4624 29.44 24.509 29.44 23.6341" stroke="#292828" stroke-width="2" stroke-linecap="round"/>
<path d="M19.4746 4.91695C23.4453 4.38752 27.245 2 31.3315 2C32.3187 2 32.179 2.42138 31.9932 3.35044C31.6518 5.05706 32.1147 7.05572 32.1147 8.80621C32.1147 10.4321 32.3578 12.0319 32.3578 13.6678C32.3578 14.8312 32.3959 16.3452 32.7359 17.4625C33.0501 18.4949 33.3301 19.742 33.3301 20.8251C33.3301 21.3329 33.7632 22.5821 33.3301 21.9325" stroke="#292828" stroke-width="2" stroke-linecap="round"/>
<path d="M28.9541 22.9048C30.6117 22.9048 31.8969 23.027 33.3565 22.2972C33.7005 22.1252 35.4836 21.8989 35.2742 21.6895" stroke="#292828" stroke-width="2" stroke-linecap="round"/>
<path d="M29.1973 23.6343C29.0945 24.4567 30.0217 24.7017 30.7773 25.4573C31.5223 26.2024 32.2512 26.6124 32.9785 27.1319C33.3398 27.39 34.4604 22.8312 34.7881 22.1758" stroke="#292828" stroke-width="2" stroke-linecap="round"/>
<path d="M27.7383 23.3906C27.7383 24.5854 28.975 25.9261 29.3858 27.0368C30.1572 29.1223 30.8457 31.3373 31.506 33.4649C32.3066 36.0445 32.4822 38.7698 33.2751 41.3244C33.6418 42.5061 33.593 43.6722 34.0583 44.8356C34.574 46.1247 35.0169 47.4279 35.6383 48.6708C36.1644 49.7229 36.7442 50.9052 36.9753 52.0604C37.1419 52.8936 37.7045 53.3722 37.7045 54.2616" stroke="#292828" stroke-width="2" stroke-linecap="round"/>
<path d="M34.3018 23.8764C34.8316 22.9345 34.9124 24.0928 35.166 24.6462C35.7073 25.8271 35.9652 27.1236 36.3544 28.3599C37.194 31.0269 37.5812 33.8576 38.4341 36.5165C39.1078 38.6168 39.8421 40.7102 40.4327 42.8366C40.6975 43.7896 41.3765 44.5936 41.7022 45.5239C42.0038 46.3859 41.9188 47.3518 42.2693 48.1843C43.4899 51.083 43.6274 54.4928 44.7541 57.4753C45.7779 60.1853 46.4896 62.9759 47.482 65.686C48.6435 68.8577 49.052 72.2012 50.1019 75.4091C50.5632 76.8187 51.3741 78.0516 51.5604 79.5415C51.882 82.1143 53.2567 84.9159 54.2342 87.32C55.8931 91.3998 57.8577 95.5092 58.5556 99.9061C59.0207 102.836 59.7386 105.889 60.6623 108.711C61.5357 111.38 61.9439 114.046 62.5529 116.787C63.051 119.028 63.6907 121.206 64.1464 123.485C64.5985 125.745 64.4969 128.094 64.9837 130.345C65.3353 131.971 65.6252 133.58 66.0911 135.153C66.5496 136.7 67.3605 141.439 67.3605 139.825" stroke="#292828" stroke-width="2" stroke-linecap="round"/>
<path d="M36.4902 52.8047C36.5911 53.612 37.5013 54.8173 37.7596 55.7216C38.197 57.2524 38.653 58.8067 39.1641 60.3401C40.5771 64.5793 42.1248 68.5671 42.8238 72.9937C43.6042 77.9362 46.0345 82.5273 47.3072 87.3354C48.5189 91.9129 48.9241 96.7293 50.7779 101.123C52.5462 105.315 54.3102 109.479 56.1256 113.628C57.8764 117.63 58.8501 122.075 60.7981 125.971C62.3889 129.153 63.9571 132.241 65.1735 135.587C65.7522 137.178 66.8982 138.415 67.6043 139.827" stroke="#292828" stroke-width="2" stroke-linecap="round"/>
<path d="M38.1914 53.5329C39.2126 53.5329 42.0446 53.605 42.5668 52.5605" stroke="#292828" stroke-width="2" stroke-linecap="round"/>
<path d="M38.6777 55.4773C38.6777 55.7562 41.3542 54.8689 41.8378 54.748" stroke="#292828" stroke-width="2" stroke-linecap="round"/>
<path d="M41.5938 54.5046C42.0809 54.4234 42.8379 54.2041 43.0522 53.7754" stroke="#292828" stroke-width="2" stroke-linecap="round"/>
<path d="M50.831 30.9258C50.3107 32.6817 50.5536 34.7028 50.3449 36.5166C50.0715 38.8911 49.9616 41.3012 49.8452 43.6874C49.7294 46.0601 49.1295 48.5135 49.1295 50.8582C49.1295 52.7039 48.7084 54.6919 48.3462 56.5031C48.0585 57.9415 48.3714 59.4524 47.9141 60.8245" stroke="#292828" stroke-width="2" stroke-linecap="round"/>
<path d="M55.4499 31.8984C55.7618 36.5759 56.4223 41.184 56.4223 45.8755C56.4223 48.0088 56.5274 49.9787 56.9084 52.074C57.714 56.505 58.2476 60.652 57.4486 65.1462C56.8003 68.7928 56.5142 72.5901 55.9496 76.2603C55.7482 77.5692 55.4987 79.009 55.4499 80.3251C55.4178 81.192 55.1958 82.7185 54.7207 83.4312" stroke="#292828" stroke-width="2" stroke-linecap="round"/>
<path d="M47.6713 92.6685C47.6713 86.0284 47.9143 105.947 47.9143 112.588C47.9143 114.398 47.6819 116.151 47.4822 117.949C47.3071 119.525 47.6713 121.162 47.6713 122.756C47.6713 125.228 47.7274 127.688 47.6713 130.157C47.6407 131.501 47.7378 135.512 47.9279 134.181C48.5037 130.15 51.1579 127.127 52.1682 123.31C52.9588 120.323 53.5713 117.526 54.0453 114.492C54.2941 112.899 54.9636 111.042 54.9636 109.441" stroke="#292828" stroke-width="2" stroke-linecap="round"/>
<path d="M41.3518 38.2178C40.1685 38.2178 41.6705 37.7916 42.081 37.6776C43.5 37.2835 44.6658 36.8777 46.1864 37.0159C46.845 37.0758 46.9383 37.7316 47.5503 37.7316C47.996 37.7316 48.4416 37.7316 48.8872 37.7316" stroke="#292828" stroke-width="2" stroke-linecap="round"/>
<path d="M44.2676 50.1302C45.6863 50.1302 48.0841 49.3885 48.8861 48.1855" stroke="#292828" stroke-width="2" stroke-linecap="round"/>
<path d="M52.2891 29.4686C53.4167 29.3746 54.5611 28.9824 55.6922 28.9824C56.6649 28.9824 56.0895 29.3364 55.6922 29.7117C55.0624 30.3065 54.1908 29.9261 53.5045 29.4686" stroke="#292828" stroke-width="2" stroke-linecap="round"/>
<path d="M50.5879 29.7109H51.8033" stroke="#292828" stroke-width="2" stroke-linecap="round"/>
<path d="M51.5611 28.7382C50.8042 28.7382 50.9753 27.1972 50.7238 26.5505C50.3346 25.5499 49.5842 24.6638 49.3193 23.6336C48.6457 21.014 49.7647 18.9225 50.0891 16.3277C50.2829 14.7772 50.9339 13.0024 51.8582 11.7227C52.671 10.5972 53.7488 9.30395 53.7488 7.83345C53.7488 6.86894 54.2306 5.81408 53.9378 4.86249C53.8807 4.67689 53.0579 2.59375 53.3166 2.59375C54.0489 2.59375 55.7114 5.37738 56.166 5.88882C57.5375 7.43169 58.0395 9.49126 58.6103 11.4256C59.5497 14.609 60.4255 17.1423 60.0553 20.4735C59.8266 22.5323 58.968 24.6171 58.5968 26.6586C58.4143 27.6623 57.8476 28.9981 56.9088 29.4675" stroke="#292828" stroke-width="2" stroke-linecap="round"/>
<path d="M55.6934 29.2255C56.3942 29.2255 56.97 29.2051 57.638 28.9824" stroke="#292828" stroke-width="2" stroke-linecap="round"/>
<path d="M50.5879 55.2351C50.6849 56.0111 53.9868 55.2351 54.6662 55.2351C54.97 55.2351 56.7829 55.1761 56.1787 55.4782" stroke="#292828" stroke-width="2" stroke-linecap="round"/>
<path d="M30.1695 35.0313C28.2981 35.0312 26.7218 37.754 25.1863 38.6639C22.8416 40.0534 21.0606 42.0807 18.9338 43.7821C17.929 44.5859 17.3215 45.3901 16.557 46.4019C15.7253 47.5028 14.6838 48.396 13.8832 49.5079C12.1171 51.9608 11.1714 54.899 9.50776 57.3945C7.56705 60.3056 6.31049 63.1776 5.25388 66.51C4.23921 69.7101 2.60175 72.6378 1.72924 75.9225C1.03682 78.5293 1 81.6871 1 84.3763C1 87.4288 1.02019 90.4422 1.22957 93.4782C1.65054 99.5822 4.18407 104.768 7.32005 109.9C8.3222 111.539 9.86607 112.603 10.9662 114.153C12.0137 115.629 13.2456 116.807 14.4234 118.164C16.9476 121.073 20.3726 122.883 23.6198 124.849C28.8748 128.03 34.5986 127.84 40.3923 127.158C42.525 126.907 43.4207 126.139 44.7542 124.727C45.2054 124.25 47.5719 122.684 47.4281 122.54" stroke="#ECACC4" stroke-width="2" stroke-linecap="round"/>
<path d="M50.832 116.706C50.9032 116.136 51.9882 115.257 52.3445 114.761C52.8308 114.084 53.0822 113.143 53.2628 112.33C53.4599 111.443 53.5961 110.295 54.2351 109.656" stroke="#ECACC4" stroke-width="2" stroke-linecap="round"/>
<path d="M57.1516 98.9609C56.8332 98.9609 57.4965 98.4255 57.6783 98.1642C58.1807 97.4419 58.6575 96.7066 59.0827 95.936C59.5427 95.1022 59.8798 94.3069 60.5547 93.6132C61.5379 92.6027 62.7951 91.3733 64.2009 90.9933C67.4442 90.1168 70.7144 90.5112 73.9781 91.2364C75.2209 91.5126 75.9901 92.4949 76.841 93.3701C77.8447 94.4025 78.1151 95.9517 79.3258 96.7732C81.4099 98.1875 83.8012 98.9609 86.3211 98.9609C92.328 98.9609 95.5186 93.9856 98.9612 89.778C100.079 88.4116 101.39 87.4049 102.364 85.8887C102.72 85.3349 102.726 84.6756 103.094 84.0791C104.409 81.9417 105.247 78.5696 105.281 76.1115C105.337 72.08 105.281 68.0437 105.281 64.0116C105.281 60.5774 105.445 56.7946 104.309 53.5052C102.931 49.5156 100.482 46.0985 97.5567 43.1068C95.0187 40.5111 91.8621 38.7326 89.238 36.2466C87.9084 34.987 86.2427 33.9908 84.8086 32.8435C83.2849 31.6245 81.3359 31.3033 79.7579 30.2236C77.3428 28.5712 73.3303 28.0455 70.4669 27.9819C67.9502 27.926 65.6582 27.8234 63.2286 27.1987C61.6488 26.7924 59.9828 26.5234 58.367 26.5234" stroke="#ECACC4" stroke-width="2" stroke-linecap="round"/>
<path d="M37.7051 30.8994C37.8306 29.7694 43.488 28.8437 44.5113 28.6576C45.9632 28.3937 50.3624 27.9824 48.8867 27.9824" stroke="#ECACC4" stroke-width="2" stroke-linecap="round"/>
<path d="M69.791 35.5172C65.6362 32.7099 61.953 36.8507 62.5526 41.108C62.7668 42.629 64.1255 44.4142 64.9834 45.6725C66.0195 47.192 69.1892 46.2808 70.7633 46.5098C72.7045 46.7921 74.5277 46.2833 76.057 44.9973C77.5878 43.71 77.187 40.6518 76.7862 38.9743C75.7196 34.5103 70.3189 34.6254 66.874 36.0034" stroke="#ECACC4" stroke-width="2" stroke-linecap="round"/>
<path d="M88.7514 50.1013C87.6019 49.1818 86.3263 48.5175 85.0917 49.5206C83.2251 51.0372 82.0721 54.1937 82.5934 56.5159C83.4096 60.1517 87.8618 64.879 91.9114 63.4167C93.539 62.8289 95.7836 61.8188 96.3949 60.0406C97.1196 57.9323 97.1797 54.2352 95.5171 52.5726C94.3464 51.4019 91.3309 50.1423 89.6697 49.9123C87.5113 49.6134 85.7924 50.8895 84.6191 52.5321" stroke="#ECACC4" stroke-width="2" stroke-linecap="round"/>
<path d="M80.2433 70.0348C77.137 69.3445 75.3468 71.9989 73.6802 74.0591C72.3581 75.6933 70.6116 77.0323 71.533 79.3933C72.8655 82.8078 78.6956 85.511 82.1339 84.3224C85.64 83.1104 88.3808 77.0836 86.5093 73.6809C85.3601 71.5915 82.4294 68.9004 79.9192 68.9004C77.9058 68.9004 76.0755 71.576 75.3817 73.1948" stroke="#ECACC4" stroke-width="2" stroke-linecap="round"/>
<path d="M27.2523 100.906C24.7862 101.487 22.5062 101.265 20.149 102.419C18.0227 103.46 17.043 105.614 17.043 107.902C17.043 113.406 21.695 115.364 26.523 115.68C28.6969 115.822 31.213 115.168 32.1139 112.952C32.9395 110.922 33.2358 107.604 31.8708 105.768C30.3747 103.755 27.6155 101.97 25.1186 101.69C24.2713 101.594 22.7281 101.352 22.3907 102.365" stroke="#ECACC4" stroke-width="2" stroke-linecap="round"/>
<path d="M12.9106 80.0009C11.7607 79.1796 10.7812 79.3201 9.9396 80.406C8.46817 82.3047 6.64453 85.1613 6.64453 87.6444C6.64453 92.0817 12.4927 94.5014 16.1516 93.1002C20.4121 91.4685 20.292 84.4482 18.4474 81.1893C16.7715 78.2285 11.1875 78.6501 10.4798 82.1886" stroke="#ECACC4" stroke-width="2" stroke-linecap="round"/>
<path d="M23.121 55.4502C21.562 55.2275 21.0811 54.9366 19.6099 55.6933C17.4935 56.7817 16.0353 58.7584 15.8827 61.149C15.5711 66.0308 19.0457 70.4698 24.0933 68.2794C28.8341 66.222 28.7311 59.637 27.1993 55.4502C25.4354 50.6289 21.009 54.0833 19.4748 57.1517" stroke="#ECACC4" stroke-width="2" stroke-linecap="round"/>
<path d="M19.7168 4.16016C19.7082 4.16445 23.2027 9.61332 23.5926 10.2371C25.0171 12.5164 25.9554 14.787 26.8876 17.2729C27.3471 18.4982 27.868 20.1252 28.7647 21.1217C29.0714 21.4624 29.44 23.509 29.44 22.6341" stroke="#ECACC4" stroke-width="2" stroke-linecap="round"/>
<path d="M19.4746 3.91695C23.4453 3.38752 27.245 1 31.3315 1C32.3187 1 32.179 1.42138 31.9932 2.35044C31.6518 4.05706 32.1147 6.05572 32.1147 7.80621C32.1147 9.43208 32.3578 11.0319 32.3578 12.6678C32.3578 13.8312 32.3959 15.3452 32.7359 16.4625C33.0501 17.4949 33.3301 18.742 33.3301 19.8251C33.3301 20.3329 33.7632 21.5821 33.3301 20.9325" stroke="#ECACC4" stroke-width="2" stroke-linecap="round"/>
<path d="M28.9541 21.9048C30.6117 21.9048 31.8969 22.027 33.3565 21.2972C33.7005 21.1252 35.4836 20.8989 35.2742 20.6895" stroke="#ECACC4" stroke-width="2" stroke-linecap="round"/>
<path d="M29.1973 22.6343C29.0945 23.4567 30.0217 23.7017 30.7773 24.4573C31.5223 25.2024 32.2512 25.6124 32.9785 26.1319C33.3398 26.39 34.4604 21.8312 34.7881 21.1758" stroke="#ECACC4" stroke-width="2" stroke-linecap="round"/>
<path d="M27.7383 22.3906C27.7383 23.5854 28.975 24.9261 29.3858 26.0368C30.1572 28.1223 30.8457 30.3373 31.506 32.4649C32.3066 35.0445 32.4822 37.7698 33.2751 40.3244C33.6418 41.5061 33.593 42.6722 34.0583 43.8356C34.574 45.1247 35.0169 46.4279 35.6383 47.6708C36.1644 48.7229 36.7442 49.9052 36.9753 51.0604C37.1419 51.8936 37.7045 52.3722 37.7045 53.2616" stroke="#ECACC4" stroke-width="2" stroke-linecap="round"/>
<path d="M34.3018 22.8764C34.8316 21.9345 34.9124 23.0928 35.166 23.6462C35.7073 24.8271 35.9652 26.1236 36.3544 27.3599C37.194 30.0269 37.5812 32.8576 38.4341 35.5165C39.1078 37.6168 39.8421 39.7102 40.4327 41.8366C40.6975 42.7896 41.3765 43.5936 41.7022 44.5239C42.0038 45.3859 41.9188 46.3518 42.2693 47.1843C43.4899 50.083 43.6274 53.4928 44.7541 56.4753C45.7779 59.1853 46.4896 61.9759 47.482 64.686C48.6435 67.8577 49.052 71.2012 50.1019 74.4091C50.5632 75.8187 51.3741 77.0516 51.5604 78.5415C51.882 81.1143 53.2567 83.9159 54.2342 86.32C55.8931 90.3998 57.8577 94.5092 58.5556 98.9061C59.0207 101.836 59.7386 104.889 60.6623 107.711C61.5357 110.38 61.9439 113.046 62.5529 115.787C63.051 118.028 63.6907 120.206 64.1464 122.485C64.5985 124.745 64.4969 127.094 64.9837 129.345C65.3353 130.971 65.6252 132.58 66.0911 134.153C66.5496 135.7 67.3605 140.439 67.3605 138.825" stroke="#ECACC4" stroke-width="2" stroke-linecap="round"/>
<path d="M36.4902 51.8047C36.5911 52.612 37.5013 53.8173 37.7596 54.7216C38.197 56.2524 38.653 57.8067 39.1641 59.3401C40.5771 63.5793 42.1248 67.5671 42.8238 71.9937C43.6042 76.9362 46.0345 81.5273 47.3072 86.3354C48.5189 90.9129 48.9241 95.7293 50.7779 100.123C52.5462 104.315 54.3102 108.479 56.1256 112.628C57.8764 116.63 58.8501 121.075 60.7981 124.971C62.3889 128.153 63.9571 131.241 65.1735 134.587C65.7522 136.178 66.8982 137.415 67.6043 138.827" stroke="#ECACC4" stroke-width="2" stroke-linecap="round"/>
<path d="M38.1914 52.5329C39.2126 52.5329 42.0446 52.605 42.5668 51.5605" stroke="#ECACC4" stroke-width="2" stroke-linecap="round"/>
<path d="M38.6777 54.4773C38.6777 54.7562 41.3542 53.8689 41.8378 53.748" stroke="#ECACC4" stroke-width="2" stroke-linecap="round"/>
<path d="M41.5938 53.5046C42.0809 53.4234 42.8379 53.2041 43.0522 52.7754" stroke="#ECACC4" stroke-width="2" stroke-linecap="round"/>
<path d="M50.831 29.9258C50.3107 31.6817 50.5536 33.7028 50.3449 35.5166C50.0715 37.8911 49.9616 40.3012 49.8452 42.6874C49.7294 45.0601 49.1295 47.5135 49.1295 49.8582C49.1295 51.7039 48.7084 53.6919 48.3462 55.5031C48.0585 56.9415 48.3714 58.4524 47.9141 59.8245" stroke="#ECACC4" stroke-width="2" stroke-linecap="round"/>
<path d="M55.4499 30.8984C55.7618 35.5759 56.4223 40.184 56.4223 44.8755C56.4223 47.0088 56.5274 48.9787 56.9084 51.074C57.714 55.505 58.2476 59.652 57.4486 64.1462C56.8003 67.7928 56.5142 71.5901 55.9496 75.2603C55.7482 76.5692 55.4987 78.009 55.4499 79.3251C55.4178 80.192 55.1958 81.7185 54.7207 82.4312" stroke="#ECACC4" stroke-width="2" stroke-linecap="round"/>
<path d="M47.6713 91.6685C47.6713 85.0284 47.9143 104.947 47.9143 111.588C47.9143 113.398 47.6819 115.151 47.4822 116.949C47.3071 118.525 47.6713 120.162 47.6713 121.756C47.6713 124.228 47.7274 126.688 47.6713 129.157C47.6407 130.501 47.7378 134.512 47.9279 133.181C48.5037 129.15 51.1579 126.127 52.1682 122.31C52.9588 119.323 53.5713 116.526 54.0453 113.492C54.2941 111.899 54.9636 110.042 54.9636 108.441" stroke="#ECACC4" stroke-width="2" stroke-linecap="round"/>
<path d="M41.3518 37.2178C40.1685 37.2178 41.6705 36.7916 42.081 36.6776C43.5 36.2835 44.6658 35.8777 46.1864 36.0159C46.845 36.0758 46.9383 36.7316 47.5503 36.7316C47.996 36.7316 48.4416 36.7316 48.8872 36.7316" stroke="#ECACC4" stroke-width="2" stroke-linecap="round"/>
<path d="M44.2676 49.1302C45.6863 49.1302 48.0841 48.3885 48.8861 47.1855" stroke="#ECACC4" stroke-width="2" stroke-linecap="round"/>
<path d="M52.2891 28.4686C53.4167 28.3746 54.5611 27.9824 55.6922 27.9824C56.6649 27.9824 56.0895 28.3364 55.6922 28.7117C55.0624 29.3065 54.1908 28.9261 53.5045 28.4686" stroke="#ECACC4" stroke-width="2" stroke-linecap="round"/>
<path d="M50.5879 28.7109H51.8033" stroke="#ECACC4" stroke-width="2" stroke-linecap="round"/>
<path d="M51.5611 27.7382C50.8042 27.7382 50.9753 26.1972 50.7238 25.5505C50.3346 24.5499 49.5842 23.6638 49.3193 22.6336C48.6457 20.014 49.7647 17.9225 50.0891 15.3277C50.2829 13.7772 50.9339 12.0024 51.8582 10.7227C52.671 9.59719 53.7488 8.30395 53.7488 6.83345C53.7488 5.86894 54.2306 4.81408 53.9378 3.86249C53.8807 3.67689 53.0579 1.59375 53.3166 1.59375C54.0489 1.59375 55.7114 4.37738 56.166 4.88882C57.5375 6.43169 58.0395 8.49126 58.6103 10.4256C59.5497 13.609 60.4255 16.1423 60.0553 19.4735C59.8266 21.5323 58.968 23.6171 58.5968 25.6586C58.4143 26.6623 57.8476 27.9981 56.9088 28.4675" stroke="#ECACC4" stroke-width="2" stroke-linecap="round"/>
<path d="M55.6934 28.2255C56.3942 28.2255 56.97 28.2051 57.638 27.9824" stroke="#ECACC4" stroke-width="2" stroke-linecap="round"/>
<path d="M50.5879 54.2351C50.6849 55.0111 53.9868 54.2351 54.6662 54.2351C54.97 54.2351 56.7829 54.1761 56.1787 54.4782" stroke="#ECACC4" stroke-width="2" stroke-linecap="round"/>
</svg>
