<svg preserveAspectRatio="xMidYMid meet" viewBox="0 0 33 32" fill="none" xmlns="http://www.w3.org/2000/svg">
<g clip-path="url(#clip0_2750_16313)">
<path d="M6.65397 2.51477e-06H27.3206C28.065 -0.000699045 28.8022 0.145395 29.49 0.429923C30.1778 0.714451 30.8028 1.13183 31.3291 1.65817C31.8555 2.1845 32.2729 2.80947 32.5574 3.4973C32.8419 4.18513 32.988 4.92232 32.9873 5.66667V25.5333C32.988 26.2777 32.8419 27.0149 32.5574 27.7027C32.2729 28.3905 31.8555 29.0155 31.3291 29.5418C30.8028 30.0682 30.1778 30.4856 29.49 30.7701C28.8022 31.0546 28.065 31.2007 27.3206 31.2H6.65397C5.90962 31.2007 5.17243 31.0546 4.4846 30.7701C3.79678 30.4856 3.17181 30.0682 2.64547 29.5418C2.11913 29.0155 1.70176 28.3905 1.41723 27.7027C1.1327 27.0149 0.986606 26.2777 0.987307 25.5333V5.66667C0.986606 4.92232 1.1327 4.18513 1.41723 3.4973C1.70176 2.80947 2.11913 2.1845 2.64547 1.65817C3.17181 1.13183 3.79678 0.714451 4.4846 0.429923C5.17243 0.145395 5.90962 -0.000699045 6.65397 2.51477e-06Z" fill="#061B3A"/>
<path d="M8.1875 21.88V8.16002C8.1875 8.06668 8.2275 8.01335 8.32083 8.01335C8.5475 8.01335 8.76083 8.01335 9.0675 8.00002C9.37417 7.98668 9.72083 7.98668 10.0808 7.97335C10.4408 7.96002 10.8275 7.96002 11.2408 7.94668C11.6542 7.93335 12.0542 7.93335 12.4542 7.93335C13.5475 7.93335 14.4542 8.06668 15.2008 8.34668C15.8702 8.57398 16.4805 8.94747 16.9875 9.44002C17.4171 9.87106 17.7491 10.3894 17.9608 10.96C18.1627 11.5157 18.2664 12.1022 18.2675 12.6933C18.2675 13.84 18.0008 14.7867 17.4675 15.5333C16.9317 16.279 16.1836 16.8459 15.3208 17.16C14.4142 17.4934 13.4142 17.6134 12.3208 17.6134C12.0008 17.6134 11.7875 17.6133 11.6542 17.6C11.5208 17.5867 11.3342 17.5867 11.0808 17.5867V21.8667C11.0838 21.8886 11.0823 21.9109 11.0765 21.9323C11.0707 21.9537 11.0607 21.9736 11.047 21.9911C11.0333 22.0085 11.0163 22.023 10.9969 22.0337C10.9775 22.0444 10.9562 22.0511 10.9342 22.0533H8.3475C8.24083 22.0533 8.1875 22 8.1875 21.88ZM11.0942 10.5867V15.0667C11.2808 15.08 11.4542 15.0933 11.6142 15.0933H12.3208C12.8413 15.094 13.3587 15.013 13.8542 14.8534C14.2792 14.7284 14.659 14.4829 14.9475 14.1467C15.2275 13.8133 15.3608 13.36 15.3608 12.7734C15.3734 12.3567 15.267 11.9451 15.0542 11.5867C14.8318 11.2405 14.5049 10.9743 14.1208 10.8267C13.6203 10.6306 13.0847 10.5399 12.5475 10.56C12.2008 10.56 11.8942 10.56 11.6408 10.5734C11.4586 10.5614 11.2756 10.5659 11.0942 10.5867Z" fill="#31A8FF"/>
<path d="M26.5876 14.2533C26.185 14.0413 25.7539 13.8886 25.3076 13.8C24.8175 13.689 24.3168 13.6309 23.8143 13.6267C23.5444 13.6174 23.2747 13.6488 23.0143 13.72C22.8482 13.7545 22.7009 13.8496 22.6009 13.9867C22.5336 14.0948 22.4967 14.2192 22.4943 14.3467C22.5005 14.4735 22.5472 14.595 22.6276 14.6933C22.754 14.8415 22.9079 14.9638 23.0809 15.0533C23.3876 15.2133 23.7076 15.36 24.0276 15.4933C24.748 15.7358 25.4372 16.0625 26.0809 16.4667C26.5188 16.742 26.8809 17.1224 27.1343 17.5733C27.3485 17.9987 27.4539 18.4706 27.4409 18.9467C27.4517 19.5769 27.2704 20.1954 26.9209 20.72C26.549 21.2522 26.0301 21.6646 25.4276 21.9067C24.7743 22.1867 23.9743 22.3333 23.0143 22.3333C22.4056 22.3358 21.7981 22.2777 21.2009 22.16C20.7307 22.0787 20.2733 21.9352 19.8409 21.7333C19.7944 21.71 19.7558 21.6736 19.7297 21.6286C19.7037 21.5836 19.6913 21.5319 19.6943 21.48V19.16C19.6931 19.1372 19.6973 19.1145 19.7066 19.0936C19.7159 19.0728 19.7299 19.0544 19.7476 19.04C19.7664 19.029 19.7882 19.0244 19.8098 19.0268C19.8314 19.0292 19.8517 19.0385 19.8676 19.0533C20.3812 19.3561 20.9391 19.5766 21.5209 19.7067C22.0347 19.8403 22.5634 19.9075 23.0943 19.9067C23.6009 19.9067 23.9609 19.84 24.2009 19.72C24.308 19.6705 24.3987 19.5916 24.4625 19.4924C24.5262 19.3932 24.5604 19.2779 24.5609 19.16C24.5609 18.9733 24.4543 18.8 24.2409 18.6267C24.0276 18.4533 23.5876 18.2533 22.9343 18C22.264 17.7638 21.6275 17.4411 21.0409 17.04C20.6231 16.7422 20.277 16.355 20.0276 15.9067C19.8148 15.4855 19.7095 15.0183 19.7209 14.5467C19.7229 13.9777 19.8796 13.42 20.1743 12.9333C20.513 12.3981 20.9991 11.9721 21.5743 11.7067C22.2009 11.3867 22.9876 11.24 23.9343 11.24C24.4876 11.2401 25.0401 11.2803 25.5876 11.36C25.9813 11.4133 26.3666 11.5163 26.7343 11.6667C26.7929 11.6874 26.8408 11.7306 26.8676 11.7867C26.883 11.8387 26.8919 11.8924 26.8943 11.9467V14.12C26.8945 14.1459 26.8885 14.1715 26.877 14.1947C26.8654 14.2178 26.8485 14.2379 26.8276 14.2533C26.75 14.2812 26.6652 14.2812 26.5876 14.2533Z" fill="#31A8FF"/>
</g>
<defs>
<clipPath id="clip0_2750_16313">
<rect width="32" height="31.2" fill="white" transform="translate(0.987305)"/>
</clipPath>
</defs>
</svg>
