<svg preserveAspectRatio="xMidYMid meet" viewBox="0 0 33 32" fill="none" xmlns="http://www.w3.org/2000/svg">
<g clip-path="url(#clip0_2750_16316)">
<path d="M6.40397 2.51477e-06H27.0706C27.815 -0.000699045 28.5522 0.145395 29.24 0.429923C29.9278 0.714451 30.5528 1.13183 31.0791 1.65817C31.6055 2.1845 32.0229 2.80947 32.3074 3.4973C32.5919 4.18513 32.738 4.92232 32.7373 5.66667V25.5333C32.738 26.2777 32.5919 27.0149 32.3074 27.7027C32.0229 28.3905 31.6055 29.0155 31.0791 29.5418C30.5528 30.0682 29.9278 30.4856 29.24 30.7701C28.5522 31.0546 27.815 31.2007 27.0706 31.2H6.40397C5.65962 31.2007 4.92243 31.0546 4.2346 30.7701C3.54678 30.4856 2.92181 30.0682 2.39547 29.5418C1.86913 29.0155 1.45176 28.3905 1.16723 27.7027C0.882699 27.0149 0.736606 26.2777 0.737307 25.5333V5.66667C0.736606 4.92232 0.882699 4.18513 1.16723 3.4973C1.45176 2.80947 1.86913 2.1845 2.39547 1.65817C2.92181 1.13183 3.54678 0.714451 4.2346 0.429923C4.92243 0.145395 5.65962 -0.000699045 6.40397 2.51477e-06Z" fill="#470137"/>
<path d="M17.564 8.19983L13.564 14.7998L17.8306 21.7998C17.8587 21.8481 17.8682 21.905 17.8573 21.9598C17.844 22.0132 17.7906 21.9732 17.7106 21.9865H14.6573C14.444 21.9865 14.2973 21.9732 14.204 21.8398C13.924 21.2798 13.6306 20.7332 13.3506 20.1732C13.0706 19.6132 12.764 19.0665 12.444 18.4932C12.124 17.9198 11.804 17.3465 11.484 16.7598H11.4573C11.1773 17.3332 10.8706 17.9065 10.564 18.4798C10.2573 19.0532 9.95064 19.6265 9.65731 20.1865C9.36398 20.7465 9.04398 21.3198 8.73731 21.8665C8.68398 21.9998 8.57731 22.0132 8.43064 22.0132H5.49731C5.44398 22.0132 5.40398 22.0398 5.40398 21.9732C5.39803 21.9482 5.39732 21.9223 5.40192 21.897C5.40651 21.8718 5.41629 21.8478 5.43064 21.8265L9.57731 15.0265L5.53731 8.1865C5.49731 8.13317 5.48398 8.07983 5.51064 8.05317C5.5269 8.03416 5.54752 8.01937 5.57075 8.01009C5.59397 8.0008 5.6191 7.99728 5.64398 7.99983H8.67064C8.73371 8.0012 8.79638 8.01016 8.85731 8.0265C8.91073 8.05524 8.95645 8.0964 8.99064 8.1465C9.24398 8.71983 9.53731 9.29316 9.84398 9.8665C10.1506 10.4398 10.4706 10.9998 10.804 11.5598C11.1373 12.1198 11.4173 12.6798 11.6973 13.2532H11.724C12.004 12.6665 12.2973 12.0932 12.5906 11.5332C12.884 10.9732 13.1906 10.4132 13.4973 9.85317C13.804 9.29317 14.0973 8.71983 14.3906 8.17316C14.4008 8.12068 14.4291 8.07345 14.4706 8.03983C14.5234 8.0107 14.5849 8.00125 14.644 8.01316H17.4573C17.4731 8.00963 17.4894 8.00924 17.5053 8.01202C17.5212 8.0148 17.5364 8.02069 17.55 8.02936C17.5637 8.03804 17.5754 8.04931 17.5847 8.06255C17.594 8.07579 17.6005 8.09072 17.604 8.1065C17.6173 8.11983 17.5906 8.17316 17.564 8.19983Z" fill="#ECACC4"/>
<path d="M23.7242 22.2666C22.7359 22.2828 21.7564 22.0778 20.8575 21.6666C20.0212 21.2755 19.3203 20.6443 18.8442 19.8533C18.3509 19.04 18.1109 18.0266 18.1109 16.8133C18.0974 15.8266 18.3507 14.8545 18.8442 14C19.3502 13.1314 20.0831 12.417 20.9642 11.9333C21.8975 11.4133 23.0175 11.16 24.3375 11.16C24.431 11.1589 24.5245 11.1633 24.6175 11.1733C24.7375 11.1866 24.8709 11.1866 25.0309 11.2V6.98662C25.0309 6.89329 25.0709 6.83995 25.1642 6.83995H27.8709C27.9008 6.83591 27.9311 6.84326 27.9558 6.86056C27.9805 6.87785 27.9978 6.90382 28.0042 6.93328V19.6533C28.0042 19.8933 28.0175 20.16 28.0309 20.4533C28.0442 20.7466 28.0709 21 28.0842 21.2266C28.087 21.2716 28.0757 21.3164 28.0518 21.3547C28.0279 21.393 27.9926 21.4228 27.9509 21.44C27.2525 21.7335 26.5235 21.9481 25.7775 22.08C25.0999 22.2022 24.4128 22.2646 23.7242 22.2666ZM25.0309 19.6V13.7333C24.9121 13.7046 24.792 13.6824 24.6709 13.6666C24.5242 13.6533 24.3775 13.64 24.2309 13.64C23.7082 13.6341 23.1917 13.7529 22.7242 13.9866C22.2686 14.2136 21.8785 14.5533 21.5909 14.9733C21.2975 15.4 21.1509 15.9733 21.1509 16.6666C21.1392 17.1346 21.2161 17.6005 21.3775 18.04C21.5065 18.3953 21.7112 18.7183 21.9775 18.9866C22.2346 19.2319 22.5449 19.4145 22.8842 19.52C23.2414 19.6369 23.615 19.6955 23.9909 19.6933C24.1909 19.6933 24.3775 19.68 24.5509 19.6666C24.7138 19.6782 24.8773 19.6555 25.0309 19.6Z" fill="#ECACC4"/>
</g>
<defs>
<clipPath id="clip0_2750_16316">
<rect width="32" height="31.2" fill="white" transform="translate(0.737305)"/>
</clipPath>
</defs>
</svg>
