<svg preserveAspectRatio="xMidYMid meet" viewBox="0 0 33 32" fill="none" xmlns="http://www.w3.org/2000/svg">
<g clip-path="url(#clip0_2750_16315)">
<path d="M6.15397 2.51477e-06H26.8206C27.565 -0.000699045 28.3022 0.145395 28.99 0.429923C29.6778 0.714451 30.3028 1.13183 30.8291 1.65817C31.3555 2.1845 31.7729 2.80947 32.0574 3.4973C32.3419 4.18513 32.488 4.92232 32.4873 5.66667V25.5333C32.488 26.2777 32.3419 27.0149 32.0574 27.7027C31.7729 28.3905 31.3555 29.0155 30.8291 29.5418C30.3028 30.0682 29.6778 30.4856 28.99 30.7701C28.3022 31.0546 27.565 31.2007 26.8206 31.2H6.15397C5.40962 31.2007 4.67243 31.0546 3.9846 30.7701C3.29678 30.4856 2.67181 30.0682 2.14547 29.5418C1.61913 29.0155 1.20176 28.3905 0.917228 27.7027C0.632699 27.0149 0.486606 26.2777 0.487307 25.5333V5.66667C0.486606 4.92232 0.632699 4.18513 0.917228 3.4973C1.20176 2.80947 1.61913 2.1845 2.14547 1.65817C2.67181 1.13183 3.29678 0.714451 3.9846 0.429923C4.67243 0.145395 5.40962 -0.000699045 6.15397 2.51477e-06Z" fill="#061B3A"/>
<path d="M17.2873 22.0534H8.83397C8.68731 22.0534 8.62064 21.9734 8.62064 21.8134V8.18674C8.61766 8.1648 8.61913 8.14249 8.62494 8.12112C8.63075 8.09976 8.64079 8.07978 8.65447 8.06237C8.66815 8.04496 8.68519 8.03047 8.70457 8.01977C8.72395 8.00907 8.74529 8.00237 8.76731 8.00007H11.434C11.4507 7.99704 11.4678 7.99742 11.4843 8.00119C11.5008 8.00496 11.5164 8.01205 11.5301 8.02202C11.5438 8.03199 11.5554 8.04464 11.5641 8.0592C11.5728 8.07376 11.5784 8.08994 11.5806 8.10674V19.3467H17.7406C17.874 19.3467 17.914 19.4134 17.8873 19.5334L17.5006 21.8534C17.4986 21.884 17.4904 21.914 17.4767 21.9414C17.463 21.9689 17.4439 21.9934 17.4206 22.0134C17.3815 22.0405 17.3349 22.0545 17.2873 22.0534Z" fill="#31A8FF"/>
<path d="M19.4206 11.3867H21.754C21.8172 11.3882 21.8783 11.4097 21.9286 11.448C21.9788 11.4863 22.0157 11.5395 22.034 11.6C22.0891 11.6944 22.1253 11.7985 22.1406 11.9067C22.1673 12.04 22.194 12.1867 22.2073 12.32C22.2206 12.4534 22.234 12.6267 22.234 12.8C22.6343 12.3327 23.1181 11.9438 23.6606 11.6534C24.2698 11.3232 24.9546 11.1577 25.6473 11.1734C25.6692 11.1704 25.6916 11.1719 25.7129 11.1777C25.7343 11.1835 25.7543 11.1935 25.7717 11.2072C25.7891 11.2209 25.8036 11.2379 25.8143 11.2573C25.825 11.2767 25.8317 11.298 25.834 11.32V13.9734C25.834 14.08 25.7673 14.12 25.6206 14.12C24.7565 14.0683 23.8925 14.2237 23.1006 14.5734C22.8306 14.6889 22.5859 14.8566 22.3806 15.0667V21.8667C22.3806 22 22.3273 22.0534 22.2073 22.0534H19.6073C19.5827 22.0575 19.5575 22.0566 19.5333 22.0507C19.5091 22.0449 19.4863 22.0341 19.4663 22.0191C19.4464 22.0042 19.4297 21.9853 19.4172 21.9637C19.4048 21.9421 19.3969 21.9181 19.394 21.8934V14.4534C19.394 14.1334 19.394 13.8 19.3806 13.4534C19.3673 13.1067 19.3673 12.76 19.354 12.4134C19.3406 12.12 19.314 11.8267 19.274 11.5334C19.2704 11.5176 19.27 11.5013 19.2728 11.4854C19.2756 11.4695 19.2815 11.4543 19.2902 11.4407C19.2988 11.427 19.3101 11.4152 19.3234 11.406C19.3366 11.3967 19.3515 11.3902 19.3673 11.3867C19.3806 11.3734 19.394 11.3734 19.4206 11.3867Z" fill="#31A8FF"/>
</g>
<defs>
<clipPath id="clip0_2750_16315">
<rect width="32" height="31.2" fill="white" transform="translate(0.487305)"/>
</clipPath>
</defs>
</svg>
