<svg preserveAspectRatio="xMidYMid meet" viewBox="0 0 33 32" fill="none" xmlns="http://www.w3.org/2000/svg">
<g clip-path="url(#clip0_2750_16312)">
<path d="M6.40397 2.51477e-06H27.0706C27.815 -0.000699045 28.5522 0.145395 29.24 0.429923C29.9278 0.714451 30.5528 1.13183 31.0791 1.65817C31.6055 2.1845 32.0229 2.80947 32.3074 3.4973C32.5919 4.18513 32.738 4.92232 32.7373 5.66667V25.5333C32.738 26.2777 32.5919 27.0149 32.3074 27.7027C32.0229 28.3905 31.6055 29.0155 31.0791 29.5418C30.5528 30.0682 29.9278 30.4856 29.24 30.7701C28.5522 31.0546 27.815 31.2007 27.0706 31.2H6.40397C5.65962 31.2007 4.92243 31.0546 4.2346 30.7701C3.54678 30.4856 2.92181 30.0682 2.39547 29.5418C1.86913 29.0155 1.45176 28.3905 1.16723 27.7027C0.882699 27.0149 0.736606 26.2777 0.737307 25.5333V5.66667C0.736606 4.92232 0.882699 4.18513 1.16723 3.4973C1.45176 2.80947 1.86913 2.1845 2.39547 1.65817C2.92181 1.13183 3.54678 0.714451 4.2346 0.429923C4.92243 0.145395 5.65962 -0.000699045 6.40397 2.51477e-06Z" fill="#000B1D"/>
<path d="M13.4041 25.6C15.2451 25.6 16.7375 24.1076 16.7375 22.2667V18.9333H13.4041C11.5632 18.9333 10.0708 20.4257 10.0708 22.2667C10.0708 24.1076 11.5632 25.6 13.4041 25.6Z" fill="#0ACF83"/>
<path d="M10.0708 15.6002C10.0708 13.7592 11.5632 12.2668 13.4041 12.2668H16.7375V18.9335H13.4041C11.5632 18.9335 10.0708 17.4411 10.0708 15.6002Z" fill="#A259FF"/>
<path d="M10.0708 8.93343C10.0708 7.09248 11.5632 5.6001 13.4041 5.6001H16.7375V12.2668H13.4041C11.5632 12.2668 10.0708 10.7744 10.0708 8.93343Z" fill="#F24E1E"/>
<path d="M16.7373 5.6001H20.0706C21.9116 5.6001 23.404 7.09248 23.404 8.93343C23.404 10.7744 21.9116 12.2668 20.0706 12.2668H16.7373V5.6001Z" fill="#FF7262"/>
<path d="M23.404 15.6002C23.404 17.4411 21.9116 18.9335 20.0706 18.9335C18.2297 18.9335 16.7373 17.4411 16.7373 15.6002C16.7373 13.7592 18.2297 12.2668 20.0706 12.2668C21.9116 12.2668 23.404 13.7592 23.404 15.6002Z" fill="#1ABCFE"/>
</g>
<defs>
<clipPath id="clip0_2750_16312">
<rect width="32" height="31.2" fill="white" transform="translate(0.737305)"/>
</clipPath>
</defs>
</svg>
