<svg preserveAspectRatio="xMidYMid meet" viewBox="0 0 33 32" fill="none" xmlns="http://www.w3.org/2000/svg">
<g clip-path="url(#clip0_2750_16314)">
<path d="M5.90397 2.51477e-06H26.5706C27.315 -0.000699045 28.0522 0.145395 28.74 0.429923C29.4278 0.714451 30.0528 1.13183 30.5791 1.65817C31.1055 2.1845 31.5229 2.80947 31.8074 3.4973C32.0919 4.18513 32.238 4.92232 32.2373 5.66667V25.5333C32.238 26.2777 32.0919 27.0149 31.8074 27.7027C31.5229 28.3905 31.1055 29.0155 30.5791 29.5418C30.0528 30.0682 29.4278 30.4856 28.74 30.7701C28.0522 31.0546 27.315 31.2007 26.5706 31.2H5.90397C5.15962 31.2007 4.42243 31.0546 3.7346 30.7701C3.04678 30.4856 2.42181 30.0682 1.89547 29.5418C1.36913 29.0155 0.951756 28.3905 0.667228 27.7027C0.382699 27.0149 0.236606 26.2777 0.237307 25.5333V5.66667C0.236606 4.92232 0.382699 4.18513 0.667228 3.4973C0.951756 2.80947 1.36913 2.1845 1.89547 1.65817C2.42181 1.13183 3.04678 0.714451 3.7346 0.429923C4.42243 0.145395 5.15962 -0.000699045 5.90397 2.51477e-06Z" fill="#330000"/>
<path d="M15.7437 18.7199H10.7837L9.7704 21.8532C9.75907 21.9104 9.7268 21.9612 9.67993 21.9957C9.63306 22.0302 9.57496 22.046 9.51706 22.0399H7.01039C6.86373 22.0399 6.82373 21.9599 6.86373 21.7999L11.1571 9.43991C11.1971 9.30657 11.2371 9.15991 11.2904 8.99991C11.3441 8.71415 11.3708 8.42399 11.3704 8.13324C11.3664 8.09985 11.3752 8.06618 11.395 8.03898C11.4147 8.01178 11.4441 7.99306 11.4771 7.98657H14.9304C15.0371 7.98657 15.0904 8.02657 15.1037 8.09324L19.9704 21.8266C20.0104 21.9732 19.9704 22.0399 19.8371 22.0399H17.0504C17.0033 22.0444 16.956 22.0322 16.917 22.0054C16.878 21.9786 16.8497 21.9389 16.8371 21.8932L15.7437 18.7199ZM11.5571 16.0132H14.9437C14.8637 15.7332 14.7571 15.3999 14.6371 15.0532C14.5171 14.7066 14.3971 14.3066 14.2771 13.9066C14.1571 13.5066 14.0237 13.0932 13.8904 12.6799C13.7571 12.2666 13.6371 11.8799 13.5304 11.4932C13.4237 11.1066 13.3304 10.7732 13.2371 10.4532H13.2104C13.0906 11.0344 12.9392 11.6085 12.7571 12.1732C12.5571 12.8132 12.3571 13.4799 12.1437 14.1466C11.9571 14.8266 11.7571 15.4532 11.5571 16.0132Z" fill="#FF9A00"/>
<path d="M22.8768 10.2666C22.658 10.2714 22.4404 10.2326 22.2366 10.1525C22.0329 10.0724 21.8471 9.95256 21.6902 9.79997C21.3847 9.46596 21.222 9.0257 21.2368 8.57331C21.229 8.35289 21.2676 8.13328 21.3503 7.92881C21.4331 7.72434 21.5579 7.5396 21.7168 7.38664C22.0373 7.08373 22.4625 6.91651 22.9035 6.91997C23.4235 6.91997 23.8235 7.07997 24.1168 7.38664C24.4122 7.70994 24.57 8.13559 24.5568 8.57331C24.565 8.79858 24.5279 9.0232 24.4477 9.23389C24.3676 9.44458 24.246 9.63707 24.0902 9.79997C23.9331 9.96 23.7435 10.0845 23.5341 10.165C23.3248 10.2455 23.1007 10.2801 22.8768 10.2666ZM21.3835 21.84V11.5733C21.3835 11.44 21.4368 11.3866 21.5568 11.3866H24.1968C24.3168 11.3866 24.3702 11.4533 24.3702 11.5733V21.84C24.3702 21.9866 24.3168 22.0533 24.1968 22.0533H21.5835C21.5555 22.0556 21.5273 22.0516 21.5011 22.0415C21.4748 22.0314 21.4512 22.0155 21.432 21.9949C21.4128 21.9744 21.3984 21.9498 21.39 21.923C21.3816 21.8962 21.3794 21.8678 21.3835 21.84Z" fill="#FF9A00"/>
</g>
<defs>
<clipPath id="clip0_2750_16314">
<rect width="32" height="31.2" fill="white" transform="translate(0.237305)"/>
</clipPath>
</defs>
</svg>
